<?xml version="1.0" standalone="no"?>
<!DOCTYPE svg PUBLIC "-//W3C//DTD SVG 20010904//EN"
 "http://www.w3.org/TR/2001/REC-SVG-20010904/DTD/svg10.dtd">
<svg version="1.0" xmlns="http://www.w3.org/2000/svg"
 width="106.000000pt" height="106.000000pt" viewBox="0 0 106.000000 106.000000"
 preserveAspectRatio="xMidYMid meet">
<metadata>
Created by potrace 1.11, written by Peter Selinger 2001-2013
</metadata>
<g transform="translate(0.000000,106.000000) scale(0.100000,-0.100000)"
fill="#000000" stroke="none">
<path d="M457 1045 c3 -9 -5 -17 -23 -21 -26 -7 -26 -8 -9 -20 22 -17 12 -18
-16 -3 -11 5 -17 14 -14 19 10 16 -12 20 -44 9 -18 -6 -30 -13 -28 -15 2 -3
16 0 31 6 15 5 25 6 21 1 -3 -5 -28 -14 -56 -20 -55 -12 -104 -34 -115 -52 -4
-8 -3 -9 4 -5 21 12 13 -10 -10 -30 -12 -10 -18 -13 -13 -5 5 9 4 12 -4 10 -7
-3 -13 -9 -13 -14 -1 -6 -15 -20 -32 -33 -17 -13 -30 -25 -28 -27 8 -14 -12
-74 -34 -100 -25 -30 -25 -30 2 23 15 29 24 55 21 58 -9 9 -58 -82 -60 -113
-1 -15 -5 -30 -9 -33 -21 -16 -31 -221 -11 -241 7 -7 9 -3 6 14 -6 28 15 46
28 26 5 -8 6 -31 3 -52 -5 -35 -3 -41 37 -79 23 -22 34 -36 23 -30 -30 16 -64
57 -72 85 -4 17 -11 24 -19 19 -27 -17 70 -228 100 -216 8 3 20 -3 28 -12 13
-16 15 -15 20 12 6 26 7 25 8 -11 0 -23 4 -45 8 -51 5 -5 0 0 -11 11 -10 11
-23 19 -28 17 -5 -1 -6 3 -2 9 5 8 3 9 -6 4 -9 -6 -11 -4 -5 5 6 9 4 11 -4 5
-17 -10 58 -88 77 -80 7 2 11 1 9 -3 -3 -4 17 -22 44 -41 43 -29 53 -32 74
-23 19 9 28 7 48 -9 14 -10 31 -19 39 -19 10 0 9 -3 -2 -10 -12 -8 -9 -10 10
-8 14 2 28 8 32 13 5 6 8 5 8 -2 0 -10 23 -13 83 -12 66 1 75 3 47 10 -29 6
-26 7 22 5 49 -2 68 3 140 38 45 23 84 47 86 54 4 11 0 12 -17 3 -17 -10 -21
-9 -21 4 0 9 5 13 10 10 6 -4 17 -1 25 5 8 7 21 10 29 7 19 -7 72 53 110 123
27 49 42 105 26 95 -4 -3 -10 6 -12 20 -3 14 -1 25 3 25 5 0 9 -7 9 -15 0 -18
26 -20 27 -2 1 6 6 28 12 47 l11 35 -20 -25 c-20 -24 -20 -24 0 29 22 56 21
121 -1 163 -6 11 -8 26 -5 34 3 8 2 13 -3 10 -5 -3 -14 8 -20 24 -6 19 -6 28
-1 25 13 -8 -7 38 -37 87 -33 54 -79 103 -133 143 -47 34 -137 74 -125 55 3
-6 2 -10 -4 -10 -6 0 -15 8 -20 19 -12 22 -58 33 -163 36 -62 3 -76 1 -71 -10z
m218 -45 c32 -21 60 -27 50 -10 -3 6 -1 10 4 10 6 0 11 -7 11 -15 0 -20 -39
-19 -61 1 -10 9 -33 20 -51 24 -28 7 -29 8 -8 9 14 0 39 -8 55 -19z m-157 -24
c12 0 22 -2 22 -4 0 -13 -127 -112 -144 -112 -5 0 11 13 36 30 24 16 53 39 63
50 17 19 17 20 -16 35 -21 10 -24 13 -9 9 14 -3 35 -7 48 -8z m130 -84 c16
-25 10 -38 -23 -44 -14 -3 -19 -11 -18 -28 2 -22 1 -23 -8 -7 -13 22 4 47 32
47 36 0 17 26 -61 83 -15 11 -8 9 19 -5 24 -13 51 -33 59 -46z m-274 -1 c3 -4
-6 -6 -19 -3 -19 3 -27 -1 -34 -19 -6 -14 -10 -18 -10 -8 -2 30 48 54 63 30z
m544 -26 c-3 -3 -9 2 -12 12 -6 14 -5 15 5 6 7 -7 10 -15 7 -18z m-544 -23 c2
-4 0 -14 -6 -22 -8 -12 -9 -12 -5 2 3 9 1 19 -6 22 -9 3 -9 5 0 5 6 1 14 -3
17 -7z m567 -9 c13 -16 12 -17 -3 -4 -10 7 -18 15 -18 17 0 8 8 3 21 -13z
m-225 -8 c18 -14 17 -14 -9 -3 -24 10 -29 9 -43 -10 -8 -12 -23 -22 -32 -21
-13 0 -12 2 4 9 12 4 24 15 27 24 8 20 28 20 53 1z m132 -31 c0 -17 -3 -22 -8
-13 -5 6 -6 18 -3 26 8 19 11 16 11 -13z m42 -4 c17 -40 27 -45 51 -24 19 17
20 17 42 -6 19 -21 19 -22 1 -7 -18 15 -22 15 -42 1 -12 -8 -26 -13 -31 -10
-14 9 -51 76 -42 76 5 0 14 -14 21 -30z m-119 -42 c30 -58 19 -56 -12 3 -15
27 -23 46 -18 43 5 -3 19 -23 30 -46z m-635 -30 c-19 -27 -21 -54 -3 -61 9 -4
9 -6 -1 -6 -22 -2 -26 31 -9 61 9 17 18 37 18 46 1 15 2 15 6 0 2 -10 -3 -28
-11 -40z m169 7 c-20 -24 -34 -49 -30 -55 12 -19 -1 -10 -45 32 -44 41 -37 45
8 4 l24 -21 28 35 c16 19 30 38 30 43 0 4 5 7 11 7 6 0 -6 -20 -26 -45z m565
-17 c-12 -10 -27 -18 -34 -18 -6 0 1 8 17 18 15 9 27 23 28 32 0 12 2 13 6 1
3 -8 -4 -23 -17 -33z m-690 28 c0 -3 -4 -8 -10 -11 -5 -3 -10 -1 -10 4 0 6 5
11 10 11 6 0 10 -2 10 -4z m-17 -46 c-3 -12 -8 -19 -11 -16 -5 6 5 36 12 36 2
0 2 -9 -1 -20z m285 -29 c2 -13 0 -27 -5 -32 -6 -6 -8 2 -5 20 3 24 0 30 -19
34 -23 5 -23 5 1 4 18 -2 26 -9 28 -26z m363 20 c-8 -5 -10 -14 -5 -22 6 -12
5 -12 -8 -1 -19 15 -53 8 -88 -18 -21 -16 -22 -20 -11 -34 12 -14 12 -16 -3
-10 -37 14 -7 54 60 78 46 17 77 21 55 7z m-431 -50 c-14 -27 -29 -26 -65 5
l-30 26 32 -21 c42 -28 50 -27 59 12 5 20 9 26 11 15 3 -9 -1 -26 -7 -37z
m-176 -48 c-19 -53 -17 -73 5 -73 10 0 25 -7 32 -17 13 -14 12 -15 -6 -5 -11
6 -28 13 -39 16 -15 5 -17 12 -11 43 6 36 22 73 29 73 2 0 -2 -17 -10 -37z
m210 23 c-3 -8 5 -21 18 -30 12 -9 18 -16 12 -16 -17 0 -47 38 -39 49 9 16 15
13 9 -3z m416 -21 c0 -5 -5 -3 -10 5 -5 8 -10 20 -10 25 0 6 5 3 10 -5 5 -8
10 -19 10 -25z m-171 -2 c0 -11 -3 -13 -6 -5 -6 17 -28 15 -61 -4 l-27 -16 25
21 c31 26 70 28 69 4z m61 -48 c-7 -8 -20 -15 -29 -14 -11 0 -9 3 7 9 13 6 22
19 23 32 1 18 2 19 6 5 3 -10 -1 -24 -7 -32z m130 10 c0 -23 22 -29 36 -11 7
10 21 16 31 14 23 -4 29 -50 9 -68 -11 -8 -16 -9 -16 -1 0 6 5 11 10 11 6 0
10 11 10 25 0 28 -21 33 -40 10 -18 -22 -35 -18 -48 10 -15 32 -15 38 -2 30 6
-3 10 -12 10 -20z m-302 -1 c-12 -12 -14 -23 -7 -47 5 -18 5 -27 0 -21 -16 16
-17 50 -2 67 7 10 16 17 19 17 4 0 -1 -7 -10 -16z m352 -58 c0 -2 -7 -9 -15
-16 -13 -11 -14 -10 -9 4 5 14 24 23 24 12z m-665 -42 c9 3 13 2 10 -4 -9 -15
-31 -12 -45 5 -7 9 -19 14 -26 11 -8 -3 -11 0 -7 10 5 13 9 11 29 -7 13 -13
30 -19 39 -15z m301 -52 c-15 -15 -15 -15 -4 10 7 15 15 23 17 17 2 -6 -4 -18
-13 -27z m351 16 c-3 -8 -6 -5 -6 6 -1 11 2 17 5 13 3 -3 4 -12 1 -19z m-735
-52 c3 -35 8 -41 38 -53 l35 -13 -31 6 c-30 5 -31 3 -27 -23 3 -21 0 -18 -11
12 -9 22 -15 60 -15 85 1 51 6 44 11 -14z m358 28 c0 -2 -8 0 -18 5 -22 12
-38 3 -45 -24 -4 -18 -5 -18 -6 2 -1 27 27 45 51 32 10 -5 18 -12 18 -15z
m387 -26 c-3 -7 -5 -2 -5 12 0 14 2 19 5 13 2 -7 2 -19 0 -25z m44 -24 c-17
-19 -29 -39 -26 -44 3 -6 0 -7 -8 -4 -7 2 -36 -6 -63 -20 -67 -33 -88 -36 -91
-11 -1 14 0 15 3 3 4 -14 10 -15 32 -7 61 23 112 53 112 66 0 8 4 12 9 9 4 -3
19 6 31 19 36 38 36 30 1 -11z m-400 -1 c13 -16 12 -17 -3 -5 -9 7 -28 10 -45
7 -23 -4 -24 -4 -8 4 30 14 41 13 56 -6z m225 -36 c1 -11 0 -12 -3 -3 -2 8
-14 17 -26 19 -18 3 -18 4 3 3 16 -1 25 -7 26 -19z m-502 -16 c4 -5 -3 -7 -14
-4 -23 6 -26 13 -6 13 8 0 17 -4 20 -9z m281 -42 c0 -16 -3 -29 -7 -29 -5 0
-8 -9 -8 -19 0 -11 -4 -22 -8 -25 -4 -2 -8 7 -7 22 0 21 -6 28 -30 34 -26 6
-25 7 8 3 37 -4 41 0 40 43 -1 7 2 10 6 7 3 -4 6 -20 6 -36z m-241 12 c14 -15
15 -21 4 -27 -7 -4 -10 -3 -5 1 4 5 0 17 -10 27 -9 10 -14 18 -11 18 3 0 13
-9 22 -19z m81 -8 c-11 -3 -26 -10 -32 -15 -8 -6 -13 -7 -13 -1 0 16 12 23 39
22 21 -1 22 -2 6 -6z m326 -16 c-10 -9 -11 -8 -5 6 3 10 9 15 12 12 3 -3 0
-11 -7 -18z m-268 6 c-7 -2 -19 -2 -25 0 -7 3 -2 5 12 5 14 0 19 -2 13 -5z
m470 -13 c-3 -12 -8 -19 -11 -16 -5 6 5 36 12 36 2 0 2 -9 -1 -20z m-283 -16
c0 -2 -11 -4 -25 -4 -14 0 -25 4 -25 9 0 4 11 6 25 3 14 -2 25 -6 25 -8z m60
12 c0 -2 -9 -6 -20 -9 -11 -3 -18 -1 -14 4 5 9 34 13 34 5z m-360 -39 c13 -5
13 -6 0 -6 -18 -1 -40 18 -40 34 0 5 6 3 13 -6 7 -9 19 -18 27 -22z m35 23 c3
-5 1 -10 -4 -10 -6 0 -11 5 -11 10 0 6 2 10 4 10 3 0 8 -4 11 -10z m525 -25
c-7 -8 -17 -15 -23 -15 -6 0 -2 7 9 15 25 19 30 19 14 0z m-329 -54 c12 6 23
9 25 6 2 -2 -7 -9 -21 -15 -19 -9 -27 -8 -40 4 -8 9 -15 21 -15 27 0 6 7 1 16
-11 12 -18 19 -20 35 -11z m64 -11 c3 -5 -6 -17 -20 -26 -21 -14 -31 -15 -58
-6 l-32 11 35 -3 c43 -4 80 11 59 25 -9 6 -10 9 -2 9 6 0 14 -4 18 -10z m-97
-68 c9 -27 8 -28 -22 -29 -22 0 -24 1 -8 4 19 4 23 9 18 29 -9 33 0 30 12 -4z"/>
<path d="M407 1039 c7 -7 15 -10 18 -7 3 3 -2 9 -12 12 -14 6 -15 5 -6 -5z"/>
<path d="M30 461 c0 -11 5 -23 10 -26 6 -3 10 3 10 14 0 11 -4 23 -10 26 -5 3
-10 -3 -10 -14z"/>
<path d="M364 25 c21 -16 32 -13 21 4 -3 6 -14 11 -23 11 -15 -1 -15 -2 2 -15z"/>
</g>
</svg>
