<?xml version="1.0" encoding="utf-8"?>
<!-- Generator: Adobe Illustrator 24.2.1, SVG Export Plug-In . SVG Version: 6.00 Build 0)  -->
<svg version="1.1" id="Layer_1" xmlns="http://www.w3.org/2000/svg" xmlns:xlink="http://www.w3.org/1999/xlink" x="0px" y="0px"
	 viewBox="0 0 512.8 516.2" style="enable-background:new 0 0 512.8 516.2;" xml:space="preserve">
<style type="text/css">
	.st0{fill:#333251;}
	.st1{fill:#AD87B8;}
	.st2{fill:#AD88B8;}
	.st3{fill:#696A87;}
	.st4{fill:#5C5C7A;}
	.st5{fill:#585977;}
	.st6{fill:#383756;}
	.st7{fill:#565674;}
	.st8{fill:#353553;}
	.st9{fill:#403F5E;}
	.st10{fill:#5F5F7D;}
	.st11{fill:#666785;}
	.st12{fill:#3B3A59;}
	.st13{fill:#3D3C5B;}
	.st14{fill:#464664;}
	.st15{fill:#434361;}
	.st16{fill:#60617F;}
	.st17{fill:#484867;}
	.st18{fill:#434261;}
	.st19{fill:#646582;}
	.st20{fill:#51516F;}
	.st21{fill:#3E3D5C;}
	.st22{fill:#3A3958;}
	.st23{fill:#C5ADD0;}
	.st24{fill:#B694C0;}
	.st25{fill:#626280;}
	.st26{fill:#4B4B69;}
	.st27{fill:#363554;}
	.st28{fill:#B08CBB;}
	.st29{fill:#535372;}
	.st30{fill:#41415F;}
	.st31{fill:#4D4D6C;}
	.st32{fill:#3C3B5A;}
	.st33{fill:#4B4B6A;}
	.st34{fill:#C1A6CC;}
	.st35{fill:#535472;}
	.st36{fill:#BC9EC7;}
	.st37{fill:#C3AACE;}
	.st38{fill:#B391BE;}
	.st39{fill:#545472;}
	.st40{fill:#4F4F6C;}
	.st41{fill:#636482;}
	.st42{fill:#BA9BC5;}
	.st43{fill:#B18DBC;}
	.st44{fill:#BFA2CA;}
	.st45{fill:#B898C3;}
	.st46{fill:#4F4F6E;}
	.st47{fill:#444462;}
	.st48{fill:#BFA4CA;}
	.st49{fill:#C9B3D4;}
	.st50{fill:#C7B0D2;}
	.st51{fill:#50506E;}
	.st52{fill:#C3A9CE;}
	.st53{fill:#61617F;}
	.st54{fill:#646482;}
	.st55{fill:#CCB7D7;}
	.st56{fill:#595977;}
	.st57{fill:#4D4D6B;}
	.st58{fill:#5E5F7D;}
	.st59{fill:#4C4C6A;}
	.st60{fill:#B694C1;}
	.st61{fill:#B594C0;}
	.st62{fill:#B999C4;}
	.st63{fill:#696A88;}
	.st64{fill:#676785;}
	.st65{fill:#373654;}
	.st66{fill:#CCB8D7;}
	.st67{fill:#CFBCDA;}
	.st68{fill:#BB9CC6;}
	.st69{fill:#C9B2D3;}
	.st70{fill:#B390BE;}
	.st71{fill:#D2C0DD;}
	.st72{fill:#BEA2C9;}
	.st73{fill:#D1C0DC;}
	.st74{fill:#C4ABCF;}
	.st75{fill:#4E4E6C;}
	.st76{fill:#BEA1C9;}
	.st77{fill:#CAB4D5;}
	.st78{fill:#C7AFD2;}
	.st79{fill:#D5C5DF;}
	.st80{fill:#CEBAD9;}
	.st81{fill:#565774;}
	.st82{fill:#BB9DC6;}
	.st83{fill:#F5F4F7;}
	.st84{fill:#D1BEDB;}
	.st85{fill:#E3D8EA;}
	.st86{fill:#454460;}
	.st87{fill:#BFA2C9;}
	.st88{fill:#C2A7CC;}
	.st89{fill:#5D5D7B;}
	.st90{fill:#F0F0F2;}
	.st91{fill:#D9CAE2;}
	.st92{fill:#F1EBF3;}
	.st93{fill:#EAE1ED;}
	.st94{fill:#E4E0E8;}
	.st95{fill:#DBDBE0;}
	.st96{fill:#C8B0D3;}
	.st97{fill:#CECDD4;}
	.st98{fill:#E9E1EE;}
	.st99{fill:#DBCCE3;}
	.st100{fill:#E8E8EB;}
	.st101{fill:#FEFEFE;}
	.st102{fill:#5C5B74;}
	.st103{fill:#5E5D76;}
	.st104{fill:#757489;}
	.st105{fill:#D9D9DE;}
	.st106{fill:#5A5A73;}
	.st107{fill:#D9D9DF;}
	.st108{fill:#4C4B66;}
	.st109{fill:#89889A;}
	.st110{fill:#EBE8EF;}
	.st111{fill:#C4C3CC;}
	.st112{fill:#595972;}
	.st113{fill:#E8DFED;}
	.st114{fill:#8B8A9C;}
	.st115{fill:#CCCBD3;}
	.st116{fill:#737287;}
	.st117{fill:#A6A5B3;}
	.st118{fill:#403F5C;}
	.st119{fill:#7B7B8F;}
	.st120{fill:#D5D5DB;}
	.st121{fill:#D8CAE1;}
	.st122{fill:#D6C6E0;}
	.st123{fill:#585771;}
	.st124{fill:#9897A7;}
	.st125{fill:#C6ACCE;}
	.st126{fill:#E5D9E8;}
	.st127{fill:#A4A3B1;}
	.st128{fill:#D8D8DE;}
	.st129{fill:#E5E5E9;}
	.st130{fill:#F2F2F4;}
	.st131{fill:#B5B5C0;}
	.st132{fill:#BFBFC8;}
	.st133{fill:#D3CDD9;}
	.st134{fill:#D0C0D7;}
	.st135{fill:#EFE8F1;}
	.st136{fill:#F9F7FA;}
	.st137{fill:#E1D7E5;}
	.st138{fill:#C5C4CD;}
	.st139{fill:#F1F1F3;}
	.st140{fill:#E5E1EA;}
	.st141{fill:#E1DCE6;}
	.st142{fill:#E4DEE9;}
	.st143{fill:#F8F8F9;}
	.st144{fill:#EDE5F0;}
	.st145{fill:#F8F5F9;}
</style>
<g>
	<g id="Layer_1_1_">
		<path class="st0" d="M342,224.1c0-0.3,0-0.5-0.1-0.8c-0.3-0.5-0.8-0.9-1.3-1c-1.8-1.2-3.7-2.3-5.3-3.7c-3.3-2.7-3.4-6-1.1-9.4
			c2.4-3.6,5.8-6,9.4-8.2c10.8-6.7,22.5-11.2,34.5-15.1c3.2-1,4.5-0.4,5.6,3c6.8,21.6,13.8,43.2,24,63.6c2,4.4,4.7,8.6,7.9,12.2
			c3.7,4,6,4.1,9.7,0.2c4.1-4.2,7.6-9,11.7-13.2c4.6-4.8,9.5-4,12.4,2c3.2,6.6,2.6,13.4,0.2,20.1c-0.9,2.9-3.8,4.7-6.8,4.1
			c-3.5-0.4-7-1.1-10.4-1.7c-4.3-0.7-7.2,1.1-8.5,5.2c-1.4,4.4-1.6,9-0.6,13.5c4,19.8,8,39.5,12.2,59.2c1.2,5.6,0.1,9.4-5.1,12.5
			c-18,10.9-36.9,20-56.6,27.4c-1.4,0.7-2.9,1-4.4,0.8c-2.7-0.5-5-1.3-3.5-5c1.8-4.2,3.2-8.5,4.9-12.6c2.1-5.2,3.3-10.4-1.2-15
			c-5-5.1-11-7.3-17.9-4.9c-8.5,2.9-13.3,9.2-15.2,18c-0.8,3.5,1,6.3,2.8,8.9c7.4,10.9,7.1,17.1-8.8,21.6c-18.7,5.2-37.8,5.7-57,3
			c-3.7-0.5-7.3-1.3-11-1.5s-5.2-1.1-3.2-5c3.6-7.1,4.4-14.6,4.1-22.5s-0.1-15.8-0.1-23.7c0-8.2-9.8-15.1-17.6-12.1
			c-3.4,1.3-6.6,3.3-9.9,4.9c-10.5,5.2-20-0.5-20.3-12.2c-0.1-2,0-4,0.1-6.1c0.5-6.4,6.1-11.2,12.5-10.7c1.3,0.1,2.6,0.4,3.8,1
			c4.3,1.9,8.3,4.3,12.5,6.5c8.2,4.2,18.9-2.2,18.9-11.4c0-9.8,0-19.5,0-29.3c0-7-3.1-13.4-4.7-20c-1.5-6.1-0.4-10.7,4.2-14.9
			c12.9-11.6,27.8-20,43.2-27.5c4.1-2,8.2,0.5,9.5,5.4c1.1,4.1,0.9,8.3,1.3,12.5c1,12.1,5.6,16.8,17,17.8c7.8,0.7,13.4-2.7,17-9.3
			c3.6-6.6,4.2-13.1-0.8-19.3c-0.9-0.3-1.8-0.8-2.5-1.5c-0.3-0.2-0.6-0.5-0.8-0.8l-0.4-0.4c-0.3-0.2-0.5-0.5-0.8-0.8l-0.4-0.4
			c-0.3-0.3-0.5-0.5-0.8-0.8c-0.5-0.5-1.2-1-1.7-1.6C342.4,224.8,342.2,224.5,342,224.1z"/>
		<path class="st0" d="M85.2,363.7l-0.4,0.1l-0.4-0.2c1-5.3,5.6-7.7,9.1-10.8c10.3-9.3,20.5-18.8,30.8-28.2
			c14.9-13.5,29.7-27.2,44.5-40.7c10-9.1,20.1-18.3,29.9-27.7c4.4-4.2,9.3-7.7,13.4-12.2c0.9-1,1.9-1.9,3.5-1.4h1
			c0.3,0.3,0.7,0.6,1.1,0.7l0.9,0.3c0.3,0.3,0.7,0.6,1.1,0.7l0.9,0.3c0.3,0.3,0.7,0.6,1.1,0.7l1,0.3c0.6,0.5,1.3,0.6,2,0.4
			c0.7,0,1.4,0.2,2.1,0.5c0.3,0.1,0.7,0.3,1,0.5c0.5,0.3,0.9,0.5,1.4,0.8c0.3,0.1,0.7,0.3,1,0.5l1.5,0.7c0.4,0.1,0.7,0.3,1,0.5
			c1.1,0.5,2.1,1,3.3,1.3c0.8,0.3,1.5,0.6,2.3,0.9c0.4,0.2,0.7,0.3,1.1,0.5c1,0.6,2.1,1.1,3.3,1.4c0.4,0.1,0.7,0.2,1.1,0.4
			c0.7,0.3,1.3,0.7,2,1c0.5,0.2,1,0.5,1.5,0.6c0.3,0.1,0.7,0.2,1,0.4c0.3,0.2,0.6,0.4,0.8,0.7c2.2,1.1,3.9,3.1,4.7,5.5
			c3.7,9.6,6.3,19.4,6,29.9c-0.3,8.1,0,16.2-0.1,24.2c0.1,4.9-3.7,9-8.7,9.1c-1.4,0-2.7-0.2-3.9-0.8c-3.7-1.5-7.3-3.4-10.7-5.6
			c-11.8-7.8-21.8,1.3-24.3,11c-2.6,10.2,4.6,21.6,14.8,24c2.8,0.6,5.7,0.3,8.3-1c4.1-1.9,8.1-4.1,12.4-5.6c6.6-2.4,12,1.4,12.1,8.2
			c0.1,9.6,0.2,19.2,0,28.8c-0.2,7-3.2,13.3-5.1,19.9c-0.9,3.1-2.8,1.4-4.4,0.9c-20-5.4-40.1-9.9-60.8-11.8
			c-5.9-0.6-11.8-1.1-17.6,0.1c-7.7,1.6-10.1,7.2-5.9,13.8c1.9,3,4.1,5.8,5.9,8.8c3.2,5.3,0.9,10.2-5.1,11.3
			c-9.1,1.7-18.1-2.2-21-9.2c-2.2-5.2-0.9-9.7,2.9-13.8c4.9-5.3,4.7-8.5-0.2-13.9c-5.3-5.9-12.3-9.3-19.2-12.6
			c-13.3-6.4-27.6-9.4-41.6-13.3C86.7,364.1,85.9,364.2,85.2,363.7z"/>
		<path class="st0" d="M460.9,341.3l-20.7,18.4c-2.3-6.2-3.2-12.4-4.6-18.5c-3.3-14.9-6.2-29.9-8.6-45c-0.3-1.8-0.4-3.7-0.4-5.5
			c-0.1-8.4,2.5-10.7,11-10.1c2.3,0.2,4.7,0.2,7,0.1c3.8-0.2,6.9-1.9,8.3-5.5c2.9-7.5,3.6-15.1,0.2-22.5c-4.7-10.1-16.1-11-22.5-1.9
			c-2.5,3.6-5.1,7.1-7.7,10.6c-1.3,1.8-2.4,2.5-4,0c-14.8-22.7-25.7-47.7-32.3-73.9c-0.7-2.8,0.7-3.7,2.7-4.4
			c6.6-2.5,13.2-4.9,19.8-7.4c4.9-1.8,9.6-4.1,14-6.9c9.8-6.2,9.8-18.4-1.4-22.7c-1.1-0.4-2.1-1-3.1-1.5l-0.5-0.2
			c-0.3-0.2-0.6-0.4-0.8-0.7l-0.2-0.5c-0.1-0.3-0.4-0.6-0.7-0.7c-8-5.5-10.9-14.4-7.5-23.3c1-2.7,6.7-2.8,9.5-0.1
			c6.3,5.9,10.9,13.3,13.3,21.6c4.5,15.6,10.5,17.5,23.1,7.2c3.4-2.7,6.7-5.7,9.7-8.8c2-2.1,3-1.5,4.6,0.4
			c13.7,15.7,24.2,33,27.7,53.9c0.5,3.5,2.2,6.7,4.8,9.1c5.8,5.2,5.2,12.9,6.8,19.6c1.9,8.3,2.9,16.9,4,25.4
			c0.9,6.5,0.2,13.2-2.1,19.3c-1.5,4.1-2.6,8.4-4.6,12.2c-7.6,14.9-10.8,31.6-9.2,48.2c0.7,7.4-1.5,14.7-6.1,20.5
			c-0.4-5.9,1.9-10.7,1.1-15.6s-3.7-9.2-5.7-14.3l-19.7,18.4C465.4,338.8,463.4,340.7,460.9,341.3z"/>
		<path class="st0" d="M61.1,415.3c5.7,1.7,9.3,6.3,13.5,10c1.6,1.5,3.2,3,4.7,4.6c2,2.2,4.7,2,7,1.3c2.7-0.8,2.4-3.4,2.2-5.6
			c-0.8-10.6-3.7-20.8-5.7-31.2c-1.8-9.2-3.7-18.4-5.7-28.1c7.4,0.6,14.1,2.6,20.8,4.4c13,3.5,25.8,7.5,37.6,14
			c3.9,2.1,7.5,4.5,10.2,8s3.1,6.7-0.1,10.4c-6.8,8.1-6.6,15.1,0.1,21.5c8.1,7.8,19.9,8.8,27,2.4c4.6-4.2,5-7.4,1.5-12.7
			c-1.7-2.5-3.5-4.9-5.1-7.5c-3.8-6.2-1.7-10,5.5-10.2c15.9-0.3,31.5,2.3,47,5.6c9.4,2,18.6,4.6,27.9,6.7c3.6,0.8,4,2.4,3.2,5.6
			c-1.5,6.7-2.7,13.5-4.2,20.2c-0.6,3-0.8,6-0.7,9c0.2,16.7,7.5,21.6,22.7,15.3c2.5-1,5.1-1.9,7.5-3c7.1-3.5,12.6,0.5,18.3,3.6
			c1.7,0.9,0.9,2.2,0.4,3.5c-2.2,4.9-6.1,7.4-11.5,7.8c-6.6,0.5-13.1-0.7-19.6-1.7c-13-1.8-18.8,3.4-17.8,16.6
			c0.4,5.9,2.6,11.3,5.3,17.1c-14.9,1.7-29.2,4.4-43.9,3.3c-6.9-0.5-13.5-3-19-7.1l-0.5-0.1c-0.3-0.1-0.6-0.3-0.9-0.6
			c-0.4-0.3-0.7-0.7-1.1-1.1c-0.4-0.4-0.6-0.8-0.8-1.3c-5.6-7.5-13.5-10.5-22.5-10.7c-2.6-0.1-5.2,0.2-6.3,3c-1,2.5-0.7,4.9,1.7,6.7
			c0.2,0.9,0,1.4-1,1c-20-6.1-36.5-17.5-50.2-33.1c-3.9-4.4-7.5-9-11.3-13.5c-0.6-0.4-1.3-0.5-1.9-0.9c-1.9-1.6-3.6-3.5-5-5.5
			c-2.2-2.7-4.6-5.4-8.4-5.7c-1-0.3-2-0.7-3-1c-0.4-0.1-0.8-0.3-1.1-0.5c-0.4-0.2-0.7-0.5-1-0.8l-0.5-0.4c-0.3-0.3-0.6-0.5-0.9-0.8
			l-0.4-0.4l-2.1-2.1c-0.4-0.4-0.8-0.9-1.2-1.3l-1.4-1.3c-0.5-0.4-0.9-0.9-1.4-1.3c-1-0.9-1.7-2-2-3.2
			C65.6,420.9,62.4,418.7,61.1,415.3L61.1,415.3z"/>
		<path class="st0" d="M396.1,444.3c-3.4,3.1-6.3,6.4-6.3,11.5c0,3,1.4,4.4,4.1,4.6c4.8,0.4,9.3-0.1,13.2-3.4c3.1-2.6,6.3-5,9.4-7.5
			c0.3-0.3,0.7-0.6,1.1-0.8c0.2-0.2,0.5-0.3,0.8-0.4c0.3-0.3,0.7-0.3,1,0c0,0,0.1,0.1,0.1,0.1c0,0.3-0.1,0.6-0.2,0.9
			c-0.1,0.4-0.4,0.8-0.7,1.1c-6.2,10.9-15.4,19.7-26.5,25.5c-24.4,13.1-50.4,22.6-77,34c0.7-2.8,2.7-4.1,0.9-5.7
			c-1.6-1.4-3.3-1.4-5.2-1.4c-15.7,0-31.3-0.1-47,0.1c-3.9,0.1-6.3-1.3-8-4.7c-3-6.2-4.6-12.6-3.7-19.5c0.5-3.6,2.2-5.8,6.4-5.3
			c3.5,0.5,7,0.6,10.1,2.7c2.2,1.4,4.8,1.9,7.3,1.4c7.3-1.2,14.6-2.5,20.8-7c6.9-4.9,6.7-11.3-0.5-15.6c-6.3-3.8-12.8-5.6-20-2
			c-3.8,1.8-7.6,3.3-11.6,4.7c-4.8,1.7-8.2,0.3-10.3-4.3c-2.7-5.9-2.9-12.1-1.9-18.3c1.2-7.1,3.1-14.1,4.5-21.2
			c0.5-2.8,1.4-3.4,4.3-2.9c19.5,3.7,39,4.2,58.6,0.2c7.4-1.5,14.8-3,21.4-7c7-4.2,8.2-8.8,4.3-16c-2.8-5.2-6.9-9.9-4.6-16.8
			c2.9-8.6,13.3-13.8,21.7-10.1c5.4,2.4,7.6,7.2,5.4,12.8c-1.5,3.7-3.5,7.3-5.3,10.8s-1.9,7.2,0.7,10.4s6,4,10,3.2
			c12.3-2.5,23.2-8.7,34.2-14.3c9-4.6,17.8-9.4,26.6-14.3c3.5-1.9,4.5-1.1,5,2.7c2,14.7,0.3,29.7-4.9,43.6
			c-3.2,8.5-8.1,15-17.8,16.6c-1.6,0.4-3.2,1-4.7,1.8c-0.5,0.9-1.3,1.6-2.2,2.1c-0.3,0.2-0.7,0.4-1,0.5c-0.5,0.2-1,0.5-1.5,0.7
			c-0.3,0.2-0.7,0.3-1,0.5l-1.5,0.8c-0.3,0.2-0.7,0.4-1.1,0.6c-0.8,0.4-1.5,0.8-2.2,1.3c-0.5,0.4-0.9,0.8-1.4,1.2
			c-0.6,0.6-1.2,1.1-1.8,1.6C397.4,444,396.8,444.2,396.1,444.3z"/>
		<path class="st1" d="M117.8,276.8c1.5,6.4,3,12.8-1.8,18.7c-5.4,6.5-13.3,6.5-18.4-0.2c-2.9-4-6-7.7-9.4-11.2
			c-2.9-3-5-2.4-7.4,0.5c-5.5,6.6-7.5,14.6-9.6,22.5c-3.4,12.5-4.5,25.5-3.2,38.4c0.3,3.5,0.2,7.1-0.2,10.6
			c-0.3,3.1-1.8,4.6-5.2,2.7c-12.2-7-23.5-15-32.4-26.1c-6.4-8-8.4-16.3-5-26.3c3.7-10.8,2.6-21.1-5.4-30.2
			c-2.2-2.5-3.6-2.2-5.8-0.5c-5.1,4-5.4,9.4-4.3,15.1c0.8,4.5,2.3,9,1.4,15.1c-5.5-9-10.3-17.1-10.8-26.4c-0.8-14.5-0.8-28.9,0-43.4
			c0.5-8.6,3.4-17.1,5.3-25.6c0.5-2.4,1.1-4.9,1.6-7.3c5.7-6,12.5-10.6,18.9-15.6c9.4-7.5,18.7-15.1,28.2-22.5c1.3-1,3.1-3.8,4.6,0
			c-1.7,2.9-3.4,5.7-5,8.7c-3.4,6.2-2.4,12.4,0.8,18.3c2.5,4.7,7.4,5.8,12,3c3-1.8,4.9-4.6,6.5-7.5c3.3-6.2,5.3-13.1,5.7-20.2
			c0.8-9.5,6.3-12.8,14.5-8.3c9.4,5.2,18.3,11.3,26.5,18.2c4.2,3.5,2.5,7.1,0.5,10.7c-0.2,1.5-0.8,3-1.7,4.3
			c-0.2,0.4-0.5,0.7-0.7,1.1c-0.5,0.7-1.1,1.3-1.7,1.9c-0.4,0.5-0.7,1-1,1.5c-0.2,0.3-0.4,0.7-0.6,1c-0.5,0.7-1,1.3-1.4,2
			s-0.9,1.5-1.4,2.2c-1,1.5-2,3.1-3,4.7c-10,14.5-18.9,29.4-20.9,47.4c-0.1,1.2-0.4,2.3-0.4,3.5c-0.1,9.4,5,14.1,14.3,12.7
			c5-0.8,9.7-0.7,13.8,2.6C116.9,273.9,118.3,274.9,117.8,276.8z"/>
		<path class="st0" d="M222.7,243.8c-0.2-0.2-0.6-0.4-0.9-0.4c-0.4-0.3-0.7-0.5-1.1-0.8c-0.2-0.2-0.5-0.3-0.8-0.3
			c-0.5-0.1-0.8-0.6-1.3-0.8l0.1-0.3c-1.5-2.8,1-4,2.3-5.3c10-9.9,20.7-19.2,31.1-28.8c9.8-9,19.6-17.9,29.4-26.8
			c15.8-14.4,31.3-29,47.2-43.2c5-4.5,9.8-9.2,14.9-13.6c1.5-1.4,2.8-3.6,5.5-2.2c9.6,10.1,15.8,22.4,21.9,34.7
			c3.4,6.9,6.1,14.2,9.6,21c1.9,3.8,0.4,4.2-2.8,4.9c-12.2,2.5-23.9,7-34.5,13.4c-4.6,2.8-9,6-12,10.6c-5.6,8.7-3,15.6,6.8,18.3
			c1.3,0.4,2.6,0.6,3.9,1l0.6,0.1c0.9,0.4,1.7,0.9,2.5,1.5c0.4,0.1,0.7,0.3,1,0.6l-0.1-0.1c0.4,0.4,0.7,0.8,1.1,1.1l-0.1-0.1
			c0.3,0.3,0.5,0.7,0.6,1.1c0.8,0.9,1.3,2.1,1.3,3.3c0.7,4.5,1.5,8.9,0.2,13.5c-2,7.3-7.4,10.7-15.8,10c-8.8-0.8-12.3-4.1-12.7-12.4
			c-0.2-3.5,0.1-7,0.2-10.6c0.5-13-8.7-14.6-16.9-12.7c-4.3,1-8,3.5-11.7,5.8c-12.7,8-24.2,17.6-35.4,27.5c-2.1,1.8-4,2.8-6.7,2.1
			c-0.6,0.3-1.3,0.3-1.9,0.2c-1.4-0.6-2.9-0.9-4.1-1.8c-0.4-0.1-0.8-0.2-1.2-0.3c-1.2-0.4-2.3-1.2-3.5-1.6c-0.4-0.1-0.8-0.2-1.2-0.3
			c-0.7-0.5-1.5-0.9-2.3-1.1c-1-0.3-1.8-0.9-2.8-1.3c-0.5-0.3-1.1-0.4-1.7-0.5c-0.5-0.2-1-0.5-1.4-0.9c-0.4-0.1-0.7-0.1-1-0.2
			c-0.4-0.4-0.8-0.7-1.3-0.9c-0.4,0-0.7-0.1-1-0.3c-0.4-0.3-0.8-0.7-1.2-1.1c-0.2-0.3-0.4-0.6-0.7-0.8c-0.2-0.3-0.6-0.4-0.9-0.3
			C223.5,244.2,223.1,243.9,222.7,243.8z"/>
		<path class="st0" d="M463,130.5c0.3,3.2-1,5.9-3.1,8.2c-3.4,3.9-7.5,7.2-12,9.8c-4.7,2.7-7.3,2.2-9.9-2.6c-2.2-4.5-4.2-9.1-6-13.8
			c-1.4-3.9-3.3-7.7-5.7-11.2c-2.2-3.3-5.4-5.6-9.2-6.7c-8.6-2.2-13.8,1.9-13.6,10.8s4.1,15.4,12.1,19.3c1.1-0.4,1.6,0.1,1.9,1.1
			c1.9,1.3,3.8,2.8,5.5,4.3c4.5,4.3,4.5,9.5-0.3,13.3c-9.4,7.3-20.3,11.6-31.4,15.6c-1.2,0.4-2.7,0.1-4,0.2c-2.2,0.2-3.3-0.6-4-2.8
			c-7.1-20.7-17.7-40-31.2-57.2c-0.4-0.2-0.7-0.5-0.9-0.9l-0.1-0.1c2.4-5.6,7.6-8.7,11.8-12.6c11.2-10.4,22.6-20.6,33.8-31
			c5.2-4.8,10.6-9.3,15.5-14.4c1.3-1.4,2.8-2.4,4.6-2.9c7.6,5.2,14.6,11.3,20.8,18.1c0.9,1,5.4,3.9-0.7,4.8c-1.5,0.2-0.8,1.9-0.4,3
			c1.3,4.4,3.9,8.1,6.4,11.9c5.6,8.3,11.4,16.5,16.3,25.3c1.1,0.5,1.8,1.5,2,2.6c0.2,0.9,0.6,1.7,1,2.5
			C463.5,126.9,462.1,128.9,463,130.5z"/>
		<path class="st1" d="M156.1,104.8c4.4,1.6,8.9,1.2,13.5,1.3c7.2,0,9.2,3,6,9.6c-4.2,8.9-10.5,16.4-16.5,24
			c-9.9,12.5-20.2,24.7-30.2,37.1c-2,2.5-3.1,1.3-4.8-0.1c-9.5-7.8-19.1-15.4-29.8-21.5c-9.6-5.6-15.4-3.4-18.2,7.6
			c-1.7,6.6-2.5,13.5-4,20.2c-0.9,4.1-2.8,7.6-7.2,9c-5.2,1.7-8.4-0.4-9-6c-0.7-6.5,1.3-12.3,5-17.5c3.7-5.3,7.6-10.7,11.4-16
			c4.3-6.7,11.3-10.4,17.3-15.2c17.5-14.2,35.1-28.2,52.8-42c1.8-1.4,3.5-4.1,6.3-1.5C148.9,99.1,152.2,102.1,156.1,104.8z"/>
		<path class="st1" d="M109.6,469.7c-6.2-2.8-11.1-7.5-16.1-11.9c-36.9-31.6-64.3-69.9-80.1-116c-4.3-12.2-7.2-24.9-8.6-37.7
			c0.3-0.5,0.6-0.5,0.9,0c0.7,0.9,1.4,1.9,2.1,2.8c1.3,1.7,2.3,4.8,4.3,4.4c2.6-0.5,2.8-3.9,3.4-6.3c0.8-3.5-0.4-7-1.1-10.4
			c-0.5-2.5-0.8-5-0.8-7.5c0-2.5-0.5-6,2.2-6.6c2.4-0.6,4.3,2.5,5.4,4.6c3.1,5.7,3.5,12.5,1.2,18.5c-5.5,13.7-0.8,24.6,8.1,34.6
			c9,10.2,19.2,18.8,32.1,23.7c1.3,0.5,2.6,1.3,3.8,1.2c6.3-0.2,7.8,3.5,8.6,8.9c2.9,17.4,6.2,34.7,9.3,52c0.1,0.9,0.1,1.9,0,2.8
			c-4.4-1.2-7.3-4.4-10.6-6.7c-3.9-2.6-7.6-5.5-11.4-8.3c-1.9-1.4-3.1-1-4.7,0.6c-1.7,1.7-0.8,2.9,0.2,4.3c2.4,3.3,5.2,6.2,8.3,8.7
			c1.2,0.3,2.2,0.9,3.1,1.8c0.3,0.2,0.6,0.5,1,0.7c0.5,0.3,0.9,0.7,1.3,1.2c0.4,0.5,0.8,0.8,1.2,1.3s0.9,0.8,1.3,1.2
			c0.7,0.7,1.5,1.3,2.4,1.8h-0.1c0.3,0.4,0.7,0.8,1.1,1.1l-0.1-0.1c0.3,0.4,0.7,0.8,1.1,1.1l-0.1-0.1c0.8,0.9,1.9,1,2.9,1.7
			c6.4,2.9,11.7,7.7,15.2,13.7l13.1,19L109.6,469.7z"/>
		<path class="st0" d="M412.9,435.5c13.2,1.4,19.4-7.4,23.9-17.4c6.1-13.7,8.6-28.2,5.7-43.2c-1.4-7.3,0.3-13,5.7-18.1
			c4.9-4.6,9.4-9.6,14-14.4c1.1-2.4,2.6-4.4,5.4-4.9l16.2-13.8c0.7,4.7,2.6,8.4,1.7,12.9c-1.1,5.5,0.5,11.3,4.3,15.4
			c2.4-1.2,3.1-3.8,4.8-5.6c0.9-0.2,1.5,0,1,1.1c-7.8,22.7-19.4,43.4-33.3,62.8c-11.3,16.2-24.6,31.1-39.4,44.1l-0.5-0.3
			c0.1-0.4,0.2-0.7,0.3-1.1c3.2-3.4,1.6-7.5,1.9-11.7c-4.6,0.9-8,3.8-11.7,5.8c-4.5,2.5-8.7,5.6-13.7,7.3c-1.4,0.5-2.9,1.4-4.2,0.2
			s-1.2-3.2-0.5-4.7c0.9-1.9,2-3.8,3.1-5.7l0.2-0.5c0.5-0.6,0.9-1.2,1.5-1.7c0.4-0.4,0.8-0.8,1.2-1.2c0.3-0.2,0.6-0.4,0.9-0.6
			c0.7-0.3,1.3-0.7,1.8-1.2c0.3-0.2,0.6-0.4,1-0.4c0.5-0.1,1-0.4,1.4-0.8c0.3-0.2,0.7-0.2,1.1-0.3c0.5-0.3,1-0.6,1.5-0.9
			c0.4-0.1,0.8-0.2,1.2-0.4C410.2,435.5,411.6,435.9,412.9,435.5z"/>
		<path class="st2" d="M264.2,35.6c-7.7,7.5-16.3,7.5-25.7,3.7c-5.1-2.1-10.4-3.5-15.7-5.2c-1.3-2.7,0.9-4.1,2.5-5.3
			c11.1-9,22.1-18.1,33.5-26.6c4.1-3.1,9-1.6,13.6-1.2c19.1,0.5,37.5,4.9,55.9,9.9c4.1,1,8.2,2.5,12,4.3c-2.2,0.3-4.5,0.7-6.7,1
			c-1.5,0.2-3.6,0.2-4,1.5c-0.5,1.8,1.5,2.9,2.9,3.7c4.1,2.3,8.3,4.4,12.5,6.5c3.1,1.4,5.8,3.4,8.1,5.8c1,1.1,2.4,2.2,1.7,3.9
			s-2.4,0.7-3.6,0.9c-10.3,1.5-19-3.2-25.3-10.1c-9.8-10.8-21.1-10.1-33.3-7.7c-5.8,1.3-11.3,3.5-16.2,6.7c-0.4,0.7-1,1.3-1.6,1.8
			l-1.9,1.4c-0.3,0.2-0.7,0.4-1,0.6c-0.8,0.5-1.6,1.1-2.4,1.7c-0.3,0.2-0.7,0.5-1,0.7c-1.1,0.6-1.9,1.6-3,2.2
			C265,35.9,264.5,35.8,264.2,35.6z"/>
		<path class="st2" d="M216.8,36.3c10.1,2.4,20,5.7,29.9,8.9c2.3,0.8,2.8,1.6,0.9,3.3c-15.8,14.6-31.2,29.7-49.3,41.6
			c-4.1,2.7-8.5,2.8-13,0.9c-1.5-0.7-2.6-2.2-2.8-3.8c-0.7-6.7-5.1-8.7-11-9.1c-0.7-0.1-1.3-0.2-1.9-0.3c-3.8-3.1,0.2-4.4,1.7-5.6
			c8.5-6.9,17.1-13.7,25.7-20.4C203.5,46.6,209.7,40.8,216.8,36.3z"/>
		<path class="st3" d="M161.3,142.5c5-7.1,10.1-14.2,15.1-21.4c1.5-2.1,2.7-4.3,3.6-6.6c2.8-7.3-1.3-12.8-9-12.5
			c-5,0.2-9.8,2.3-15,1.9c-3.7-0.5-5-3-5.3-6.3c-0.3-3,0.4-6.1,2.1-8.6c4.6-6.6,11.3-9.4,19-9.2c4.9,0.1,9.1,2.2,10.7,7.5
			c0.2,0.7,0.5,1.4,0.8,2c0.2,0.4,0.3,0.9,0.4,1.3c0,0.5,0,0.9,0.2,1.3c4.1,4.7,8.3,5.6,14.3,2.7c9.9-4.8,18.1-12,26.2-19.3
			c8.8-8,17.3-16.2,26-24.4c5.8-5.6,6.5-5.7,13.8-1.5c1.2,1.8-0.3,2.7-1.3,3.8c-6.9,7.1-14.4,13.6-21.7,20.2
			c-10.3,9.3-20.5,18.8-30.8,28.2c-14,12.9-28.4,25.6-42.1,38.8C166.5,142.2,164.4,144.3,161.3,142.5z"/>
		<path class="st4" d="M147,199.1c-2.3-1-4.3-2.5-6-4.4c-1.3-2.5,0.8-3.7,2.1-5c10.3-10.1,21.2-19.7,31.9-29.4
			c5.4-5,10.9-10,16.4-15c19.9-18.3,39.8-36.6,59.8-54.8c9.2-8.4,18.3-16.9,27.5-25.2c1.6-1.4,2.8-4.1,5.8-2.6c2,1,3.7,2.3,5.1,4
			c-0.5,2.3-2.4,3.6-4.1,5c-10.6,9.3-20.8,19-31.2,28.5c-14.8,13.4-29.4,27-44.2,40.4c-9,8.1-17.8,16.3-26.7,24.5
			c-10.5,9.9-21.5,19.3-31.8,29.4C150,196,148.8,197.8,147,199.1z"/>
		<path class="st5" d="M147,199.1c2.5-6.2,8-9.8,12.7-13.9c5.3-4.6,10.3-9.6,15.6-14.2c11-9.5,21.4-19.9,32.1-29.8
			c20.7-19.1,41.3-38.3,62.3-57c6.6-5.9,12.5-12.6,20-17.6c1.9,1,3.6,2.4,5,4.1c-0.5,2.3-2.4,3.6-4,5c-10.7,9.2-20.8,19-31.2,28.5
			c-15.2,13.7-30.2,27.7-45.3,41.5c-9.7,8.8-19.4,17.6-28.9,26.6c-10.2,9.5-20.8,18.5-30.6,28.5c-0.7,0.7-1.6,1.2-2.6,1.4
			C150,201.7,148.3,200.6,147,199.1z"/>
		<path class="st6" d="M213.7,238.2l-4-2.8c-0.3-0.4-0.7-0.7-1.2-0.9l0,0c-0.6-1.4,0.3-2.3,1.2-3c12.9-11.5,25.5-23.4,38.3-35
			c9.5-8.6,18.8-17.3,28.2-25.9c15.5-14.1,30.7-28.6,46.4-42.5c4.6-4.1,8.8-8.8,13.8-12.6c1.5-1.1,2.8-2.6,4.9-1.5
			c1.6,0.5,3,1.6,3.9,3.1c-4.2,5.9-10.1,10.2-15.3,15.1c-10,9.2-20,18.4-30.1,27.6c-15.5,14.1-30.9,28.4-46.4,42.6
			c-9.7,8.8-19.4,17.6-28.9,26.7C220.9,232.2,217.4,235.3,213.7,238.2z"/>
		<path class="st7" d="M151.9,202.2c7.6-9.3,17-16.7,25.7-24.7c5.2-4.7,10.3-9.6,15.6-14.2c14.8-13.1,29-27,43.6-40.2
			c12.4-11.3,24.7-22.7,37.1-33.9c6.8-6.2,13-13.1,20.7-18.3c1.5,0.7,2.8,1.8,3.8,3.1c-0.2,2-1.8,3.2-3.1,4.4
			c-14.2,12.8-28.1,25.9-42.3,38.7c-9.1,8.2-18,16.6-27.1,24.8c-15.8,14.5-31.6,29.1-47.4,43.6c-5.8,5.3-11.8,10.4-17.4,16.1
			c-1.4,1.4-2.6,3.1-4.8,3.4L153,203C152.7,202.7,152.4,202.2,151.9,202.2L151.9,202.2z"/>
		<path class="st8" d="M213.7,238.2c3.9-5.9,9.6-10.2,14.8-14.7s10.3-9.5,15.6-14.2c15.2-13.4,29.8-27.6,44.7-41.3
			c16.4-15.1,32.8-30.2,49.3-45.2c2.2-2,4.7-3.7,7.1-5.6c1.6,1,3,2.4,4,4.1c-4.8,1.4-7.4,5.6-10.9,8.6
			c-10.3,8.8-19.9,18.4-29.9,27.6c-18.5,16.9-37.1,33.8-55.6,50.7c-10.7,9.8-21.3,19.9-31.9,29.8c-1,0.9-2,1.8-2,3.3L213.7,238.2z"
			/>
		<path class="st9" d="M109.6,304.3c7.5-2.5,10.5-9,13.4-15.5c0.3-1.3,1-2.5,2-3.4c11.5-9.8,22.2-20.3,33.5-30.3
			c10.5-9.4,20.4-19.4,31.2-28.3c1.3-1.1,2.5-3,4.7-1.6l3.2,5c-13.6,12.2-27,24.7-40.5,37c-9.6,8.7-19,17.6-28.6,26.2
			c-17.2,15.5-33.9,31.6-51.1,47c-1.4,1.2-2.8,2.6-4.9,1.9l-0.3-3.7c-1.1-3.4,0-5.8,2.6-8.3c9.5-8.9,19.1-17.6,28.8-26.3l2.1,0.3
			C106.9,304.7,108.3,304.7,109.6,304.3z"/>
		<path class="st10" d="M284.4,62.6c-5.2,1.7-8.1,6.4-11.9,9.7c-10.7,9.2-20.6,19.2-31,28.7c-18.2,16.7-36.5,33.1-54.7,49.7
			c-8.8,8-17.5,16.1-26.2,24.2c-5.7,5.3-11.3,10.5-16.9,15.9c-1.2,1.1-2.7,2.1-2.8,4c-1.7-0.8-3.1-2.1-4.1-3.6
			c-0.7-2.1,0.9-3.1,2.1-4.1c16.1-14.6,32-29.3,47.9-44c20.3-18.7,40.6-37.3,61-55.8c10.3-9.3,20-19.5,31.2-27.8
			c0.5-0.2,1,0,1.3,0.3C282,60.2,283.3,61.3,284.4,62.6z"/>
		<path class="st9" d="M299.8,128.2l5.8,1.1c1.4,2.3-0.5,3.4-1.8,4.6c-15.1,13.9-30.1,27.8-45.3,41.6
			c-18.4,16.7-36.4,33.8-55.1,50.2c-0.8,0.9-1.8,1.5-2.9,1.9c-3.2-4.3-2.8-8.4,1.5-11.5c2.3-1.6,4.8-3,7.4-4.2
			c4.7-2.3,8.2-5.6,9.6-10.9c0.5-0.8,0.2-1.9,0.9-2.6c12.8-10.8,24.9-22.5,37.3-33.9c12.6-11.6,25.4-22.9,37.8-34.8
			C296.3,128.5,297.7,127.2,299.8,128.2z"/>
		<path class="st8" d="M215.6,242.5c-8.5,7.6-17,15.2-25.4,22.9c-18.9,17.4-37.6,34.9-56.5,52.4c-11.8,10.9-23.6,21.9-35.7,32.6
			c-4.8,4.2-9.7,8.3-13.8,13.2l-3.1-1c-0.6-0.5-1.5-0.3-2-0.9l0,0c0.6-4.9,4.8-7,7.9-9.8c11.2-10.1,22.1-20.5,33.4-30.6
			c14.5-13,28.7-26.3,43.1-39.4c9.3-8.4,18.6-16.9,27.8-25.6c5.1-4.9,10.8-9.1,15.5-14.3c1.2-1.3,2.7-2.7,4.8-1.6
			C213.3,240.7,214.6,241.4,215.6,242.5z"/>
		<path class="st0" d="M502.6,196.9c-5-23-16.3-42.6-32-59.8c-2.5-2.7-4.7-5.6-6.6-8.8c-1.5-0.8-1.5-2.6-2.5-3.7
			c-0.2-0.4-0.4-0.8-0.4-1.2c-0.4-1.4-0.7-2.9-0.9-4.4c-1.7-7.3-6.5-12.8-10.9-18.5c-2.8-3.6-5.6-7.2-7.1-11.5
			c-0.8-2.3-1.6-4.8,0.1-7.5c16.2,16.1,28.8,34.6,39.1,54.8c9.1,17.8,16,36.5,22.8,55.3c0.6,1.8,1.1,3.5,0.3,5.4
			c-0.3,0.5-1,0.6-1.5,0.3C502.8,197.2,502.7,197.1,502.6,196.9z"/>
		<path class="st11" d="M161.3,142.5c2.2,0,4.3-0.9,5.8-2.5c10.1-9.5,20.2-19,30.5-28.4c18.3-16.7,36.7-33.2,54.9-50
			c4.1-3.8,8.4-7.5,11.7-12.2c2.2,0.6,4.2,1.7,5.9,3.2c-6,7.1-13.3,12.7-20.1,19c-10.2,9.5-20.5,18.9-30.8,28.3
			c-15.3,13.9-30.4,28-45.7,41.8c-9.6,8.6-18.6,17.9-28.5,26.3c-1.4,1.2-2.7,3.3-5.1,1.7C147,160.6,154.2,151.5,161.3,142.5z"/>
		<path class="st12" d="M341.2,114.1c-4,0.9-6.4,4.2-9.2,6.7c-11,9.8-21.5,20.2-32.4,30.2c-17.7,16.2-35.5,32.1-53.2,48.3
			c-10,9.2-20,18.4-29.8,27.8c-2.6,2.6-6.2,4.1-8.1,7.4l-0.9-0.6c-0.4-0.1-0.6-0.3-0.8-0.6l-0.1-0.1c-0.4-0.3-0.7-0.6-1.1-0.9l0,0
			c-0.6-2.5,1.4-3.6,2.9-4.9c11.3-10,22.2-20.4,33.4-30.6c18.5-16.8,36.8-33.8,55.3-50.6c6.9-6.3,14.3-12.1,20.4-19.4
			c2.7-2.3,4.6-5.4,5.4-8.8c2.2-9,6.5-10.2,15.4-6.1C339.4,112.7,340.3,113.3,341.2,114.1z"/>
		<path class="st13" d="M200.4,227.6c5.4-5.2,10.7-10.6,16.2-15.7c5.3-4.9,10.9-9.4,16.1-14.3c14.5-13.4,28.9-27,43.5-40.4
			c9.1-8.4,18.5-16.5,27.7-24.8c0.9-0.7,1.5-1.8,1.6-3l8-0.8c0.7,3.6-2.1,5.3-4.2,6.9c-6,4.4-11,9.9-16.4,14.8
			c-14.9,13.8-29.9,27.5-44.8,41.2c-13.4,12.4-26.6,25-40.6,36.8c-1.2,1-2,2.2-3.1,3.2C202.8,230.7,201.3,229.3,200.4,227.6z"/>
		<path class="st0" d="M209.7,510.1c11.4,0.9,22.9-0.1,34-2.8c14-3.5,27.9-1.5,41.8-1.3c7.3,0.1,14.6,0,22.8,0
			c-11,11.7-70.4,13.3-101.7,5C207.1,508.7,208.5,509.8,209.7,510.1z"/>
		<path class="st14" d="M214.5,191.9l0.3,1.8c0.4,0.9,0.5,1.9,0.4,2.9c-5,7-12.1,12-18.3,17.9c-9.5,8.9-19.3,17.6-28.9,26.5
			c-13.7,12.6-27.6,25-41.1,37.8c-1.4,1.3-2.9,3-5.2,2.1l-2-3.9c-0.8-2.3,1.1-3.4,2.3-4.6c11.1-10.8,22.7-20.9,34.1-31.4
			c9.6-8.9,19.4-17.7,28.9-26.6c8-7.4,16-14.9,24.2-22.1C210.8,190.9,212.5,188.7,214.5,191.9z"/>
		<path class="st15" d="M121.6,280.9c6.3-2.9,10.1-8.6,15.2-12.9c10.6-9,20.3-18.9,30.6-28.2c15.6-14.3,31.4-28.5,47.1-42.7
			c0.8,0.7,0.6,1.5,0.2,2.3c0.1,4-2.3,6.5-5.2,8.6c-2.2,1.5-4.6,2.8-7,3.9c-5.7,2.7-9,6.8-8.3,13.4c-3.4,0.9-5.6,3.6-8,5.8
			c-10.9,9.9-21.5,20.2-32.4,30.1c-10.2,9.4-20.6,18.5-31,27.7C123.5,286,122.1,283.5,121.6,280.9z"/>
		<path class="st14" d="M383.7,34.2c1.9,0.6,3.6,1.6,5,3.1c-11.8,12.3-25,23.3-37.4,35c-6.6,6.2-13.2,12.4-20,18.4
			c-11.7,10.3-22.5,21.5-34.8,31.2c-2.9-1.6-4.8-4.4-5.3-7.6c3.9-5.5,9.5-9.3,14.2-14.1c2-2,5.5,0,8.3-1c2.8-1,4.9-3.4,5.4-6.3
			c1.1-4.3,4.9-6.3,7.8-8.9c10.6-9.4,20.8-19.1,31.3-28.6c7.2-6.5,14.2-13.4,21.7-19.6C380.9,34.9,381.8,33.5,383.7,34.2z"/>
		<path class="st16" d="M279.3,59.6c-9.3,8.7-18.4,17.6-28,25.9c-4.9,4.3-9.5,8.9-14.5,13.2c-10.7,9.2-20.6,19.1-31,28.7
			c-21,19.4-42.1,38.8-63.2,58.2c-2,1.8-4.6,2.8-5.8,5.4c-1.3-0.7-2.4-1.7-3.1-3c0.5-2.3,2.3-3.6,4-5.1c11-9.6,21.6-19.7,32.3-29.5
			c14.7-13.4,29.4-27,44.2-40.4c9.2-8.3,18.4-16.7,27.4-25.2c10-9.4,20.5-18.4,30.3-28c1.4-1.4,2.7-3.7,5.5-2.4l0.9,0.5
			c0.3,0.1,0.6,0.3,0.8,0.7l0.1,0.1c0.3,0.2,0.4,0.4,0.3,0.6S279.4,59.6,279.3,59.6z"/>
		<path class="st15" d="M296.5,121.9c4-5.8,9.7-10.1,14.9-14.6s10.3-9.5,15.6-14.2c15.2-13.4,29.6-27.6,44.7-41.2
			c4.6-4.2,9.2-8.3,13.6-12.7c0.9-1,2.1-1.7,3.5-1.8c1.9,0.6,3.5,1.7,4.8,3.1c-6.9,8-15.2,14.7-23,21.8c-9.7,8.8-19.3,17.7-29,26.5
			c-13,11.8-25.9,23.9-39,35.6c-1.5,0.1-2.9-0.4-4-1.3c-0.4-0.2-0.8-0.5-1.1-0.7C297,122.4,296.6,122.2,296.5,121.9z"/>
		<path class="st17" d="M214.5,191.9c-1.5-1.1-2.6-0.6-3.9,0.6c-6.8,6.2-13.7,12.3-20.5,18.5c-14.8,13.7-29.4,27.5-44.2,41.1
			c-8.9,8.1-18.5,15.5-26.2,24.8c-0.3-0.1-0.5-0.2-0.8-0.2c-0.7-0.8-1.4-1.7-1.9-2.6c-0.2-0.4-0.5-0.8-0.7-1.2l-0.2-0.7
			c0-0.5,0-0.9,0.2-1.4c7.7-8.2,16.3-15.5,24.5-23.1c10.7-9.9,21.7-19.6,32.1-29.7c1-0.6,2.3,0,3.3-0.7c4.3-2.7,8.5-5.6,9.1-11.2
			c6.5-7.6,14.6-13.5,21.6-20.6c0.9-0.9,2.1-1.7,3.5-0.6l0.1,0.1c0.3,0.2,0.6,0.5,0.8,0.8C213.1,187.5,214.2,189.6,214.5,191.9z"/>
		<path class="st18" d="M299.8,128.2c-1.3,0.1-2.6,0.8-3.5,1.8c-10.2,9.6-20.4,19.2-30.8,28.7c-14.3,13.1-28.7,26-43,39
			c-0.8,0.6-1.7,1-2.6,1.3c-1.3-4.4-1-8,2.8-11.5c20-18.4,39.9-36.8,60-54.9c2.1-1.9,4-4,6.1-6c1.4-1.3,2.8-2.6,4.9-1.5L299.8,128.2
			z"/>
		<path class="st19" d="M139.8,169.6c4.6-1.5,7.6-5.2,11-8.3c19.5-17.9,38.6-36.1,58.2-53.9c11.8-10.8,23.8-21.5,35.5-32.6
			c7.7-7.2,15.5-14.2,23.3-21.3c0.7-0.4,1.5-0.7,2.2-0.9h0.1c0.4,0.3,0.8,0.6,1.3,0.8l1.7,1.2c-5.7,6.7-12.7,12-19.1,17.9
			c-9.9,9.1-19.8,18.2-29.8,27.2c-15.7,14.2-31.2,28.6-46.8,42.9c-9.9,9.1-19.8,18.2-29.7,27.3c-5.5,5.1-10.8,10.6-17,14.9
			c-2-1.1-1.7-2.5-0.4-4c2.8-3.4,5.6-6.8,8.4-10.2C139.3,170.4,139.6,170,139.8,169.6L139.8,169.6z"/>
		<path class="st20" d="M205.6,177.6l-10,0.2c-0.6,0.5-1.4,0.5-2,0.1c-1.6-2.7,0.6-4.1,2.1-5.4c14.1-12.4,27.7-25.4,41.6-38
			c9.8-8.9,19.6-17.8,29.2-26.9c9.4-8.8,19.1-17.3,28.5-26.2c2-1.9,4-4.9,7.7-3.7h-0.1c0.3,0.5,0.8,0.9,1.3,1l0.8,0.8
			c0.7,3.2-2,4.4-3.8,5.9c-15.6,14-31,28.4-46.4,42.5c-16,14.6-31.9,29.3-47.8,44c-1,0.9-3.7,1.6-2,4.1
			C205.3,176.3,205.6,177,205.6,177.6z"/>
		<path class="st21" d="M72.4,342.4c5.3-2.5,8.8-7.2,13-11c8.3-7.4,16.7-14.6,24.5-22.4c14.5-14.4,30.3-27.3,45-41.6
			c11.8-11.5,24.1-22.3,36.3-33.4c1.8-1.7,3.8-3.3,6.4-3.9l0,0c0.3,0.4,0.7,0.8,1.1,1l1,1c-0.8,2.6-2.9,4.1-4.8,5.7
			c-10.2,8.7-19.9,18.1-29.9,27.1c-15.8,14.3-31.5,28.8-47.2,43.3c-9.8,9-19.7,17.8-29.2,27c-3.5,3.4-7.5,6.3-11,9.7
			c-1.1,1.1-2.6,2.3-4.5,1.4C72.4,345.2,72.2,343.8,72.4,342.4z"/>
		<path class="st22" d="M74.4,355.6l-0.2-2c-0.2-0.2-0.3-0.5-0.3-0.9c0-0.3,0.1-0.5,0.2-0.5c21.1-18.7,41.7-38,62.5-57.1
			c16.5-15.1,33-30.2,49.4-45.3c4.1-3.8,8.2-7.4,12.2-11.3c1.8-1.8,3.9-3.4,6.7-2.3l1.7,1.1c0,2.1-1.6,3.2-2.9,4.4
			c-10.5,9.9-21.1,19.7-31.8,29.3c-14.3,13-28.4,26.1-42.7,39c-9.7,8.8-19.4,17.6-28.9,26.6c-5.7,5.4-11.8,10.5-17.4,16.1
			c-1.9,1.9-4,4.2-7.2,4.3C75,357,74.7,356.3,74.4,355.6z"/>
		<path class="st23" d="M48.2,125.3l1.9-6.1c8-7.8,17.2-14,25.8-21c30.4-24.4,60.8-48.8,91.5-72.8c0.6-0.4,1.2-0.7,1.9-1l7.1-1.2
			c0.9,3-1.5,4.2-3.2,5.6c-12,10-24.3,19.6-36.6,29.1c-18.6,14.3-36.6,29.5-54.9,44.2c-9.3,7.5-19,14.5-28.4,21.8
			C51.8,125,50.3,126.6,48.2,125.3z"/>
		<path class="st24" d="M205.7,32.3c1.1-0.2,2.2,0.2,2.9,1l-0.4,0.6c-11.1,7.3-21,16.1-31.3,24.4c-33.8,27-67.9,53.8-101.5,81
			c-1.5,1.2-2.9,2.9-5.3,2.2l-1.8-1.3c-0.3-0.4-0.5-0.8-0.5-1.3c1.3-3.6,4.8-5.1,7.4-7.2c40.9-32.5,81.7-65.2,122.4-97.7
			c1.4-1.2,3-2.2,4.7-2.9c0.4-0.2,1-0.2,1.3,0.2l1.1,0.2C205,31.8,205.3,32.1,205.7,32.3z"/>
		<path class="st25" d="M277.4,57.6c-2.3,0.4-3.7,2.3-5.2,3.7c-14.7,13.5-29.2,27.2-43.8,40.7c-16.3,15.1-32.7,30.2-49.2,45.2
			c-12.1,11.1-24.2,22.2-36.3,33.2c-3,2.7-6.1,5.2-9.2,7.8h0c-0.2-0.5-0.5-0.9-1-1.1v0.1c-1.2-2.2,0.4-3.5,1.7-4.7
			c11.1-10.4,22.3-20.8,33.7-30.9c4.5-4,8.9-8.2,13.3-12.3c10.5-9.9,21.2-19.5,31.8-29.4c16.5-15.4,33.4-30.4,50-45.9
			c3.1-2.9,6.2-6.1,9.9-8.5c0.5-0.2,1-0.1,1.4,0.2C275.7,55.8,276.8,56.5,277.4,57.6z"/>
		<path class="st13" d="M399.5,44.5c2,0.9,3.9,2.2,5.4,3.9c-0.1,1.7-1,3.3-2.4,4.3c-13.4,11.7-26.2,24-39.5,36
			c-7.5,6.7-15,13.4-22.1,20.6l-7.1-3.1c-0.8-3.1,1.5-4.6,3.3-6.2c11.1-9.9,22-20.1,33-30.2c8.6-7.9,17.5-15.6,25.9-23.8
			C396.9,45,397.9,44,399.5,44.5z"/>
		<path class="st14" d="M293.7,125.2c-1.7,0-2.7,1.1-3.8,2.1c-10.1,9.5-20.2,19-30.5,28.4c-12,11.1-24,22.3-36.3,33.1
			c-3.5,3.1-3.6,6.4-3.2,10.2l-1,2c0.7-5.1-0.1-10.4-2.4-15c7.4-8.4,16.2-15.6,24.4-23.2c10.2-9.4,20.6-18.8,30.8-28.3
			c4.4-4.1,9.3-7.8,13.4-12.2c1.1-1.2,2.5-2.4,4.4-1.3l-0.1-0.1c0.2,0.5,0.6,0.9,1,1.2L293.7,125.2z"/>
		<path class="st26" d="M286.2,109.2l1,7c-9,8.5-18.1,17-27.2,25.3c-10.1,9.1-20.1,18.2-30,27.5c-4.3,4-9,7.5-13.1,11.8
			c-0.9,1-2,1.9-3.5,1.2c-1.1-0.4-2.1-1.1-2.7-2.1c-2.4-1.8-0.8-3.2,0.6-4.4c17.1-15.4,33.8-31.1,50.9-46.6
			c6-5.4,12.1-10.7,17.8-16.4C281.6,110.7,283.2,108.5,286.2,109.2z"/>
		<path class="st6" d="M211.8,240.4c-1.2,0.1-2.3,0.6-3.1,1.5c-14,13-28,26-42,39c-16.7,15.4-33.5,30.9-50.3,46.2
			c-11.2,10.3-22.6,20.5-33.8,30.8c-1.2,1.2-2.3,2.5-3.3,3.8l-1-0.3c-0.4-0.2-0.8-0.5-1.2-0.7h-0.4l-0.3-0.3
			c-1.1-1.7,0.3-2.3,1.2-3.2c17.8-16.3,35.7-32.6,53.5-49c18.1-16.7,36.5-33.2,54.5-50.1c6.9-6.4,13.7-12.8,20.8-19
			c0.7-0.6,1.3-1.1,2.2-0.7C209.8,238.7,211,239.4,211.8,240.4z"/>
		<path class="st17" d="M213.3,182c4-3.5,8.2-6.8,12.1-10.4c14.2-13.1,28.1-26.7,42.8-39.4c6.2-5.4,10.9-12.8,19-16l2.4,4.9
			c-5.2,1.7-8.1,6.4-12,9.7c-10.5,8.9-20.2,18.6-30.3,27.9c-9,8.3-18,16.6-27,24.9c-1.2,0.9-2.5,1.7-3.9,2.3L213.3,182z"/>
		<path class="st27" d="M416.8,57.2c-9,8.5-17.7,17.2-27,25.3c-5,4.4-9.6,9.2-14.8,13.5c-8.3,6.9-16,14.7-23.9,22.1l-3.2-3.2
			c-0.4-0.1-0.6-0.4-0.8-0.7l-0.1-0.1c2.2-5.1,6.8-8,10.7-11.5c11.2-10.2,22.2-20.6,33.5-30.6c6.9-6.1,13-13.1,20.6-18.5l0.9,0.6
			c0.4,0,0.7,0.3,0.8,0.6L416.8,57.2z"/>
		<path class="st20" d="M157.5,211c1.8,0.7,3.5,1.7,4.9,3.1c-4.8,6.7-11.6,11.4-17.5,17c-10.5,10-21.5,19.6-32.1,29.6
			c-1.7,1.6-2.1,3.7-3.4,5.5c-2,1-3.9-0.1-5.8-0.1c-0.7,0-1.4-0.1-2-0.1c-1.3-0.2-2.9-0.2-3.4-1.7c-0.6-1.7,0.7-2.8,1.8-3.9
			c7.7-7.1,15.2-14.2,23-21.2c9.7-8.8,19-18,29.1-26.4C153.7,211.4,155.2,210,157.5,211z"/>
		<path class="st28" d="M148,94c-1.3-1.2-2.3,0-3,0.6c-17,13.5-34,27.1-51,40.7c-7.2,5.8-14.4,11.4-21.6,17.2
			c0.5-2.3,1.2-4.5,0.8-6.9c0.4-2,1.9-3.1,3.3-4.3c23.6-18.6,47-37.3,70.4-56.1c1.5-1.2,3-2.8,5.1-3c0.5,0.1,0.9,0.3,1.3,0.6
			c0.1,0.2,0.1,0.5,0.2,0.7s-0.1,0.5-0.1,0.7c-0.1,0.5-0.3,0.9-0.5,1.4C150.8,88.2,151.7,92.5,148,94z"/>
		<path class="st29" d="M302.7,77.7c-3,0.6-5,2.8-7,4.6c-10.4,9.5-20.5,19.2-30.9,28.7c-18.2,16.6-36.5,33.1-54.6,49.7
			c-4.7,4.3-9,9.1-14,13c-1.3,1-2.7,2.1-2.6,4.1c-0.1,0.2-0.1,0.3-0.2,0.5c-0.3,0.2-0.6,0.4-0.8,0.7l0.1-0.1
			c-0.4,0.2-0.8,0.4-1.1,0.7c-0.2,0.3-0.5,0.4-0.8,0.3c-0.5,0.2-0.9,0.5-1.3,0.9h-0.1c-0.2,0.3-0.5,0.6-0.9,0.7l-1.9,1.4
			c-0.6,0.2-1,0.7-1.1,1.3l-1.3,1.8c-0.2,0.4-0.5,0.7-0.8,1l0,0c-0.4,0.4-0.6,1.1-1,1.5s-0.6,0.6-0.8,1c-0.3,0.3-0.6,0.6-1,0.8
			c-7,5.1-12.4,12-19.4,17l-1-0.4l-1.2-0.7c-0.3,0.1-0.6,0-0.8-0.3c0.5-4.1,4.1-6,6.8-8.3c10.1-8.8,19.8-18.1,29.8-27.1
			c15.8-14.3,31.5-28.7,47.1-43.2c9.5-8.8,19.1-17.4,28.5-26.3c8.7-8.2,17.7-15.9,26.3-24.2c1.1-1,2.2-2.2,3.9-1
			C301.5,76.1,302.3,76.8,302.7,77.7z"/>
		<path class="st30" d="M302.5,124.3c0.1-2.5,2.1-3.7,3.7-5.1c10.2-9.3,20.6-18.5,30.8-27.9c18-16.5,35.9-33.1,53.8-49.7
			c0.8-0.5,1.7-0.9,2.7-1.2l0,0c0.3,0.4,0.8,0.8,1.3,0.9c0.7,0,1.4,0.4,1.7,1.1c-9.8,9.6-20.2,18.6-30.2,28
			c-11.1,10.4-22.6,20.5-33.7,31c-1.8,1.8-3.7,3.4-5.8,4.7h0.1c-0.6,0.5-1.5,0.3-2.1,1l0,0c-0.3,0.3-0.7,0.6-1.1,0.9l-0.1,0.1
			c-0.2,0.4-0.5,0.7-0.9,0.9l-0.1,0.1c-0.3,0.4-0.6,0.7-0.9,1.1l0,0c-0.6,0.5-0.4,1.5-1,2l-0.3,1.1c-0.2,0.4-0.5,0.8-0.6,1.3
			c0.1,0.2,0.1,0.6-0.2,0.7c0,0,0,0,0,0c-0.6,0.6-0.4,1.5-0.9,2.1c-2.3,6.5-5.4,8.2-13.2,7.7C304.6,124.5,303.4,125.1,302.5,124.3
			L302.5,124.3z"/>
		<path class="st12" d="M205,236.2c-2,0.3-3.9,1.2-5.4,2.6c-9.6,8.9-19.1,17.8-28.7,26.7C152,282.8,133,300,114.1,317.3
			c-10.4,9.5-20.6,19.2-30.9,28.8c-2.7,2.5-5.3,5-8.8,6.5c-1.6-2-0.3-3.3,1-4.7c11.4-11,23.2-21.5,34.8-32.1
			c9.8-9,19.6-17.9,29.4-26.9c15.5-14.1,30.8-28.5,46.4-42.5c4.9-4.4,9.4-9.1,14.5-13.2l1,0.6c0.4,0.1,0.7,0.4,0.8,0.7l0.1,0.1
			c0.4,0.3,0.8,0.6,1.1,0.9L205,236.2z"/>
		<path class="st31" d="M109.6,265.6c-1.3-1.8-0.5-3,0.9-4.3c11.5-10.5,23-20.9,34.4-31.5c5.7-5.4,11.2-11,17.5-15.7l6.2,3
			c-4.1,6.4-10.6,10.6-16,15.7c-11.6,10.9-23.5,21.4-35,32.3c-1.2,1.1-2.3,2.5-3.9,3.1c-1.7,0.4-3.5-0.6-3.9-2.3
			C109.7,265.9,109.6,265.7,109.6,265.6z"/>
		<path class="st17" d="M383.7,34.2c-7.4,5-13.4,11.6-20,17.5c-15.2,13.4-29.8,27.4-44.7,41.2l-0.3-5.9c-1.2-2.7,0.8-4,2.4-5.4
			c11.2-10.1,22.2-20.4,33.4-30.6c6.8-6.2,13.4-12.7,20.5-18.5c1-0.8,2-1.9,3.5-1.3C380.4,31.8,382.2,32.8,383.7,34.2z"/>
		<path class="st5" d="M142.9,200c1.9,1,3.6,2.4,5.1,4c-0.8,2.9-3.3,4.6-5.4,6.5c-15.6,14-30.9,28.5-46.6,42.4
			c-2.6,2.3-2.3,6.2-5.4,7.8c-3.2-5.7-0.2-10.9,1.4-16.2c15.9-13.7,31.1-28.3,46.7-42.4C139.9,201,140.9,199.4,142.9,200z"/>
		<path class="st32" d="M200.6,233.1c-0.1,3.1-2.9,3.8-4.7,5.4c-9.3,8.6-18.7,17.3-28,25.9c-18.2,16.8-36.4,33.7-54.6,50.5
			c-12.6,11.6-25.2,23.1-37.9,34.5c-0.9,0.7-1.3,2-1,3.1l-0.2,1c-1.2-2.2-1.1-4.7-1.1-7.1c5-2,8.2-6.3,12.1-9.6
			c10.7-9.4,20.8-19.4,31.3-29c17.9-16.4,36-32.5,53.8-48.9c9.7-9,19.2-18.1,29.3-26.6L200.6,233.1z"/>
		<path class="st33" d="M378.5,31.3c-7.5,6.6-15.1,13.2-22.5,19.9c-11.6,10.5-23.2,21.2-34.8,31.8c-1.2,1.1-2.6,2.2-2.6,4.1
			l-2.9-5.3c-0.4-2.7,1.7-3.9,3.2-5.2c11.4-10,22.5-20.4,33.6-30.7c1.3-1.3,2.8-2.4,4.5-3.1c1-0.4,1.8-1.2,2.2-2.2
			c0.8-6,5.5-11.6,11-13.1C373.3,27.9,376.1,29.3,378.5,31.3z"/>
		<path class="st34" d="M196.4,12c8.8-4.8,12.3-5.3,20-2.2c-5,3.2-10.8,4-15.7,6.6c-4.1,2.1-9.6,2.3-11.2,7.9
			c-0.3,0.3-0.7,0.5-1.1,0.6c-1.2,0.1-2.4,0.7-3.2,1.6c-0.3,0.3-0.7,0.5-1,0.8c-1.5,0.9-2.8,2-4,3.2c-0.3,0.3-0.6,0.5-1,0.8
			c-1.4,0.9-2.7,1.9-3.9,3.1c-0.3,0.3-0.7,0.5-1,0.7c-1.1,0.6-2,1.3-2.9,2.1c-0.3,0.3-0.6,0.5-0.9,0.8c-0.3,0.3-0.6,0.5-0.9,0.8
			c-0.3,0.2-0.7,0.5-1,0.7c-0.8,0.5-1.6,1.1-2.3,1.8c-0.3,0.3-0.6,0.5-0.9,0.8c-0.3,0.3-0.6,0.5-0.9,0.8c-0.3,0.2-0.7,0.5-1,0.7
			c-0.8,0.5-1.6,1.1-2.3,1.8c-0.3,0.3-0.6,0.6-0.9,0.8s-0.6,0.5-0.9,0.8s-0.6,0.5-1,0.7c-1,0.7-1.9,1.4-2.7,2.2
			c-0.3,0.3-0.7,0.5-1,0.8c-1.3,0.9-2.6,1.9-3.7,3c-0.3,0.3-0.6,0.5-1,0.8c-1,0.6-2,1.3-2.9,2.1c-0.3,0.3-0.6,0.6-0.9,0.8
			c-0.3,0.3-0.6,0.5-0.9,0.8c-0.3,0.2-0.6,0.5-1,0.7c-0.8,0.5-1.6,1.1-2.3,1.8c-0.3,0.3-0.6,0.6-0.9,0.8c-0.3,0.3-0.6,0.5-0.9,0.8
			c-0.3,0.2-0.6,0.5-1,0.7c-0.8,0.5-1.6,1.1-2.3,1.8c-0.6,0.6-1.2,1.1-1.8,1.6c-0.3,0.2-0.6,0.5-1,0.7c-0.8,0.5-1.6,1.1-2.3,1.8
			c-0.3,0.3-0.6,0.6-0.9,0.8c-0.3,0.3-0.6,0.5-0.9,0.8s-0.6,0.5-1,0.7c-0.8,0.5-1.6,1.1-2.3,1.8c-0.3,0.3-0.6,0.6-0.9,0.8
			c-0.3,0.3-0.6,0.5-0.9,0.8s-0.6,0.5-1,0.7c-0.8,0.5-1.5,1.1-2.2,1.8c-0.3,0.3-0.6,0.6-0.9,0.8c-0.3,0.3-0.6,0.5-0.9,0.8
			s-0.6,0.5-1,0.7c-0.8,0.5-1.6,1.1-2.3,1.8c-0.6,0.6-1.2,1.1-1.8,1.6c-0.3,0.2-0.7,0.5-1,0.7c-0.8,0.5-1.6,1.1-2.3,1.8
			c-0.3,0.3-0.6,0.6-0.9,0.8s-0.6,0.6-1,0.8c-0.3,0.3-0.7,0.5-1,0.7c-1.2,0.9-2.4,1.9-3.4,2.9c-0.3,0.3-0.6,0.5-1,0.8
			c-1.4,0.9-2.8,1.9-3.9,3.2c-0.3,0.3-0.6,0.5-1,0.7c-1,0.6-2,1.3-2.9,2.1c-0.6,0.6-1.2,1.1-1.8,1.6c-0.3,0.2-0.6,0.5-1,0.7
			c-0.8,0.5-1.6,1.1-2.3,1.8c-0.3,0.3-0.6,0.6-0.9,0.8c-0.3,0.3-0.6,0.5-0.9,0.8c-0.3,0.2-0.6,0.5-1,0.7c-0.8,0.5-1.6,1.1-2.3,1.8
			c-0.3,0.3-0.6,0.6-0.9,0.8s-0.6,0.5-0.9,0.8c-0.3,0.2-0.7,0.5-1,0.7c-1,0.6-1.9,1.4-2.8,2.2c-0.3,0.3-0.7,0.5-1,0.8
			c-1.3,0.9-2.6,1.9-3.7,3c-0.3,0.3-0.6,0.5-1,0.8c-1,0.6-2,1.3-2.9,2.1c-0.3,0.3-0.6,0.6-0.9,0.8c-0.3,0.3-0.6,0.5-0.9,0.8
			c-0.3,0.2-0.6,0.5-1,0.7c-0.8,0.5-1.6,1.1-2.3,1.8c-0.3,0.3-0.6,0.6-0.9,0.8s-0.6,0.5-0.9,0.8c-0.3,0.2-0.7,0.5-1,0.7
			c-0.8,0.5-1.6,1.1-2.3,1.8c-0.3,0.3-0.6,0.6-0.9,0.8c-0.6,0.5-1.2,1-1.9,1.4c-0.8,0.5-1.6,1.1-2.3,1.8c-0.3,0.3-0.6,0.6-0.9,0.8
			c-0.3,0.3-0.6,0.5-1,0.8c-0.3,0.3-0.7,0.5-1,0.7c-1.7,0.9-2.9,2.8-5.2,2.2c-1.9-3.5,1.6-4.4,3.2-5.7c10.7-8.7,21.4-17.3,32.2-25.8
			c35.7-28.2,71-56.8,106.7-85C193,14.7,195.1,13.9,196.4,12z"/>
		<path class="st35" d="M300.5,75.8c-1.2,0.1-2.3,0.6-3.1,1.5c-14.1,13.1-28.2,26.2-42.4,39.3c-16.8,15.6-33.7,31.1-50.7,46.6
			c-11.7,10.8-23.5,21.5-35.3,32.2c-3.7,3.4-7.9,6.3-11,10.3l-2-1.1c11.5-12,24.1-22.7,36.4-33.8c4.7-4.2,9.1-8.8,13.9-13
			c10.6-9.2,20.6-19.2,31-28.7c17.8-16.3,35.7-32.4,53.5-48.6c2.5-2.2,4.9-4.6,7.3-6.9L300.5,75.8z"/>
		<path class="st36" d="M192.6,26.2l2,1c-1.6,4.2-5.5,6.3-8.7,8.8c-41.4,32.9-82.7,66-124.1,98.9c-0.5,0.4-1.1,0.7-1.6,1.2l-2-0.9
			c-0.3-0.4-0.6-0.8-0.7-1.3c0.1-2.8,2.5-3.9,4.3-5.3c40.6-32.3,81-65,121.8-97C186.3,29.6,188.4,26,192.6,26.2z"/>
		<path class="st37" d="M48.2,125.3c8.4-4.6,15.6-10.8,23-16.7c19.9-15.8,39.2-32.2,59.2-47.8c14.4-11.1,28.9-22.1,42.8-33.8
			c1.4-0.9,2.4-2.3,3.1-3.8l0,0c0.4-0.2,0.7-0.7,1.1-0.9c4.2-3.5,8.2-7.4,14-8.3c0.4,4.3-3.6,5.5-5.9,7.3
			c-26.7,21-53,42.4-79.5,63.5c-17.9,14.2-35.9,28.4-53.7,42.8c-1.4,1.1-2.6,2.2-4.4,0.6L48.2,125.3z"/>
		<path class="st38" d="M153.1,82.9c-6.6,3-11.6,8.4-17.2,12.8c-17.8,13.9-35.4,28-53,42.1c-3.3,2.6-6.5,5.3-9.7,7.9l0.1-0.1
			c-0.2-0.5-0.6-0.7-0.9-1.1v-0.1c-0.8-0.8-0.5-1.6,0.1-2.4c0.5-0.5,1-0.9,1.5-1.3c1.2-0.9,2.2-2.2,3.5-3c0.5-0.4,1.1-0.8,1.6-1.1
			c1.2-0.9,2.2-2.1,3.5-2.9c0.5-0.4,1.1-0.7,1.6-1.1c1.2-0.9,2.2-2.1,3.5-2.9c0.5-0.4,1.1-0.8,1.6-1.2c2.3-2.1,4.9-3.9,7.3-5.8
			c0.5-0.4,1.1-0.8,1.6-1.2c1.1-1,2.3-2,3.5-2.9c0.5-0.4,1.1-0.7,1.6-1.1c1.1-1,2.3-2,3.5-2.9c0.5-0.4,1-0.8,1.5-1.1
			c1.1-1,2.3-2,3.5-2.9c0.5-0.4,1-0.7,1.5-1.1c1.1-1,2.2-2,3.5-2.8c0.5-0.4,1-0.7,1.5-1.1c1.2-1.2,2.5-2.2,3.9-3.2
			c0.5-0.4,1-0.8,1.5-1.3c17.9-14.8,36.2-29,54.4-43.5c10.1-8,19.8-16.5,30.4-23.9l0.1-0.1l1.1,0.2c0.4,0.3,0.8,0.5,1.2,0.7
			c0.3-0.1,0.5,0,0.8,0.1c0.5,2.1-1,3.1-2.2,4.1c-18.3,14.8-36.8,29.1-55,43.9C154,82.7,153.6,82.8,153.1,82.9z"/>
		<path class="st39" d="M157.5,211c-3.6,0.5-5.8,3.5-8.1,5.6c-10.5,9.4-20.7,19.1-31,28.7c-5.4,5-10.8,10-16.3,15
			c-1.2,1.1-3.6,1.6-2.9,3.5s3,0.5,4.6,1c-3.1,3.1-6.6,3.2-11.5,0.4c-0.6-0.6-1-1.4-1.2-2.1c-0.1-0.5-0.1-1,0.2-1.5
			c18.3-17,36.9-33.6,55.1-50.7c1.8-1.7,3.8-4.1,7-2.8C154.9,208.7,156.4,209.7,157.5,211z"/>
		<path class="st26" d="M113.5,268.1c6.5-8.9,15.7-15,23.3-22.8c6.5-6.7,13.8-12.7,20.8-18.9c3.6-3.2,7.4-6.3,11-9.4l1.7,0.4
			c0.9,0.7,2.3-0.3,3,1c-4,6.9-10.7,11-16.3,16.1c-5,4.6-9.9,9.4-15.1,13.9c-8.8,7.4-16.9,15.6-25.2,23.5
			C114.2,271.8,113,270.7,113.5,268.1z"/>
		<path class="st40" d="M205.6,177.6l-1-0.9c-1.5-2.3,0.5-3.4,1.8-4.5c20.1-18.4,40.1-36.8,60.1-55.2c12.2-11.3,24.6-22.3,36.7-33.8
			c1.2-1.1,2.2-2.8,4.2-1.3h0.1c0.4,0.3,0.7,0.6,1,0.9l0,0c0.3,0.3,0.7,0.7,1,1c2.7,2.1,5.6,3.7,5.7,7.9c0.1,3.9-1.1,5.1-4.8,4
			c-3.7-0.5-7.4-0.4-11,0.1l-1.9,0.2c-0.6,0.5-1.4,0.4-2.1,0.8l-1,0.2c-0.5,0.6-1.5,0.4-2,1l0,0c-0.3,0.3-0.6,0.6-1,0.8l-3.3,3.3
			c-0.3,0.4-0.5,0.8-0.8,1.2c0.1,0.3,0,0.6-0.2,0.8c-0.3,0.3-0.7,0.7-1,1c-9.8,8.4-19.1,17.3-28.7,26
			c-14.9,13.5-29.3,27.4-44.5,40.6c-2.3,2-3.7,4.8-6.5,6.2L205.6,177.6z"/>
		<path class="st7" d="M153.3,208c-2.6,0.4-4.6,2.1-6.4,3.8c-10.4,9.7-20.8,19.4-31.2,29.1c-7.1,6.6-14.4,13-21.5,19.5
			c-0.7,0.7-1.7,1.1-2.7,1.2l-0.3-0.3l0.1-0.4c-1-7.7,6-10.2,10-14.4c5.1-5.4,11.2-10,16.8-15c10-9.1,20-18.3,30-27.4l0,0
			c0.3,0.4,0.7,0.7,1.2,0.9C150.8,205.7,152.2,206.7,153.3,208z"/>
		<path class="st9" d="M326.8,106.2c7.2-9.1,16.6-15.9,24.8-24c5.2-5.2,10.9-9.8,16.4-14.7c8.6-7.9,17.2-15.8,25.8-23.8
			c0.7-0.7,1.7-1.1,2.7-1.2c1.2,0.3,2.3,1,3,2c-5.4,4.2-10,9.3-15.2,13.9c-14.7,13.1-28.9,26.8-43.5,40.1c-2.6,2.4-5.8,4-7,7.6
			L326.8,106.2z"/>
		<path class="st41" d="M273.2,55.6c-5.6,7-12.7,12.3-19.3,18.3c-5,4.6-10,9.3-15.2,13.9c-14.9,13.2-29.1,27.2-43.9,40.5
			c-16.8,15.2-33.4,30.4-49.9,45.8c-4.4,4.1-9.7,7.1-12.3,12.9c-0.9-0.4-1.7-1.2-1.9-2.1c2.4-3.7,5.8-6.4,8.9-9.3
			c16.1-14.9,32.3-29.7,48.5-44.5c12.2-11.2,24.4-22.4,36.6-33.6c15.2-13.9,30.4-27.8,45.7-41.6c0.7-0.7,1.7-1.2,2.7-1.2l0,0
			c0.3,0.2,0.4,0.4,0.3,0.6S273.3,55.6,273.2,55.6z"/>
		<path class="st31" d="M206.6,177.8c4-7.8,11.6-12,17.6-17.7c5.5-5.3,11.2-10.6,17-15.6c13.8-12.1,27.1-24.9,40.6-37.4
			c1.4-1.2,2.9-2.2,4.6-3c0.6,0.6,0.6,1.5,0.1,2.2c-0.1,1-0.2,1.9-0.2,2.9c-6,3-9.9,8.5-14.8,12.7c-10.7,9.1-20.7,19.2-31,28.7
			c-9.4,8.6-18.9,17.1-28.4,25.6c-1.2,1.1-2.3,2-1.3,3.7L206.6,177.8z"/>
		<path class="st42" d="M65.2,138.4l-2-1c-0.7-0.3-1.2-0.8-1.5-1.5c-0.2-1.5,1-1.9,1.9-2.6C88.7,113,114,93,139.2,72.9
			c17.7-14.2,35.8-28,53.1-42.7c1.2-1,2.3-2.5,4.3-1.9c0.3,0,0.6,0.1,0.9,0.2c0.3,0.3,0.5,0.7,0.6,1.1c0,0.2-0.1,0.4-0.1,0.6
			c-0.2,0.4-0.5,0.7-0.8,1c-1.4,1-2.6,2.1-3.8,3.3c-0.3,0.3-0.6,0.5-1,0.8c-1.4,0.9-2.8,2-4,3.2c-0.3,0.3-0.6,0.6-1,0.8
			c-1.5,0.9-2.8,2-4,3.2c-0.3,0.3-0.6,0.6-1,0.8c-1.5,0.9-2.8,2-4,3.2c-0.3,0.3-0.6,0.6-1,0.8c-1.5,0.9-2.8,2-4,3.2
			c-0.3,0.3-0.6,0.6-1,0.8c-1.5,0.9-2.8,2-4,3.2c-0.3,0.3-0.6,0.6-1,0.8c-1.5,0.9-2.8,2-4,3.2c-0.3,0.3-0.6,0.5-1,0.8
			c-1.5,0.9-2.8,2-4,3.2c-0.3,0.3-0.6,0.5-1,0.8c-1.5,0.8-3,1.9-4.2,3.1c-0.3,0.3-0.6,0.5-1,0.7c-1.1,0.6-2,1.3-2.9,2.1
			c-0.3,0.3-0.6,0.5-0.9,0.8c-0.3,0.3-0.6,0.5-0.9,0.8s-0.6,0.5-1,0.7c-0.8,0.5-1.6,1.1-2.3,1.8c-0.3,0.3-0.6,0.6-0.9,0.8
			c-0.3,0.3-0.6,0.5-0.9,0.8c-0.3,0.2-0.6,0.5-1,0.7c-0.8,0.5-1.6,1.2-2.2,1.9c-0.6,0.6-1.2,1.1-1.8,1.6c-0.3,0.2-0.6,0.5-1,0.7
			c-0.8,0.5-1.6,1.1-2.3,1.8c-0.3,0.3-0.6,0.6-0.9,0.8c-0.6,0.5-1.2,1-1.9,1.4c-0.8,0.5-1.6,1.1-2.3,1.8c-0.3,0.3-0.6,0.6-0.9,0.8
			s-0.6,0.5-0.9,0.8c-0.3,0.3-0.7,0.5-1,0.7c-1,0.7-2,1.4-2.8,2.2c-0.3,0.3-0.6,0.5-1,0.8c-1.4,0.9-2.7,2-3.9,3.2
			c-0.3,0.3-0.6,0.6-1,0.8c-1.7,1-3.1,2.4-4.1,4.1c-7.2,7.5-16,13.2-23.9,19.9S73,131.5,65.2,138.4z"/>
		<path class="st38" d="M97.5,123.3l-8.1,6.1c-0.3,0.4-0.7,0.6-1,1l-4,3c-0.3,0.4-0.7,0.6-1,1l-4,3c-0.3,0.4-0.7,0.6-1,1l-4,3
			c-0.3,0.4-0.7,0.6-1,1c-0.7,0.4-1.1,1.1-1,1.9l-2.4-2.6c12-9.4,24-18.8,35.9-28.2c17.4-13.9,34.8-27.7,52.2-41.6
			c14.4-11.5,28.8-23,43.1-34.5c2.2-1.7,4.1-4.1,7.3-3.8c-5.6,6.8-13.1,11.3-19.8,16.8c-17.4,14.2-35.2,28.1-52.8,42.2
			c-4,3.2-8.1,6.4-12.1,9.6c-0.3,0.4-0.7,0.6-1,1l-4,3c-0.3,0.4-0.7,0.6-1,1l-4,3c-0.3,0.4-0.7,0.6-1,1l-4,3c-0.3,0.4-0.7,0.6-1,1
			l-4,3c-0.3,0.4-0.7,0.6-1,1l-4,3C98.2,122.6,97.8,122.9,97.5,123.3z"/>
		<path class="st22" d="M340.9,109.2c1.4-4.6,5.3-7.3,8.8-10c5.8-4.6,10.7-10,16.3-14.8c12-10.3,23.5-21.3,35.2-32
			c1.3-1.2,2.5-2.7,3.7-4c1.8,0.7,3.3,1.8,4.5,3.2c-6.2,7.5-14,13.4-21.1,20c-5.7,5.3-11.5,10.7-17.4,15.9
			c-8.1,7.2-15.8,14.9-24.1,21.9c-0.8,0.9-1.8,1.5-2.9,1.8L340.9,109.2z"/>
		<path class="st4" d="M142.9,200c-10,9.1-19.7,18.6-30.1,27.3c-6.6,5.6-11.8,12.8-19.7,17c-1.9-5,1.6-8.7,3.2-12.9
			c0.3-0.4,0.6-0.8,1-1.1c0.4-0.3,0.7-0.6,1.2-0.9c7.2-4.1,12.4-10.7,18.5-16.1c5.6-5,11.5-9.8,16.6-15.3c1.1-1.1,2.2-2.7,4.2-2.1
			l0,0c0.3,0.4,0.7,0.8,1.2,1C140.7,197.6,142,198.7,142.9,200z"/>
		<path class="st43" d="M59.3,164.9c-1.2-1.9-2.2-0.5-3.2,0.3c-15.4,12.4-30.8,24.7-46.2,37c-0.7,0.4-1.5,0.7-2.3,0.9
			c-0.1-2.4,0.3-4.8,1.1-7.1c6-6.9,13.7-11.7,20.6-17.4c11-9,22.3-17.6,33.4-26.5c1.8-1.4,3.5-3.9,6.5-2.5l-0.2,1.1
			c-0.2,0.4-0.4,0.7-0.7,1.1c0,0.3-0.1,0.6-0.2,0.9c-0.3,0.4-0.5,0.8-0.8,1.1C65.4,158,62.4,161.5,59.3,164.9z"/>
		<path class="st44" d="M192.6,26.2C179,37,165.3,47.7,151.7,58.5c-12.3,9.8-24.7,19.4-36.9,29.4c-15.9,13-32.5,25.2-48,38.7
			c-3,2.6-6.9,4-8.8,7.8c-0.6,0.6-1.5,0.6-2.1,0l-1.9-0.2c-0.3-0.4-0.3-0.9-0.1-1.4c6.9-7.1,15.1-12.8,22.9-19
			c36-28.7,72.1-57.3,108-86.2c1.5-1.4,3.3-2.3,5.3-2.8c0.5-0.1,1,0.1,1.3,0.5L192.6,26.2z"/>
		<path class="st45" d="M65.2,138.4c2.4-5.8,8.2-8.1,12.7-11.7c10.7-8.8,21.7-17.3,32.6-26c0.8-0.8,1.6-1.7,2.2-2.7
			c1.9-1.1,3.2-2.9,5-4s3.2-2.9,5-4c1.4-0.9,2.6-2.1,4-3c0.3-0.3,0.7-0.7,1-1c1.4-0.9,2.6-2.1,4-3c0.3-0.3,0.7-0.7,1-1
			c1.4-0.9,2.6-2.1,4-3l1-1c1.4-0.9,2.6-2.1,4-3c0.3-0.3,0.7-0.7,1-1c1.4-0.9,2.6-2.1,4-3c0.3-0.3,0.7-0.7,1-1c1.4-0.9,2.6-2.1,4-3
			c1.9-1.1,3.2-2.9,5-4s3.2-2.9,5-4l0,0c1.9-1.1,3.2-2.9,5-4l0,0c1.9-1.1,3.2-2.9,5-4l0,0c1.9-1.1,3.2-2.9,5-4l0,0
			c1.9-1.1,3.2-2.9,5-4l0,0c1.9-1.1,3.2-2.9,5-4l0,0c1.9-1.1,3.2-2.9,5-4l0,0c1.9-1.1,3.2-2.9,5-4c0.2-0.3,0.4-0.6,0.6-0.9l0.5-0.2
			c1.8,0.3,3.5,1,5,2.1h-1c-8.7,5.7-16.5,12.6-24.6,19c-14.3,11.3-28.6,22.6-42.8,34.1c-13.9,11.2-28,22.3-42,33.5
			c-7.4,6-14.9,11.9-22.4,17.8c-1.3,0.8-2.3,1.9-3.1,3.2l-0.5,0.5L65.2,138.4z"/>
		<path class="st46" d="M307.5,81.9c-1.5-0.1-2.4,1-3.4,1.9c-14.8,13.8-29.5,27.8-44.5,41.4c-16.7,15.2-33.6,30.2-49.8,45.9
			c-1.8,1.8-5.1,2.3-5.2,5.7l-3.9-0.2c7.5-8.6,15.8-15.4,23.7-22.5c5.1-4.6,10-9.4,15.2-13.9c15.2-13.5,29.7-27.6,44.7-41.3
			c6.9-6.3,14.2-12.2,20.5-19.2C305.9,79.9,306.9,80.8,307.5,81.9z"/>
		<path class="st47" d="M103.6,304.1c-0.1,2.7-2.4,4-4.1,5.5c-8.2,7.1-16.2,14.5-24,22c-2.3,2.1-3.7,4.1-3.3,7.2
			c-1.7-6.3-0.2-12.4,1-18.5c6.4-7.4,13.9-13.5,21.1-20c0.8-1,2.2-1.1,3.2-0.3c0,0,0,0,0,0l0,0c0.3,0.4,0.6,0.7,1,1l0,0
			c0.3,0.4,0.7,0.7,1.1,1l-0.1-0.1c0.4,0.8,1.4,0.5,1.9,1.1L103.6,304.1z"/>
		<path class="st48" d="M190.4,25.3c-8.8,5.6-16.4,12.6-24.5,19c-17.3,13.7-34.5,27.6-51.8,41.3C98.1,98.4,82,111.3,65.9,124.1
			c-3.9,3.1-7.9,6.2-11.8,9.3c-3.3-2.2,0.5-2.7,1-4l0,0c0.3-0.3,0.7-0.7,1-1l0,0c1.4-0.9,2.6-2.1,4-3l0,0c0.3-0.3,0.7-0.7,1-1l0,0
			c1.4-0.9,2.6-2.1,4-3c0.3-0.3,0.7-0.7,1-1c1.4-0.9,2.6-2.1,4-3c0.3-0.3,0.7-0.7,1-1c1.4-0.9,2.7-1.9,4-3c1.8-1.2,3.4-2.7,5-4
			c1.4-0.9,2.6-2.1,4-3c0.3-0.3,0.7-0.7,1-1c1.4-0.9,2.6-2.1,4-3c0.3-0.3,0.7-0.7,1-1c1.4-0.9,2.6-2.1,4-3c0.3-0.3,0.7-0.7,1-1
			c1.4-0.9,2.6-2.1,4-3c1.8-1.2,3.4-2.7,5-4c1.9-1.1,3.2-2.9,5-4c0.3-0.3,0.7-0.7,1-1c1.4-0.9,2.7-1.9,4-3c0.3-0.3,0.7-0.7,1-1
			c1.4-0.9,2.6-2.1,4-3c0.3-0.3,0.7-0.7,1-1c1.4-0.9,2.6-2.1,4-3c0.3-0.3,0.7-0.7,1-1c1.4-0.9,2.6-2.1,4-3c0.3-0.3,0.7-0.7,1-1
			c1.4-0.9,2.6-2.1,4-3c0.3-0.3,0.7-0.7,1-1c1.4-0.9,2.6-2.1,4-3c0.3-0.3,0.7-0.7,1-1l0,0c1.4-0.9,2.6-2.1,4-3c0.3-0.3,0.7-0.7,1-1
			l0,0c1.4-0.9,2.7-1.9,4-3l0,0c1.8-1.2,3.4-2.7,5-4l0,0c1.4-0.9,2.6-2.1,4-3c0.4-0.3,0.7-0.7,1-1l0,0c1.4-0.9,2.6-2.1,4-3
			c0.4-0.3,0.7-0.7,1-1l0,0c1.4-0.9,2.6-2.1,4-3c0.4-0.3,0.7-0.7,1-1l0,0c1.4-0.9,2.6-2.1,4-3l0,0c1.7-1.2,3.4-2.6,5-4l0,0
			c1.9-1.1,3.2-2.9,5-4c1.5-0.5,2.1-2.6,4-2h1.1c0.3,0,0.6,0.1,0.9,0.3c0.2,0.2,0.3,0.3,0.2,0.5S190.5,25.3,190.4,25.3z"/>
		<path class="st38" d="M69.1,149.5c-8.2,4-14.3,10.8-21.5,16.1c-13.3,9.7-25.4,21-39,30.4c0.7-4.1,0-8.6,3.1-12.1h-0.1
			c0.1,1.3,1.3,2.2,2.5,2c0.1,0,0.2,0,0.3,0c4.2-5.5,10.2-9.1,15.5-13.4c10.4-8.7,21.3-16.9,31.9-25.4c1.6-1.3,3-3.4,5.6-2.7l0.8,1
			c0.3,0.4,0.5,0.7,0.8,1.1L69.1,149.5z"/>
		<path class="st28" d="M153.1,82.9c7.1-7.8,16-13.6,24.2-20.2c10.6-8.6,21.4-17,32.1-25.6c0.8-0.8,1.6-1.7,2.3-2.7
			c1.8,0.2,3.6,0.8,5.1,1.8c-5.5,7-13.3,11.5-20.1,17.1c-8.4,7.1-17.3,13.6-25.9,20.5c-0.8,0.6-2.6,1.2-1.5,3
			c-1.2,3.3-4.4,1.8-6.6,2.8c-0.8,0.2-1.6,0.2-2.5,0.4l-1.1,0.3c-0.5,0.2-1,0.4-1.4,0.7c-0.3,0.2-0.5,0.5-0.8,0.7
			c-0.3,0.3-0.6,0.5-0.9,0.7c-0.6,0.5-1.3,0.8-2.1,0.8C153.6,83.4,153.3,83.2,153.1,82.9L153.1,82.9z"/>
		<path class="st49" d="M157,26.5l6-1c0.4,0.9-0.3,1.5-0.7,2.2c-0.2,0.3-0.5,0.6-0.8,0.9c-0.2,0.3-0.5,0.6-0.8,0.9l-0.4,0.4
			c-0.3,0.3-0.6,0.5-0.9,0.8c-0.3,0.2-0.6,0.4-0.9,0.6c-0.5,0.3-0.9,0.6-1.4,0.9c-0.3,0.2-0.5,0.5-0.8,0.7s-0.5,0.5-0.8,0.7
			l-0.4,0.4c-0.3,0.3-0.5,0.5-0.8,0.7c-0.3,0.2-0.6,0.4-0.9,0.6c-0.5,0.3-0.9,0.6-1.3,0.9c-0.3,0.2-0.5,0.5-0.8,0.7
			s-0.5,0.5-0.8,0.7l-0.4,0.4c-0.3,0.3-0.5,0.5-0.8,0.7c-0.3,0.2-0.6,0.4-0.9,0.6c-0.5,0.3-0.9,0.6-1.3,0.9
			c-0.3,0.2-0.5,0.5-0.8,0.7s-0.5,0.5-0.8,0.7l-0.4,0.4c-0.3,0.3-0.5,0.5-0.8,0.7c-0.3,0.2-0.6,0.4-0.9,0.6
			c-0.5,0.3-0.9,0.6-1.3,0.9c-0.3,0.2-0.5,0.5-0.8,0.7s-0.5,0.5-0.8,0.7l-0.4,0.4c-0.3,0.3-0.5,0.5-0.8,0.7
			c-0.3,0.2-0.6,0.4-0.9,0.6c-0.5,0.3-0.9,0.6-1.3,0.9c-0.3,0.2-0.5,0.5-0.8,0.7s-0.5,0.5-0.8,0.7l-0.4,0.4
			c-0.3,0.3-0.5,0.5-0.8,0.7c-0.3,0.2-0.6,0.4-0.9,0.6c-0.5,0.3-0.9,0.6-1.3,0.9c-0.3,0.2-0.5,0.5-0.8,0.7s-0.5,0.5-0.8,0.7
			l-0.4,0.4c-0.3,0.3-0.5,0.5-0.8,0.7c-0.3,0.2-0.6,0.4-0.9,0.6c-0.5,0.3-0.9,0.6-1.3,0.9c-0.3,0.2-0.5,0.5-0.8,0.7
			s-0.5,0.5-0.8,0.7l-0.4,0.4c-0.3,0.3-0.5,0.5-0.8,0.7c-0.3,0.2-0.6,0.4-0.9,0.6c-0.5,0.3-0.9,0.6-1.4,1c-0.3,0.2-0.6,0.5-0.9,0.7
			c-0.3,0.3-0.6,0.5-0.9,0.7c-0.3,0.2-0.6,0.4-1,0.7c-0.8,0.5-1.6,1.1-2.2,1.7c-0.3,0.3-0.5,0.5-0.8,0.8c-0.3,0.3-0.6,0.5-0.9,0.7
			c-0.3,0.2-0.6,0.4-0.9,0.6c-0.5,0.3-0.9,0.6-1.4,0.9l-0.9,0.7c-0.3,0.2-0.5,0.5-0.8,0.7l-0.4,0.4c-0.3,0.3-0.5,0.5-0.8,0.7
			s-0.6,0.4-0.9,0.6s-0.9,0.6-1.3,0.9c-0.3,0.2-0.5,0.5-0.8,0.7s-0.5,0.5-0.8,0.7l-0.4,0.4c-0.3,0.3-0.5,0.5-0.8,0.7
			c-0.3,0.2-0.6,0.4-0.9,0.6c-0.5,0.3-0.9,0.6-1.3,0.9c-0.3,0.2-0.5,0.5-0.8,0.7s-0.5,0.5-0.8,0.7s-0.3,0.2-0.4,0.4
			c-0.3,0.3-0.5,0.5-0.8,0.7c-0.3,0.2-0.6,0.4-0.9,0.6c-0.5,0.3-0.9,0.6-1.3,0.9c-0.3,0.2-0.5,0.5-0.8,0.7s-0.5,0.5-0.8,0.7
			l-0.4,0.4c-0.3,0.3-0.5,0.5-0.8,0.7c-0.3,0.2-0.6,0.4-0.9,0.6c-0.5,0.3-0.9,0.6-1.3,0.9c-0.3,0.2-0.5,0.5-0.8,0.7S91.3,85,91,85.2
			l-0.4,0.4c-0.3,0.3-0.6,0.5-0.9,0.8c-0.3,0.3-0.7,0.5-1,0.7c-0.9,0.6-1.7,1.3-2.4,2c-9.7,7.8-19.5,15.7-29.3,23.4
			c-1.4,1.1-2.7,3.3-5.1,1.6l0.3-2c0.3-0.3,0.5-0.7,0.8-1l0,0c2-3.4,5.5-5.3,8.1-8.1c0.3-0.3,0.7-0.6,1.1-0.8c1.5-1,2.9-2.1,4.2-3.4
			c0.4-0.3,0.7-0.6,1.1-0.8c21.4-16.3,42.4-33.1,63.2-50.3c0.3-0.3,0.7-0.6,1.1-0.8c1.8-1,3.3-2.4,4.3-4.2
			C142.7,36.7,149,30.5,157,26.5z"/>
		<path class="st50" d="M52,114.1c5.4-2.1,9-6.6,13.5-9.9c7.1-5.3,14-10.8,20.9-16.3c1-0.8,2.1-1.2,3-2c0.3-0.3,0.7-0.7,1-1
			s0.7-0.7,1-1c1-0.7,2.1-1.2,3-2c0.3-0.3,0.7-0.7,1-1s0.7-0.7,1-1c1-0.7,2.1-1.2,3-2c0.3-0.3,0.7-0.7,1-1s0.7-0.7,1-1
			c1-0.7,2.1-1.2,3-2c0.3-0.3,0.7-0.7,1-1s0.7-0.7,1-1c1-0.7,2.1-1.2,3-2c0.3-0.3,0.7-0.7,1-1s0.7-0.7,1-1c1-0.7,2.1-1.2,3-2
			c0.3-0.3,0.7-0.7,1-1c1.4-0.9,2.6-2.1,4-3c0.3-0.3,0.7-0.7,1-1c1-0.7,2.1-1.2,3-2l1-1c0.3-0.3,0.7-0.7,1-1c1-0.7,2.1-1.2,3-2
			c0.3-0.3,0.7-0.7,1-1s0.7-0.7,1-1c1-0.7,2.1-1.2,3-2c0.3-0.3,0.7-0.7,1-1s0.7-0.7,1-1c1-0.7,2.1-1.2,3-2c0.3-0.3,0.7-0.7,1-1
			s0.7-0.7,1-1c1-0.7,2.1-1.2,3-2c0.3-0.3,0.7-0.7,1-1s0.7-0.7,1-1c1-0.7,2.1-1.2,3-2c0.3-0.3,0.7-0.7,1-1s0.7-0.7,1-1
			c1-0.7,2.1-1.2,3-2c0.3-0.3,0.7-0.7,1-1s0.7-0.7,1-1c1-0.7,2.1-1.2,3-2c0.4-0.3,0.7-0.7,1-1s0.7-0.7,1-1c1.2-1.2,2.7-2,4-3
			c0.3-0.1,0.6-0.1,0.9,0c0.6-0.6,1.5-0.6,2.1,0c-5.6,6.3-12.7,10.8-19.1,16c-17.2,14-34.7,27.7-52.1,41.5
			C81.7,95,67,106.7,51.9,118.6c-0.6,0.3-1.2,0.5-1.9,0.6c-0.1-1.4,0.3-2.9,1.1-4.1C51.5,114.8,51.7,114.4,52,114.1L52,114.1z"/>
		<path class="st51" d="M338.9,42.5l11.1,0.2c-0.5,4.5-4.4,6.5-7.2,9.1c-9.7,9.2-19.7,17.9-29.3,27.2c-1.6-1.7-3.3-3.4-5-5
			c-1.4-3.2,1.3-4.6,3-6.2C320.7,59.3,329.9,51.1,338.9,42.5z"/>
		<path class="st12" d="M204.5,231.5c0-2.1,1.6-3.2,2.9-4.5c10.2-9.2,20.4-18.3,30.5-27.6c18.3-16.8,36.6-33.8,54.9-50.8
			c7.1-6.6,15.2-12.1,20.8-20.1l4-1.6c-0.6,4.5-4.6,6.5-7.4,9.1c-9.4,8.8-19.2,17.2-28.7,25.9c-19,17.5-37.8,35.2-56.8,52.6
			c-6.4,5.9-12.9,11.7-19.1,17.7L204.5,231.5z"/>
		<path class="st52" d="M47.8,128.3c4.2,0.4,6.2-3.2,8.8-5.2c24.8-19.5,49.5-39.3,74.2-58.9C149.2,49.4,167.6,34.8,186,20
			c2-1.6,4.2-3.4,5.3-5.9v0.1c0.4-0.3,0.7-0.6,1.1-0.9c0.3-0.1,0.6-0.2,0.9-0.1c0.3-0.3,0.7-0.5,1-0.8l2-0.4
			c-2.2,5.5-7.7,7.6-11.8,11c-17.4,14.2-35,28-52.5,42c-17.2,13.7-34.5,27.5-51.8,41.2c-9.8,7.8-19.5,15.8-29.3,23.7
			c-0.8,0.6-2.5,1-0.9,2.5c0.3,0.2,0.5,0.4,0.3,0.6s-0.2,0.3-0.3,0.3C45.5,133.3,46.8,130.7,47.8,128.3z"/>
		<path class="st6" d="M208.5,238.5c-7.8,6.9-15.6,13.7-23.2,20.8c-18.9,17.4-37.6,34.9-56.5,52.4c-11.9,11-23.9,22.1-36,32.9
			c-5.8,5-11.4,10.3-16.5,16c-1.2-0.1-1.1-1-1-1.8c-0.6-0.6-0.5-1.5,0-2.1c0,0,0,0,0,0c2.9-0.7,5-2.8,7-4.6
			c10.9-10,21.5-20.2,32.3-30.1c17.6-16.2,35.4-32.1,53.1-48.2c9.4-8.6,18.7-17.3,28-25.9c3.7-3.4,7.3-6.9,10.9-10.3L208.5,238.5z"
			/>
		<path class="st53" d="M283.4,56.3l-3.1-1.9c-0.4-0.4-0.8-0.7-1.3-0.8c-0.3,0.1-0.5,0-0.7-0.3c-1.1-1.5-0.1-2.5,0.9-3.4
			c8.8-7.9,17.2-16.3,26.2-23.9c1.8-1.5,3.6-3.2,6.2-1.8c1.9,0,3.7,0.7,5,2c-2.8,4.7-7.5,7.6-11.3,11.2
			c-5.4,5.2-10.9,10.4-16.6,15.4C287.3,54.3,285.7,55.9,283.4,56.3z"/>
		<path class="st54" d="M311.7,24.3c-4.2-0.1-6.4,3.5-9,5.7c-8.1,6.9-15.9,14.3-23.7,21.6c-0.4,0.4-0.5,1.2-0.7,1.8l-6.1-3.1
			c-1.3-1.8,0.3-2.7,1.3-3.7c7.1-6.9,14.8-13.2,21.7-20.3c1.4-1.4,3.2-2.4,5.2-2.8C304.2,23.4,308,22.5,311.7,24.3z"/>
		<path class="st36" d="M196.6,28.3C183,39,169.3,49.8,155.7,60.5C140,73,124.3,85.5,108.7,98c-15.1,12.1-30.3,24.2-45.4,36.3
			c-0.7,0.5-1.1,1.2-1.2,2.1c-0.2,0.3-0.5,0.4-0.8,0.2c-0.1,0-0.1-0.1-0.2-0.2l-1-0.2c2.6-5.4,8.1-7.8,12.4-11.3
			c22.8-18.6,45.9-36.8,68.9-55.1c15.6-12.4,31.2-24.6,46.8-36.9c2.2-1.8,4.3-3.7,6.4-5.6L196.6,28.3z"/>
		<path class="st55" d="M157,26.5c-6.5,6-14,10.7-20.1,17c-1.9,1.1-3.2,2.9-5,4C110.2,64.6,88.8,81.9,67.2,99c-1.9,1.1-3.2,2.9-5,4
			c-2.5,0.7-3.3,5.3-7,3l1-2c0.4-0.3,0.7-0.7,0.9-1.2c0-0.3,0-0.6,0.1-0.8c9.1-6.8,17.7-14.2,26.7-21c1-0.9,1.8-1.9,2.5-3.1
			c0.3-0.1,0.6-0.2,0.9-0.2c0.4-0.3,0.8-0.6,1.1-1l0,0c0.3-0.3,0.7-0.6,1-0.9l2-1.1c0.4-0.3,0.8-0.6,1.1-1l0,0c0.4-0.3,0.7-0.7,1-1
			l0,0c0.3-0.3,0.6-0.6,1-0.9l0.1-0.1c0.5-0.7,1.5-0.4,1.9-1.1l0,0c14.5-11.2,28.6-22.8,43-34c3.6-2.8,7.1-5.5,10.6-8.5
			C152.2,27.1,154.6,26.5,157,26.5z"/>
		<path class="st7" d="M303.6,69.7l-4-3c-0.4-0.3-0.7-0.7-1.1-0.9l0,0c-0.2-3.7,2.9-5.2,5-7c7.3-6.2,13.9-13.2,21.2-19.3
			c1.4-1.2,2.6-3.4,5-1.9l0.1,0.1c0.4,0.2,0.7,0.5,1,0.9l4.4,2.9c-9.8,9.4-20.1,18.1-29.8,27.6C304.8,69.4,304.2,69.6,303.6,69.7z"
			/>
		<path class="st6" d="M411.8,53.4c-7.9,9.8-17.9,17.5-27.1,26c-4.8,4.4-9.4,9-14.4,13.2c-8.1,6.7-15.5,14.2-23.2,21.4l-2.1-1.9
			c-0.5-1.2,0.4-1.9,1.1-2.5c13.8-12,26.9-24.6,40.5-36.9c6.5-5.8,13-11.6,19.2-17.7c1.3-1.3,2.2-3.6,4.9-2.4l0,0
			C410.9,53,411.3,53.3,411.8,53.4L411.8,53.4z"/>
		<path class="st56" d="M329.7,37.5c-4.5,1.2-6.7,5.3-9.8,8.2c-7.3,6.6-15.1,12.6-21.4,20.2c-1.2-0.3-2.3-1-3-2.1
			c-0.3-0.5-0.8-0.9-1.4-0.9c-0.2,0.1-0.5,0-0.5-0.3c0,0,0,0,0,0c-0.7-2.4,0.9-3.8,2.4-5.1c7.5-6.8,15-13.5,22.2-20.4
			c2-1.9,3.8-4.9,7.5-3.5C327.2,34.5,328.6,35.8,329.7,37.5z"/>
		<path class="st43" d="M272.3,1c-8.6-2-14.5,3.1-20.4,7.8c-8.6,6.8-17.2,13.7-25.7,20.6c-1.5,1.2-3.3,2.4-3.5,4.7l-5.1-1.8
			c-0.3-0.3-0.5-0.8-0.5-1.3c0.4-2,1.8-3.2,3.2-4.4c11.3-8.8,22-18.2,33.7-26.5C260.2,0.3,266.3-0.7,272.3,1z"/>
		<path class="st57" d="M313.5,78.9c2.2-5.2,6.7-8.2,10.6-11.8c8.7-8.1,18-15.5,25.8-24.5h7.1c-11.1,12-23.8,22.3-35.8,33.4
			c-2,1.8-4,3.5-5.5,5.7c-0.4-0.5-0.8-1-1.2-1.6C314.4,79.6,314.1,79.1,313.5,78.9L313.5,78.9z"/>
		<path class="st17" d="M97.5,300c-5.2,2.4-8.7,7-13,10.6c-3.8,3.1-6.8,7.3-11.4,9.6c-0.3-5.2,0.7-10.5,2.8-15.3
			c3.3-3.3,6.5-6.6,10-9.6c1.8-1.5,3.5-3.9,6.5-2.5l0,0c0.3,0.3,0.5,0.6,0.7,1L97.5,300z"/>
		<path class="st29" d="M303.6,69.7c8.9-10.3,19.6-18.7,29.7-27.8c0.5-0.4,1.3-0.4,1.9-0.6l3.7,1.2c-1.7,4.8-6.1,7.4-9.5,10.7
			c-6.3,6-12.8,11.8-19.3,17.6c-0.9,0.8-1.5,1.9-1.5,3.1L303.6,69.7z"/>
		<path class="st58" d="M137.9,196c-5.2,4.7-10.5,9.4-15.6,14.1c-6,5.6-11.9,11.4-18,16.9c-1.6,1.5-3.3,3.4-6,3.1
			c-1-4.9,2-8.1,4.6-11.4c4.2-2.7,8.1-5.9,11.6-9.5c5-5.2,10.9-9.4,15.8-14.7c1-1.1,2.1-2.3,3.9-1.6c0.3,0,0.6,0.2,0.8,0.6
			c0.3,0.1,0.6,0.3,0.7,0.6L137.9,196z"/>
		<path class="st45" d="M59.2,139.3c0.3,0,0.7,0.1,1,0.2c0.5,0.6,1.5,0.3,2,0.9c1.3,0.1,2.5,0.9,3.2,2
			c-11.1,9.5-22.7,18.4-34.1,27.4c-3.8,3-7,6.9-11.8,8.4c-0.5,0-0.9-0.2-1.2-0.6c-0.2-0.4-0.2-0.9-0.2-1.3c0.1-0.6,0.4-1.3,0.7-1.9
			c0.4-0.8,0.7-1.5,1.1-2.3c0.2-0.4,0.4-0.8,0.5-1.2c0.9-1.6,1.5-3.3,3.2-4.2c11.1-7.6,21-17,31.8-25.1
			C56.6,140.8,57.6,139.6,59.2,139.3z"/>
		<path class="st4" d="M325.6,33.4c-2.2,0.2-3.8,1.6-5.2,2.9c-8.1,7.7-16.3,15.5-24.8,22.8c-1,0.8-1.4,2.2-2.1,3.4l-5-3.2
			c1-4.9,5.2-7.3,8.5-10.2c6.5-5.8,12.7-12,19.4-17.6c1.3-1.1,2.3-3.1,4.6-2.3C322.8,30.3,324.4,31.7,325.6,33.4z"/>
		<path class="st59" d="M210.5,184.9c-6.4,3.5-10.5,9.6-16.2,13.9c-3,2.3-5.1,5.9-8.9,7.3c-0.2-4.4,0.2-8.8,1.2-13.2
			c2.9-4.3,7.6-6.8,11.1-10.5c1.8-2,4.6-1.2,7-0.6C207,181.8,209.2,183,210.5,184.9z"/>
		<path class="st58" d="M320.9,29.2c-11,9.9-22.4,19.2-32.5,30.1l-5.1-3c11.1-10,21.5-20.8,33.3-30l0,0c0.5,0.7,1.5,0.4,1.9,1.1
			C319.6,27.6,320.4,28.3,320.9,29.2z"/>
		<path class="st8" d="M499.4,332.2c1-4.8,1.1-9.7,0.3-14.5c-1.3-8,1.2-15.2,4.5-22.3c1.6-3.5,3.2-7,4.7-10.5
			c0.1-0.4,0.4-0.8,0.6-1.1c-0.1-0.3,0-0.6,0.2-0.9h0.7c-1,17.6-4.9,34.6-10.1,51.4C498.5,334.3,499,333.2,499.4,332.2z"/>
		<path class="st60" d="M18.7,177.8c8.8-5.7,16.3-13,24.8-19.2c7.3-5.4,13.4-12.4,21.9-16.2l2.1,1.9l-51.3,40.5
			c-0.5,0.4-1.1,0.7-1.7,1c0.1-2.3,1.3-4.1,2.4-6c0.3-0.5,0.4-1,0.3-1.6c0.1-0.3,0.4-0.6,0.7-0.8C18.2,177.3,18.6,177.5,18.7,177.8z
			"/>
		<path class="st61" d="M214.6,31.3l-6.1-2.1c-0.3-0.3-0.7-0.5-1.1-0.8v0.1c-0.5-2.8,1.8-3.8,3.4-5.1c7.7-6.4,16-12.2,23.6-18.8
			c3.7-3.2,7.6-4.7,12.4-3.8c1.9,2.8-0.7,3.9-2.2,5.1c-8.1,6.7-16.3,13.2-24.5,19.7C218,27,216.1,29,214.6,31.3z"/>
		<path class="st62" d="M247,1.1c-6.4-1.4-10,3.2-14.2,6.6c-7.1,5.7-14.4,11.3-21.6,16.8c-1.5,1-2.8,2.4-3.8,4
			c-1.4,0-2.8-0.4-3.9-1.2c-2.9-1.9-1.3-3.7,0.3-5.2c2.1-2.1,4.8-3.5,6.8-5.8l0,0c0.5-0.6,1.4-0.4,2-0.9c0.3-0.1,0.6-0.2,0.9-0.2
			c0.4-0.2,0.8-0.5,1.1-0.8l6-2.2c0.9-0.6,0.5-1.7,1-2.4c3-3.7,6.9-6.7,11.2-8.7c5-0.9,10.1-1.2,15.1-0.9C248.1,1,247.8,1.4,247,1.1
			z"/>
		<path class="st63" d="M277.5,28.4c3.7-0.9,7-3,10.9-3.1c1.2,1.4,0.3,2.7-0.6,3.5c-7.2,6-13.3,13.1-20.7,18.8l-8.9-3.2
			c1.5-3.3,4.3-5,6.1-7.5c0.1-0.4,0.3-0.8,0.7-0.9c1-0.8,1.9-1.6,2.7-2.5c0.3-0.3,0.7-0.4,1.1-0.5c1.1-0.3,1.5-1.3,2.4-1.8l1.2-0.4
			c0.8-0.7,1.7-1.3,2.6-1.7C275.8,28.6,276.7,28.8,277.5,28.4z"/>
		<path class="st53" d="M134.2,192.8c-6.6,6.1-13.1,12.2-19.9,18.1c-3.4,3-6.4,6.7-11,8.2c-0.5-5.4,3.6-8.7,5.8-12.9
			c1-1.6,2.1-3.2,3.4-4.6c4.6-2.9,8.6-6.6,12.7-10.2c1.3-1.1,2.3-3,4.5-2.4l0.1,0.1c0.4,0.2,0.7,0.5,1,0.9l0,0
			c0.3,0.4,0.7,0.7,1.1,1L134.2,192.8z"/>
		<path class="st64" d="M267,47.6c4.7-6.9,11.5-11.7,17.5-17.3c1.5-1.5,3.6-2.5,3.8-4.9c3.9-1.3,8-2,12.1-1.9
			c-7.5,6.9-15.1,13.8-22.4,20.9c-2,1.9-5.2,2.6-5.8,5.9l-4.1-2C267.8,48.1,267.4,47.8,267,47.6L267,47.6z"/>
		<path class="st65" d="M197.1,508.3c-10-2-26.4-9.8-34.4-16.7c9-2,16.4,1.2,23.7,5.2c0.3-0.2,0.7-0.2,1-0.1
			c0.8,0.7,1.6,1.5,2.3,2.3c0.1,0.3,0.1,0.7-0.2,1c0.7,5.2,5.4,5.5,8.9,7.2C198.5,508.3,198.1,508.6,197.1,508.3z"/>
		<path class="st66" d="M150,28.2c-2,5.2-7.2,7.2-11,10.4c-12.2,10.1-24.8,19.7-37.3,29.5c-1.6,1.3-3.1,2.5-5.3,2.6l9.2-10
			c4.8-5.7,11.1-9.6,16.7-14.3c7.1-5.8,14.1-11.8,21.6-17.1c0.3,0,0.6,0,0.9,0c0.6-0.5,1.5-0.3,2.1-0.9L150,28.2z"/>
		<path class="st67" d="M144,29.3c-5.8,7.3-13.9,12-20.9,17.9c-5.6,4.7-11,9.8-17.5,13.4c0-1.3,0-2.7,0-4c-1.2-2.5,1-3.1,2.4-4.2
			c8.4-6.7,16.8-13.1,24.9-20.1c0.3-0.1,0.6-0.1,0.9,0c0.4-0.3,0.8-0.6,1.1-0.9L144,29.3z"/>
		<path class="st68" d="M59.2,139.3c-5.3,6.5-12.5,10.7-18.9,16c-5.3,4.4-10.1,9.6-16.5,12.5c-0.7-0.9-0.2-1.7,0.1-2.6
			c0.2-0.4,0.4-0.8,0.6-1.2c1.2-1.9,2.1-4.2,4.4-5.3l3.1-4c6.1-4.4,11.7-9.3,17.6-14c2-1.6,3.9-3.2,6.7-2.3
			C57.3,138.4,58.4,138.3,59.2,139.3z"/>
		<path class="st69" d="M203.6,5.2c-11,4.5-20.8,12.3-33.3,13.1c-0.6,0.5-1.5,0.3-2.1,0.8l-2,0.2c-1.5-3.9,2.3-4.3,4-6
			c0.3-0.1,0.7-0.1,1-0.1c0.5-0.6,1.5-0.4,2-0.9c9.8-3.7,20-6.4,30.3-8c0.3,0.2,0.5,0.4,0.4,0.7S203.7,5.2,203.6,5.2z"/>
		<path class="st70" d="M247,1.1l1-0.9h6.1c-2.3,4.7-7.2,6.6-10.9,9.7c-7.2,6.2-14.8,11.8-22.2,17.7c-1.2,1.1-2.3,2.4-3.3,3.7
			c-0.6,0.6-1.5,0.6-2.2,0.1c-0.3,0-0.6,0-0.9-0.2c-1.5-2,0.1-2.8,1.4-3.9c9.6-7.7,19.1-15.5,28.8-23.2C246,3.3,247,2.6,247,1.1z"/>
		<path class="st71" d="M132.9,32.4c-1.2,4.7-5.7,6.2-8.9,8.8c-5.8,4.7-11.2,9.8-17.6,13.7c-0.5,0.3-0.5,1.2-0.8,1.7
			c-1.3-1.1-0.9-2.6-1-4c-1.7-2.4,0.2-3.6,1.6-5.1c2.9-3.1,7-4.7,9.6-8.1C121.2,36.5,126.7,33.7,132.9,32.4z"/>
		<path class="st66" d="M86.4,77.9c-0.9,5.1-5.6,6.7-8.9,9.4c-5.2,4.3-10.6,8.5-15.9,12.8c-1.3,1.1-2.6,2.1-4.4,1.9
			c3.7-7.5,9.4-13.3,15.4-18.8c0.7-0.6,1.9-1.5,2.5-1.3C79.8,83.2,82.8,79.6,86.4,77.9z"/>
		<path class="st20" d="M161.1,207.2c3.8-5.4,8.9-9.6,13.8-13.9c1.9-1.6,3.4-4.3,6.4-4.4c0.6,0.5,0.6,1.3,0.1,1.9
			c0,0-0.1,0.1-0.1,0.1c-1,4-1.4,8-1.2,12.1c-2.2-2.5-4.1-2.2-6.2,0.4c-2,2.4-4.3,4.7-6.7,6.6C165,209.6,162.9,208.6,161.1,207.2z"
			/>
		<path class="st72" d="M28.8,154.6l-0.3,1c-0.2,0.4-0.4,0.7-0.8,0.9l0,0c-0.3,0.4-0.5,0.9-0.5,1.5c0,0.4-0.1,0.7-0.2,1.1
			c-0.2,0.5-0.4,1.1-0.5,1.7c-0.5,1.2-1.5,2-2,3.2c-0.2,0.4-0.4,0.8-0.6,1.2c-0.9,1.8-2.2,3.4-2.8,5.4c-0.6,0.7-1,1.5-1.3,2.4
			c-1.8,1.3-1.2,4.6-4.2,4.9c-3.5-5.5-1.5-10.9,0.2-16.3c0.2-0.3,0.5-0.7,0.8-1l0,0c2.4-3.3,6.1-5.2,9.2-7.7
			c1.1-0.9,2.7-1.6,4.1-0.3l-0.3,1C29.4,154,29.1,154.3,28.8,154.6z"/>
		<path class="st6" d="M410.6,52.6c-1.5,0-2.4,1-3.4,1.9c-10.8,10.1-21.4,20.3-32.3,30.2c-9.5,8.7-19.2,17.2-28.8,25.8
			c-0.4,0.5-0.8,1-1.2,1.6l-1.1-0.9c5.6-5.5,11.2-11,16.9-16.4c5.5-5.1,11.3-9.9,16.9-15c9.7-8.9,19.4-18,29.1-27
			c0.7-0.8,1.6-1.2,2.6-1.3L410.6,52.6z"/>
		<path class="st26" d="M313.6,99.2c-9.9-0.1-13.2,9.7-20.4,13.7c-0.7,0.4-1.4,0.9-2.1,1.4c-2.7-9.7,0.8-14.6,10.5-14.8L313.6,99.2z
			"/>
		<path class="st73" d="M94.5,65.8c-3.4,4.4-6.8,8.8-11.6,11.6c-1.3,0.8-4.4,4.4-4.8-1.1c-0.1-1.4-1.4-1.1-2.3-0.7
			c-1.6,0.7-3.3,1.2-5.1,1.6c3.8-3.6,6.7-8.4,13-8.6c3.5-0.1,6.6-2.2,9.7-3.9C94.5,64.3,94.8,64.8,94.5,65.8z"/>
		<path class="st74" d="M41,133.5c-0.5,2.8-2.2,4.9-3.9,7c-4.3,2.9-8,6.5-12.3,9.5c-1.4,1-2.6,2.9-4.8,1.6c1.7-3.8,3.2-7.8,5.8-11.1
			c3.8-3.7,7.6-7.4,12.2-10.1c1.1-0.6,2.8-3,4,0.1c0,0.3,0,0.7-0.1,1C41.3,131.9,41.5,132.9,41,133.5z"/>
		<path class="st57" d="M92.5,292.9c-3.7,0.9-6.1,3.7-8.7,6.2c-2.4,2.3-4.3,5.1-7.8,5.9c1.3-5.9,4.3-11.1,6.9-16.5
			c1.7-3.6,3.6-3.2,5.9-0.8C90.2,289.3,91.8,290.8,92.5,292.9z"/>
		<path class="st75" d="M167.2,210c1.8-4.7,5.8-7.8,9.5-10.5c4.4-3.1,1.2,3.2,3.4,3.4c0.3,1.3,0.5,2.6,0.5,3.9
			c-0.2,5.4-3.4,7.3-8.5,5.1c-0.6-0.6-1.5-0.3-2.1-0.9h-0.5l-0.5-0.2c-0.4-0.3-0.8-0.6-1.3-0.7h-0.4L167.2,210z"/>
		<path class="st34" d="M20,151.6c4.8-2.1,8.2-6,12.2-9.1c1.5-1.1,2.8-2.3,4.8-2c-0.1,0.3-0.2,0.7-0.3,1c-0.3,0.3-0.5,0.7-0.8,1
			l-0.3,1c-0.2,0.4-0.5,0.7-0.8,0.9l0,0c-0.4,0.3-0.7,0.8-0.9,1.2c-0.9,2.6-1.8,5.1-4,6.9c-5.6,0.8-8.2,6.6-13.4,8
			C16.7,157.2,19,154.6,20,151.6z"/>
		<path class="st51" d="M370.3,27.3c-4.3,3.8-9.3,7.1-11,13.1c0.1-3-0.3-6.1-1.2-9c-0.3-0.3-0.5-0.6-0.7-1l-2.3-2.3
			c-0.4-0.2-0.7-0.4-1-0.7l0,0c-0.2-2.4,0.3-4.2,3.2-4.2l1.8,0.3c0.7,0.4,1.5,0.2,2.1,0.7c0.3-0.1,0.7,0,0.9,0.2
			c0.7,0.5,1.5,0.4,2.2,0.8C366.4,25.3,368.5,26,370.3,27.3z"/>
		<path class="st76" d="M56.2,138.4c-6.5,2.1-10.5,7.8-16,11.4c-2.7,1.8-4.6,4.9-8.3,4.9c3.1-5.1,6.9-9.8,11.2-13.9
			C47,136.9,51.3,136.2,56.2,138.4z"/>
		<path class="st77" d="M32,129.3l10.1-16.2c0.3-0.3,0.6-0.7,0.9-1l0,0c0.4-0.3,0.7-0.7,1-1.1c0-0.3,0.1-0.6,0.2-0.9
			c0.3-0.3,0.6-0.7,0.9-1c0.4-0.3,0.7-0.7,1-1.1l0,0c1.2-0.5,2.2-0.8,2.2,1.1c0,0.3,0,0.6-0.1,0.9c-0.4,0.3-0.7,0.7-0.9,1.1
			c0,0.3,0,0.6-0.1,0.9c-0.6,0.6-0.4,1.5-0.9,2.1c-0.5,2.7-0.6,5.6-2,8.1c-2.2,2-4.4,3.9-6.8,5.6C35.7,129.1,34.2,130.7,32,129.3z"
			/>
		<path class="st78" d="M32,129.3c4.2-0.6,6.3-4.5,9.7-6.3c0.7-0.4,1.1-1.9,2.3-0.7l-0.1,2c-0.5,0.6-0.4,1.5-0.8,2.1
			c-0.1,1.4,0.3,2.9-1,4c-5.6,0-7.9,5.3-12.1,7.5c-1.4,0.8-2.2,2.6-4.1,2.5C27.6,136.6,29.4,132.7,32,129.3z"/>
		<path class="st19" d="M129.7,189c-3.9,3.4-7.8,6.7-11.6,10.2c-1.4,1.5-3.2,2.4-5.1,2.8l-0.6-0.3c0.1-0.6,0.4-1.2,0.8-1.7
			c0.4-0.8,0.8-1.5,1.3-2.2c1.4-1.6,2.3-3.6,3.9-5c0.6-1.6,1.8-3,3.3-3.9C124.4,184.3,127.1,185.4,129.7,189z"/>
		<path class="st79" d="M115.7,39.5c-1.2,4.8-6.2,5.7-8.9,9.1c-1,1.3-2.5,2.1-2.3,4.1l-11,6c-1,0.3-1.3-0.1-1-1.1
			C99.5,50.6,106.8,44.1,115.7,39.5z"/>
		<path class="st36" d="M210.6,16.2c-0.3,2.9-2.7,4-4.7,5.5c-1.7,1.3-4.3,2.6-2.4,5.6l-10.8-3.8C198.5,20.5,204.5,18.1,210.6,16.2z"
			/>
		<path class="st80" d="M170.2,13.3c-1,2.2-4,3.1-4,6c-5.2,2-10.6,3.3-16.1,4c-1.1,0.5-2.1,0.9-2-1
			C155.4,19.2,162.5,15.5,170.2,13.3z"/>
		<path class="st81" d="M357.3,23.2l-3.2,4.2l-5.1-2.1c-0.7-0.5-1.6-0.4-2.3-0.8l-1.8-0.3c-0.6-0.4-1.5-0.2-2-0.8l-1-0.2
			c-0.6-0.4-1.5-0.3-2-0.8l0,0c-1.1-1.5-0.3-2.3,1-2.9l5.1,0.1c0.4,0.2,0.8,0.4,1.3,0.6l1.8,0.3c0.5,0.2,0.8,0.6,1.4,0.6
			C352.8,21.2,355.2,21.9,357.3,23.2z"/>
		<path class="st20" d="M204.7,181.8c-3.7-0.4-6.4,0.5-8.8,3.9s-5.9,5.2-9.3,7.2C188.8,183.3,195.4,179.2,204.7,181.8z"/>
		<path class="st82" d="M232.8,1.1l-11,9.1c-1.4-1.4,0.4-4.2-2.2-5c-0.3,0-0.6,0-0.9-0.1c-0.8-0.8-0.8-2,0-2.8c0,0,0,0,0,0l2-0.1
			c1.9-1.1,4.2,0.2,6.1-0.9L232.8,1.1z"/>
		<path class="st83" d="M96.4,450.7c-4.7-5.2-10.1-9.7-15.9-13.4c-0.2-1-0.1-1.5,1.1-1.1c3.8-0.6,6.2,1.8,8.4,4.3s4.5,5.3,6.8,7.9
			c0.2,0.1,0.3,0.4,0.1,0.7c0,0.1-0.1,0.1-0.2,0.2L96.4,450.7z"/>
		<path class="st84" d="M48.1,109.2c-0.4-0.8-1.3-1.2-2.2-1.1c0.9-3.2,3.6-5.2,5.2-8c0.9-0.2,1.4,0,1,1.1
			C51.2,104,49.8,106.7,48.1,109.2z"/>
		<path class="st85" d="M56.2,93c2.9-3.5,5.1-7.6,9-10.2l0,0c-1.9,4.3-5.3,7.4-8.1,11.1C56.7,93.8,56.3,93.4,56.2,93z"/>
		<path class="st86" d="M197.1,508.3l1.4-1l11.3,2.8c-1,0.2-2.3-0.2-3.1,0.9C203.3,510.6,200.1,509.7,197.1,508.3z"/>
		<path class="st77" d="M55.1,106.1c3.1,0.8,4.2-3,7-3c-2.2,3.6-5.9,5.6-9.1,8.1C53.2,109.2,54.3,107.7,55.1,106.1z"/>
		<path class="st87" d="M11.7,183.9c-2-2.6-0.6-4.9,0.6-7.8C14,179.2,15.1,181.7,11.7,183.9L11.7,183.9z"/>
		<path class="st88" d="M218.7,2.1V5l-9.1-1c-0.3-0.2-0.4-0.3-0.3-0.5s0.2-0.2,0.3-0.2C212.6,2.7,215.6,1.6,218.7,2.1z"/>
		<path class="st89" d="M340.9,19.4l-1,2.9c-2.3,0-4-1.4-6-2.9H340.9z"/>
		<path class="st90" d="M467.5,337.6c-1.6,1.8-3.2,3.7-5.4,4.9l-1.2-1.1c1.4-2,3.2-3.7,5.2-5L467.5,337.6z"/>
		<path class="st91" d="M56.2,93l1,1c-1.9,2.2-2.5,5.3-5,7.2c-0.4-0.4-0.7-0.7-1-1.1L56.2,93z"/>
		<path class="st92" d="M26.7,158.6c0.1-0.3,0.2-0.6,0.2-0.9c0.2-0.3,0.5-0.4,0.8-0.2c0.1,0,0.1,0.1,0.1,0.1l1,1
			c-1,2.3-2.3,4.3-4,6.2c-0.4-0.2-0.7-0.6-0.9-1l1.8-4.1C26.1,159.4,26.4,159,26.7,158.6z"/>
		<path class="st34" d="M50,133.2v-0.9c1.9-0.7,2.7-3.1,5-3c0.8,1.6-3.1,2.1-1,4c0,0.3,0,0.6,0,0.8L50,133.2z"/>
		<path class="st46" d="M299.5,95.8c3.5-1.3,7.4-1.3,11-0.1L299.5,95.8z"/>
		<path class="st93" d="M15.7,177.9c1.9-1.3,1.7-4.1,3.9-5.2c0.3-0.4,0.6-0.5,1,0l-0.8,2.1c-0.3,0.2-0.6,0.6-0.8,0.9l-0.2,1
			c-0.3,0.3-0.6,0.7-0.8,1.1c-0.1,0.3-0.2,0.6-0.2,0.9c-0.2,0.3-0.5,0.4-0.8,0.2c-0.1-0.1-0.2-0.1-0.2-0.2L15.7,177.9z"/>
		<path class="st94" d="M69.3,428.3c-1.3-0.6-2.5-1.6-3.2-2.9l1.2-1.3c1.3,0.8,2.3,1.9,2.9,3.2C70,427.7,69.6,428,69.3,428.3z"/>
		<path class="st95" d="M462.2,124.1c1,1.2,1.6,2.7,1.9,4.2l-1.1,2.2c-0.7-1.8-1.4-3.6-2.1-5.3c0.1-0.2,0.2-0.4,0.2-0.5
			C461.4,124.4,461.8,124.2,462.2,124.1z"/>
		<path class="st88" d="M219.6,5.1c3.4,0.5,1.6,3.3,2.2,5c-0.1,0.8-0.3,1.6-1.2,2C220.9,9.7,221.4,7.3,219.6,5.1z"/>
		<path class="st91" d="M94.5,65.8l-1.1-1.2l4.1-3c0.3,0.2,0.4,0.5,0.3,0.7s-0.2,0.4-0.3,0.4C96.8,64,95.8,65,94.5,65.8z"/>
		<path class="st96" d="M165.2,25.3c-0.9,1.6-2,3-4,3c-0.2-1.5,1.3-1.9,2-2.9L165.2,25.3z"/>
		<path class="st97" d="M313.5,510c-1.2,1.6-2.9,1.9-4,0.4c-0.5-0.7,1.2-1.2,2.2-1.2C312.2,509.7,313,509.6,313.5,510z"/>
		<path class="st98" d="M92.5,57.6l1,1.1c-1,1.1-2.3,1.9-3.7,2.2C89.9,59,91.2,58.4,92.5,57.6z"/>
		<path class="st52" d="M209.6,3.2V4l-6,1.3c0-0.3,0-0.7,0-1L209.6,3.2z"/>
		<path class="st99" d="M148.1,22.3c0.4,0.8,1.2,0.9,2,1c-1.2,1.3-2.7,1.2-4.3,0.6C146.2,22.8,147.2,22.7,148.1,22.3z"/>
		<path class="st100" d="M460.2,119c1,1.2,1.6,2.7,1.8,4.3c-0.2,0.3-0.6,0.5-0.9,0.6c-0.4,0-0.7-0.2-1-0.5l-0.9-3.1L460.2,119z"/>
		<path class="st88" d="M226.8,1.2c-1.9,1.6-4,0.6-6.1,0.9C222.5,0.5,224.7,1.3,226.8,1.2z"/>
		<path class="st101" d="M117.6,273.8l1.3,2.9h-1l-2.1-3.1c-0.3-0.8,0-1,0.8-0.8l0.2-0.1C117,273.1,117.3,273.4,117.6,273.8z"/>
		<path class="st102" d="M499.4,332.2l0.9,2c-0.3,1-0.6,2.1-1,3.1c-1,0.1-1.5-0.3-1-1.4C498.2,334.7,498.6,333.3,499.4,332.2z"/>
		<path class="st103" d="M498.3,336l1,1.4l-1.7,4.5c-0.6-0.5-0.8-1.4-0.4-2.1C497.2,338.5,497.5,337.1,498.3,336z"/>
		<path class="st104" d="M159,496.1l1-1c1.2,0.3,2.3,1.1,3,2.2l0,0.5C161.8,497.1,160.1,497.3,159,496.1z"/>
		<path class="st105" d="M412.9,435.5l-4.3,1.7c-0.4-0.2-0.5-0.7-0.2-1c0.1-0.1,0.1-0.2,0.2-0.2c0.9-0.8,2-1.3,3.2-1.4L412.9,435.5z
			"/>
		<path class="st31" d="M173.3,218.4c-1-0.3-2.2,0-3-1l6-0.1C175.5,218.4,174.3,218.2,173.3,218.4z"/>
		<path class="st106" d="M497.3,339.8c0.1,0.7,0.3,1.4,0.4,2.1c-0.1,1-0.1,2.1-1.1,2.9c-0.7-0.1-0.7-0.8-1-1.3L497.3,339.8z"/>
		<path class="st107" d="M348.8,232.6l-1.7-3.3c0.3-0.3,0.8-0.3,1.1,0c0.9,0.3,1.6,1,1.8,2L348.8,232.6z"/>
		<path class="st108" d="M495.7,343.5l1,1.3c-0.1,1-0.1,2.1-1.1,2.8l-1-1.1L495.7,343.5z"/>
		<path class="st109" d="M502.6,196.9h1.8c0.1,1.1-0.2,2.3-1.2,2.3C501.9,199.1,502.6,197.8,502.6,196.9z"/>
		<path class="st17" d="M214.8,199.3c-0.1-0.8-0.1-1.5-0.2-2.3c0.1-1.1,0.1-2.2,0.2-3.2C215.8,195.5,215.9,197.6,214.8,199.3z"/>
		<path class="st101" d="M417.6,145.5l-1.9-1.1l1-0.9c0.2-0.3,0.6-0.4,0.8-0.2c0.1,0,0.1,0.1,0.2,0.2l0,0c0.3,0.3,0.7,0.6,1.1,0.8
			l-0.1,0.4L417.6,145.5z"/>
		<path class="st47" d="M109.6,304.3c-1.1,1.1-2.9,1.1-4,0H109.6z"/>
		<path class="st110" d="M277.5,28.4l-2,1c-1.2,0.5-1.3-0.1-1.2-1l2-1L277.5,28.4z"/>
		<path class="st15" d="M302.5,124.3c1.1,0,2.2-0.2,3,0.7C304.4,125.3,303.3,125,302.5,124.3z"/>
		<path class="st111" d="M509.7,282c0.1-0.9,0.5-1.8,1.3-1.4s0.2,1-0.5,1.3c-0.1,0.3-0.4,0.4-0.7,0.3
			C509.8,282.1,509.7,282,509.7,282z"/>
		<path class="st96" d="M168.2,25.3h-2.1c0.8-1,1.9-1,3.1-0.8L168.2,25.3z"/>
		<path class="st112" d="M421.8,455.6c-0.4,0.9-1.1,1.5-2,1.8c-0.3-0.2-0.4-0.3-0.3-0.5s0.1-0.3,0.2-0.3l0.9-1
			C420.9,455.2,421.4,455.2,421.8,455.6C421.8,455.6,421.8,455.6,421.8,455.6z"/>
		<path class="st113" d="M97.5,62.7v-1.1c0.3-0.5,0.9-1.2,1.3-0.4S98.2,62.4,97.5,62.7z"/>
		<path class="st12" d="M75.3,356.6l-0.1,2.1c-0.7-0.8-1-2-0.8-3.1L75.3,356.6z"/>
		<path class="st114" d="M313.5,510c-0.7,0-1.5,0.1-1.8-0.8C312.4,509.2,313.3,508.9,313.5,510z"/>
		<path class="st46" d="M286.4,106.3l-0.1-2.2h0.8L286.4,106.3z"/>
		<path class="st115" d="M165,498l1.4,0.3C165.6,499.3,165.4,498.3,165,498L165,498z"/>
		<path class="st15" d="M324.8,107.1c0.4-0.8,1.3-1.2,2.1-1L324.8,107.1z"/>
		<path class="st116" d="M163.2,497.7l0-0.5c0.7-0.3,1.6,0.1,1.9,0.8l0-0.1L163.2,497.7z"/>
		<path class="st101" d="M186.9,497.1c-0.2,0.1-0.4,0-0.5-0.2c0,0,0-0.1,0-0.1l0.8-0.8l1,1C187.9,497.3,187.4,497.3,186.9,497.1z"/>
		<path class="st61" d="M215.5,31.4l2.2-0.1c0,0.3,0,0.6,0,0.9C216.9,32.4,216,32.1,215.5,31.4z"/>
		<path class="st117" d="M419.6,456.5c0.2,0.2,0.2,0.5,0.1,0.8l-0.6,0.7C418.6,457.3,419,456.9,419.6,456.5z"/>
		<path class="st118" d="M421.8,455.6l-1.2-0.1l0.9-1c0.3-0.2,0.7-0.3,1.1-0.2l0.2,0.3L421.8,455.6z"/>
		<path class="st119" d="M419.6,448.5l-1.1-0.1c0.2-0.7,0.7-1,1.3-0.7S420,448.3,419.6,448.5z"/>
		<path class="st15" d="M320.7,112.1c-0.1-0.8,0.3-1.6,1-2L320.7,112.1z"/>
		<path class="st8" d="M85.2,363.7c0.8-0.2,1.6,0.1,2.2,0.8C86.6,364.7,85.7,364.4,85.2,363.7z"/>
		<path class="st6" d="M79.3,361.7c0.8-0.1,1.5,0.2,2,0.9C80.5,362.6,79.7,362.3,79.3,361.7z"/>
		<path class="st84" d="M46,114.2c-0.1-0.8,0.2-1.6,0.9-2.1C47.1,113,46.7,113.8,46,114.2z"/>
		<path class="st46" d="M292.4,98c0.4-0.7,1.2-1.1,2-1L292.4,98z"/>
		<path class="st17" d="M101.5,303.1c-0.8,0.1-1.6-0.4-1.9-1.1L101.5,303.1z"/>
		<path class="st1" d="M5.6,304H4.8c0-0.4,0.1-0.8,0.2-1.2C5.8,302.9,5.5,303.6,5.6,304z"/>
		<path class="st101" d="M248,255.3l2,0.5l-1,0.8h-0.5l-0.4-0.2c-0.2-0.2-0.3-0.5-0.2-0.7C247.9,255.4,247.9,255.3,248,255.3z"/>
		<path class="st67" d="M147,28.4c-0.5,0.7-1.3,1-2.1,0.9C145.3,28.6,146.2,28.3,147,28.4z"/>
		<path class="st15" d="M318.8,117.4c-0.2-0.8,0.2-1.7,0.9-2.1C319.8,116,319.5,116.9,318.8,117.4z"/>
		<path class="st46" d="M295.5,96.8l2.1-0.8L295.5,96.8z"/>
		<path class="st89" d="M346.7,24.4c0.8-0.2,1.8,0.1,2.3,0.8C348.1,25.4,347.2,25.1,346.7,24.4z"/>
		<path class="st81" d="M361.2,24.2c-0.8,0.2-1.6-0.1-2.1-0.7C359.9,23.3,360.7,23.6,361.2,24.2z"/>
		<path class="st120" d="M224.8,246.4c-0.8,0.1-1.6-0.3-2-1l1.9-0.1l0.5,0.5L224.8,246.4z"/>
		<path class="st80" d="M173.2,12.2c-0.4,0.7-1.2,1-2,0.9C171.7,12.5,172.5,12.1,173.2,12.2z"/>
		<path class="st53" d="M318.5,27.4c-0.8,0-1.5-0.4-1.9-1.1C317.5,26.3,318.2,26.7,318.5,27.4z"/>
		<path class="st36" d="M212.6,15.3c-0.4,0.7-1.2,1-2,0.9C211,15.5,211.8,15.2,212.6,15.3z"/>
		<path class="st20" d="M170.1,211.2c0.8-0.1,1.6,0.2,2.1,0.9C171.4,212.2,170.6,211.8,170.1,211.2z"/>
		<path class="st80" d="M168.2,19.1c0.5-0.7,1.3-1,2.1-0.8C169.9,18.9,169,19.3,168.2,19.1z"/>
		<path class="st66" d="M96.5,70.7c-0.4,0.7-1.1,1.2-1.9,1.1C94.9,71.1,95.7,70.6,96.5,70.7z"/>
		<path class="st89" d="M342.9,23.3l2,0.8L342.9,23.3z"/>
		<path class="st35" d="M181.3,190.9v-2l0,0l0.5-0.3l0.5,0.3L181.3,190.9z"/>
		<path class="st35" d="M182.2,188l1.1-1.1l-1.1,2l-0.1-0.1l-0.2-0.4L182.2,188z"/>
		<path class="st77" d="M43,126.5c-0.2-0.8,0.1-1.7,0.8-2.1C44,125.1,43.7,125.9,43,126.5z"/>
		<path class="st35" d="M193.5,177.8l2.1,0.1l-2.1,0.8c-0.2-0.2-0.3-0.4-0.2-0.6S193.4,177.8,193.5,177.8L193.5,177.8z"/>
		<path class="st68" d="M62.2,140.4c-0.8,0.1-1.6-0.3-2-0.9C61,139.4,61.7,139.8,62.2,140.4z"/>
		<path class="st89" d="M339.9,22.3c0.8-0.1,1.5,0.2,2,0.8C341.1,23.2,340.3,22.9,339.9,22.3z"/>
		<path class="st81" d="M364.4,25.2c-0.8,0.2-1.7-0.1-2.2-0.8C363,24.3,363.8,24.6,364.4,25.2z"/>
		<path class="st36" d="M61.1,136.4h1l1,1C62.3,137.5,61.6,137.1,61.1,136.4z"/>
		<path class="st48" d="M56,134.4h2.1v0.9C57.3,135.5,56.5,135.1,56,134.4z"/>
		<path class="st78" d="M41,133.5c-0.1-0.8,0.2-1.6,0.9-2.1C42,132.2,41.6,133,41,133.5z"/>
		<path class="st121" d="M66.2,81.8l-1,1l0,0L66.2,81.8z"/>
		<path class="st46" d="M308.6,82.9l-1-0.9L308.6,82.9z"/>
		<path class="st45" d="M68.2,139.4v0.9l-1-0.9l0.1-0.1C67.6,139,67.9,139,68.2,139.4z"/>
		<path class="st122" d="M67.2,80.8l-1,1l0,0L67.2,80.8z"/>
		<path class="st74" d="M35.9,142.5l0.8-1L35.9,142.5z"/>
		<path class="st46" d="M309.6,83.9l-1-1L309.6,83.9z"/>
		<path class="st0" d="M417.7,143.5h-1c-0.1-0.3-0.2-0.6-0.3-0.9L417.7,143.5z"/>
		<path class="st74" d="M34.9,144.5l0.8-0.9L34.9,144.5z"/>
		<path class="st74" d="M33.9,145.7l0.9-1.2L33.9,145.7z"/>
		<path class="st122" d="M68.2,79.8c-0.3,0.3-0.7,0.7-1,1l0,0L68.2,79.8z"/>
		<path class="st38" d="M72.3,144.5l0.9,1.1L72.3,144.5z"/>
		<path class="st60" d="M69,146.5l-0.8-1.1L69,146.5z"/>
		<path class="st51" d="M313.5,78.9l1,1.3L313.5,78.9z"/>
		<path class="st38" d="M68.3,151.7c0.2-0.4,0.5-0.7,0.7-1.1C68.7,151,68.5,151.3,68.3,151.7z"/>
		<path class="st38" d="M67.3,153.7c0.2-0.4,0.5-0.8,0.8-1.1C67.8,153,67.5,153.4,67.3,153.7z"/>
		<path class="st34" d="M28.8,154.6l0.8-1L28.8,154.6z"/>
		<path class="st34" d="M27.8,156.6l0.8-0.9L27.8,156.6z"/>
		<path class="st34" d="M27.8,157.6l-0.9,0.2l0.9-1.2C27.8,156.9,27.8,157.3,27.8,157.6z"/>
		<path class="st122" d="M68.2,79.8l0.4-0.5c0,0.1,0,0.2-0.1,0.3C68.5,79.7,68.3,79.8,68.2,79.8L68.2,79.8z"/>
		<path class="st34" d="M16.7,160.6l-0.8,1L16.7,160.6z"/>
		<path class="st29" d="M303.9,78.7l-1.3-1L303.9,78.7z"/>
		<path class="st11" d="M139.9,169.6l-1,1.1L139.9,169.6z"/>
		<path class="st20" d="M193.4,177.8c0,0.3,0,0.6,0,0.9l-0.9,0.3L193.4,177.8z"/>
		<path class="st72" d="M16.7,178.8c0.3,0,0.7,0,1,0l-0.9,1C16.8,179.5,16.7,179.2,16.7,178.8z"/>
		<path class="st35" d="M191.5,179.6l1.1-0.7L191.5,179.6z"/>
		<path class="st35" d="M189.4,180.8l1.3-0.9L189.4,180.8z"/>
		<path class="st35" d="M188.5,181.5l0.9-0.7L188.5,181.5z"/>
		<path class="st66" d="M88.4,76.8l-1.1,1L88.4,76.8z"/>
		<path class="st35" d="M185.5,184.2l1.1-1.3L185.5,184.2z"/>
		<path class="st23" d="M177.3,22.3l-1.1,0.9L177.3,22.3z"/>
		<path class="st59" d="M211.3,185.9l-0.8-0.8L211.3,185.9z"/>
		<path class="st35" d="M183.4,186.9l0.8-1L183.4,186.9z"/>
		<path class="st41" d="M132.7,187l1,1.1L132.7,187z"/>
		<path class="st14" d="M297.3,122.3l1.1,0.7L297.3,122.3z"/>
		<path class="st66" d="M89.4,75.9l-1,0.9L89.4,75.9z"/>
		<path class="st19" d="M130.8,189.9l-1-0.9L130.8,189.9z"/>
		<path class="st66" d="M92.4,73.8l-1.1,1L92.4,73.8z"/>
		<path class="st19" d="M132,190.9l-1.1-1L132,190.9z"/>
		<path class="st66" d="M93.5,72.8l-1,1L93.5,72.8z"/>
		<path class="st53" d="M135.6,194c-0.3-0.1-0.5-0.4-0.7-0.6L135.6,194z"/>
		<path class="st66" d="M94.5,71.9l-1,0.9L94.5,71.9z"/>
		<path class="st58" d="M139.1,196.9l-1.2-1L139.1,196.9z"/>
		<path class="st17" d="M290.5,122.2l-1-1.2C289.8,121.5,290.2,121.8,290.5,122.2z"/>
		<path class="st89" d="M350.4,21.1l-1.4-0.6L350.4,21.1z"/>
		<path class="st89" d="M347.3,20.1l-1.3-0.6L347.3,20.1z"/>
		<path class="st5" d="M151.9,202.1l1.1,0.8L151.9,202.1z"/>
		<path class="st56" d="M298.4,65.8l1.1,0.9L298.4,65.8z"/>
		<path class="st5" d="M149.2,205l-1.2-0.9L149.2,205z"/>
		<path class="st35" d="M158.9,206.2l1.2,0.7L158.9,206.2z"/>
		<path class="st20" d="M167.9,210.3l1.3,0.7L167.9,210.3z"/>
		<path class="st4" d="M294,62.8l1.4,0.9L294,62.8z"/>
		<path class="st0" d="M340.6,222.4l1.3,1L340.6,222.4z"/>
		<path class="st101" d="M342,224.1c0.3,0,0.6,0.1,0.9,0.2c0.3,0.9,0,1.3-1,1l0.1-0.2V224.1z"/>
		<path class="st36" d="M214.6,14.4l-1.1,0.8L214.6,14.4z"/>
		<path class="st37" d="M192.4,13.3l-1.1,0.9L192.4,13.3z"/>
		<path class="st9" d="M198.7,231.3l-1.1-1L198.7,231.3z"/>
		<path class="st66" d="M57.1,102.9l-0.9,1.2L57.1,102.9z"/>
		<path class="st12" d="M205.5,232.4l1.1,0.9L205.5,232.4z"/>
		<path class="st25" d="M279.3,59.6c0-0.3,0-0.6-0.1-0.9l1.1,0.9L279.3,59.6z"/>
		<path class="st32" d="M202.4,234.4l-0.8-0.7L202.4,234.4z"/>
		<path class="st12" d="M206.8,233.3l0.8,0.6L206.8,233.3z"/>
		<path class="st32" d="M203.7,235.4l-1.1-0.9L203.7,235.4z"/>
		<path class="st12" d="M208.4,234.5l1.2,0.9L208.4,234.5z"/>
		<path class="st37" d="M194.4,12.4l-1,0.8L194.4,12.4z"/>
		<path class="st25" d="M279.1,58.7c-0.3-0.1-0.6-0.4-0.8-0.7L279.1,58.7z"/>
		<path class="st2" d="M183.4,91c0.2,0,0.5,0.1,0.7,0.1c0.1,0.3,0.1,0.6,0,0.9L183.4,91z"/>
		<path class="st120" d="M218.7,241.5l1.3,0.8L218.7,241.5z"/>
		<path class="st120" d="M217.7,243.2l-1.1-0.7L217.7,243.2z"/>
		<path class="st120" d="M220.7,242.6l1.1,0.8L220.7,242.6z"/>
		<path class="st120" d="M219.8,244.2l-1.1-0.7L219.8,244.2z"/>
		<path class="st120" d="M222.7,243.8l1.1,0.7L222.7,243.8z"/>
		<path class="st120" d="M221.8,245.2l-1.1-0.7L221.8,245.2z"/>
		<path class="st120" d="M224.7,244.8l1.1,0.7c-0.1,0.3-0.4,0.4-0.7,0.3c-0.1,0-0.2-0.1-0.2-0.2l-0.2-0.3
			C224.6,245.2,224.6,245,224.7,244.8z"/>
		<path class="st27" d="M351.2,118.2l0.9,0.9L351.2,118.2z"/>
		<path class="st6" d="M347.2,114.1l0.8,0.7L347.2,114.1z"/>
		<path class="st81" d="M354.1,27.3c0.3,0.2,0.6,0.5,1,0.7C354.7,27.8,354.4,27.6,354.1,27.3z"/>
		<path class="st19" d="M273.2,55.6c0-0.3,0-0.7,0-1l1.2,0.9L273.2,55.6z"/>
		<path class="st6" d="M413.4,54.6l-0.8-0.6L413.4,54.6z"/>
		<path class="st54" d="M279,53.7l1.3,0.8L279,53.7z"/>
		<path class="st6" d="M411.8,53.5l-1.2-0.9L411.8,53.5z"/>
		<path class="st11" d="M271.5,53.5l-1.3-0.8L271.5,53.5z"/>
		<path class="st123" d="M509.7,282c0.3-0.1,0.6-0.1,0.9-0.1l-0.2,1h-0.3h-0.3C509.6,282.6,509.6,282.2,509.7,282z"/>
		<path class="st123" d="M509.5,283.8l-0.6,1.1L509.5,283.8z"/>
		<path class="st57" d="M93.2,293.9l-0.7-1L93.2,293.9z"/>
		<path class="st63" d="M267,47.6l1.1,0.7L267,47.6z"/>
		<path class="st17" d="M98.5,301l-1-1L98.5,301z"/>
		<path class="st17" d="M99.6,302l-1.1-1L99.6,302z"/>
		<path class="st77" d="M52,114.1l-0.9,1.1L52,114.1z"/>
		<path class="st15" d="M319.8,114.5l0.6-1.3L319.8,114.5z"/>
		<path class="st36" d="M197.5,29.3c0-0.3,0-0.6,0-0.8l1.1,0.8l-0.1,0.2C198.2,29.6,197.8,29.6,197.5,29.3
			C197.5,29.4,197.5,29.4,197.5,29.3z"/>
		<path class="st62" d="M207.5,28.4l1.1,0.8L207.5,28.4z"/>
		<path class="st15" d="M394.8,41.4l-1.3-0.9L394.8,41.4z"/>
		<path class="st6" d="M77.1,360.7l1.2,0.7L77.1,360.7z"/>
		<path class="st84" d="M43,112.2l-0.9,1L43,112.2z"/>
		<path class="st77" d="M53,111.1c-0.3,0.3-0.6,0.7-0.8,1L53,111.1z"/>
		<path class="st124" d="M61.2,415.2l-0.8-0.4C61.2,414.2,61.2,414.7,61.2,415.2L61.2,415.2z"/>
		<path class="st84" d="M43.9,111l-1,1.1L43.9,111z"/>
		<path class="st34" d="M190.4,25.3v-0.8l1,0.8L190.4,25.3z"/>
		<path class="st56" d="M330.8,38.4l-1-0.9L330.8,38.4z"/>
		<path class="st84" d="M47.1,111.3l0.9-1.1L47.1,111.3z"/>
		<path class="st15" d="M321.7,110.2l0.9-1.1L321.7,110.2z"/>
		<path class="st46" d="M291.5,98.8l1-0.8L291.5,98.8z"/>
		<path class="st101" d="M265.1,36.3l-0.8,0.6c0-0.4-0.1-0.8-0.1-1.2l1-0.5c0.2,0.2,0.4,0.5,0.3,0.8
			C265.3,36.2,265.2,36.3,265.1,36.3z"/>
		<path class="st101" d="M396.1,444.3l1.3-1.1c0.4,0.2,0.5,0.7,0.3,1.1c0,0.1-0.1,0.1-0.2,0.2v-0.1L396.1,444.3z"/>
		<path class="st1" d="M96.6,449.2c0-0.3,0-0.5,0.1-0.8l0.8,1C97.2,449.4,96.9,449.3,96.6,449.2z"/>
		<path class="st119" d="M417.8,448.7l-1.1,0.8L417.8,448.7z"/>
		<path class="st38" d="M210.9,34.3l-1.2-0.7L210.9,34.3z"/>
		<path class="st119" d="M418.7,450.5l0.7-1.1C419.1,449.8,418.9,450.1,418.7,450.5z"/>
		<path class="st0" d="M422.6,454.3l-1.1,0.2l1.1-1.3C422.6,453.6,422.6,453.9,422.6,454.3z"/>
		<path class="st84" d="M45,109.1l-0.9,1L45,109.1z"/>
		<path class="st15" d="M322.7,109l0.9-0.9L322.7,109z"/>
		<path class="st125" d="M110.6,470.7c-0.3-0.3-0.7-0.7-1-1l-0.1,0L110.6,470.7L110.6,470.7z"/>
		<path class="st126" d="M110.6,470.7l0.4,0.4c-0.1,0-0.2,0-0.3-0.1C110.7,470.9,110.6,470.8,110.6,470.7L110.6,470.7z"/>
		<path class="st45" d="M205.7,32.3l-1.1-0.7L205.7,32.3z"/>
		<path class="st84" d="M46,108.1l-1,1.1L46,108.1z"/>
		<path class="st15" d="M323.7,108l1.1-0.9L323.7,108z"/>
		<path class="st46" d="M287.4,103.3c0.2-0.4,0.5-0.8,0.8-1.2C287.9,102.5,287.7,102.9,287.4,103.3z"/>
		<path class="st101" d="M189.5,500l-0.5-0.9c0.2-0.4,0.6-0.6,1-0.4c0.1,0.1,0.2,0.1,0.3,0.3l0,0L189.5,500z"/>
		<path class="st71" d="M134.9,31.5l-1.1,0.9L134.9,31.5z"/>
		<path class="st81" d="M357.4,30.4l0.7,1L357.4,30.4z"/>
		<path class="st127" d="M341.9,225.3l1-1c1,0.1,1.8,0.8,2.1,1.7c0.2,0.2,0.3,0.4,0.2,0.7c-0.1,0.2-0.1,0.4-0.2,0.4L341.9,225.3z"/>
		<path class="st128" d="M345,227.2l0-1.1l1,1.3L345,227.2z"/>
		<path class="st129" d="M347,228.4c-0.8,0.1-1.1-0.4-1.1-1.1c0.5-0.1,1,0.3,1.1,0.9C347,228.2,347,228.3,347,228.4z"/>
		<path class="st130" d="M348.2,229.3h-1.1c-0.1-0.4-0.1-0.7-0.2-1C347.5,228.2,348.1,228.7,348.2,229.3z"/>
		<path class="st131" d="M238.9,251.6c1.6,0.1,3,0.7,4.1,1.8c0.3,0.2,0.5,0.5,0.3,0.7s-0.2,0.4-0.3,0.4c-1.6,0-3-0.7-4.1-1.9
			c-0.3-0.2-0.5-0.4-0.3-0.7S238.8,251.6,238.9,251.6z"/>
		<path class="st132" d="M232.7,248.8c1.2,0.3,2.5,0.5,3.2,1.7c0.3,0.2,0.5,0.4,0.4,0.7s-0.2,0.3-0.3,0.3c-1.6-0.1-3-0.8-4.2-1.9
			C231.9,249.2,232.3,248.9,232.7,248.8z"/>
		<path class="st128" d="M248,255.3v1.1l-1.1,0.2c-0.2-0.3-0.5-0.5-0.9-0.6l-2.1-1.4c-0.3-0.2-0.4-0.4-0.3-0.6s0.2-0.3,0.3-0.3
			C245.4,253.9,246.8,254.4,248,255.3z"/>
		<path class="st101" d="M235.9,251.5c0-0.3,0-0.7,0-1c0.8,0.1,1.7,0.2,2,1.2v0.6L235.9,251.5z"/>
		<path class="st101" d="M224.9,245.6c0.3,0,0.6,0,0.9-0.1l1.1,0.7c0.3,0.3,0.4,0.5,0.3,0.8s-0.2,0.4-0.4,0.4l-2-0.9
			C224.8,246.2,224.8,245.9,224.9,245.6z"/>
		<path class="st101" d="M232.7,248.8l-1,0.8c-0.3,0-0.6-0.1-0.9-0.3c-0.3-0.3-0.4-0.5-0.3-0.8s0.2-0.4,0.3-0.4L232.7,248.8z"/>
		<path class="st129" d="M230.9,248.2v1.1l-1.1-0.7c-0.3-0.2-0.5-0.5-0.3-0.7s0.2-0.3,0.4-0.3L230.9,248.2z"/>
		<path class="st129" d="M227.8,246.6l1.1,0.6c0.3,0.3,0.3,0.9,0,1.2c0,0,0,0,0,0l-1.1-0.6c-0.2-0.2-0.3-0.5-0.2-0.8
			C227.6,246.7,227.7,246.6,227.8,246.6z"/>
		<path class="st101" d="M227.8,246.6l0,1.1l-1-0.4c0-0.4,0.1-0.8,0.1-1.1C227.2,246.2,227.6,246.4,227.8,246.6z"/>
		<path class="st101" d="M228.8,248.4l0.1-1.2l0.9,0.4v1L228.8,248.4z"/>
		<path class="st101" d="M237.9,252.3c0-0.2,0-0.4,0-0.6l1-0.1v1L237.9,252.3z"/>
		<path class="st101" d="M243.9,253.7c0,0.3,0,0.6,0,0.9h-0.5l-0.5-0.1c0-0.4,0-0.7,0-1C243.3,253.4,243.6,253.5,243.9,253.7z"/>
		<path class="st0" d="M246,256l0.9,0.6L246,256z"/>
		<path class="st0" d="M418.7,144.2l-1.1-0.8L418.7,144.2z"/>
		<path class="st133" d="M76.4,433.3c-1.4,0.2-2.7-0.6-3.1-2c-0.3-0.2-0.4-0.4-0.3-0.6s0.2-0.3,0.3-0.3
			C74.5,431.1,75.8,431.8,76.4,433.3z"/>
		<path class="st134" d="M81.6,436.2l-1.1,1.1c-1.1-0.2-1.9-1-2.2-2C79.5,435.1,80.7,435.4,81.6,436.2z"/>
		<path class="st101" d="M190.4,499l-1.3,0.1c-0.3-0.3-0.6-0.7-0.9-1c0.2-0.3,0.6-0.5,0.9-0.3c0.1,0.1,0.2,0.1,0.3,0.2L190.4,499z"
			/>
		<path class="st101" d="M189.3,498l-1.1,0.1l-1.2-1l1.3-0.1L189.3,498z"/>
		<path class="st135" d="M73.2,430.4c0,0.3,0,0.7,0,1l-1-1.1c-0.3-0.1-0.4-0.3-0.3-0.5s0.2-0.3,0.2-0.3L73.2,430.4z"/>
		<path class="st136" d="M72.2,429.4c0,0.3,0,0.5,0,0.8c-0.7,0-1-0.3-1-1l-0.4-0.4c0.1-0.1,0.2-0.3,0.3-0.5L72.2,429.4z"/>
		<path class="st101" d="M69.3,428.3l0.9-0.9l1,1.1l-0.1,0c-0.3,0.2-0.7,0.1-0.9-0.1l-0.5,0.1L69.3,428.3z"/>
		<path class="st136" d="M77.4,434.4l-1.1-1.1c0.5-0.1,1,0.4,1.1,0.9C77.4,434.2,77.4,434.3,77.4,434.4z"/>
		<path class="st137" d="M78.4,435.4l-1.1-1.1C78,434.3,78.4,434.6,78.4,435.4z"/>
		<path class="st138" d="M403.6,439.9l-2.1,1.5c-0.2-0.2-0.5-0.4-0.8-0.5l-0.2-0.4c0.7-1,1.8-1.7,3.1-2c0.4,0.3,0.5,0.8,0.2,1.2
			C403.7,439.7,403.7,439.8,403.6,439.9z"/>
		<path class="st129" d="M397.5,444.5l-0.1-1.3c0.3-0.9,1.1-1.6,2.1-1.8c0.2,0.2,0.4,0.5,0.3,0.8c-0.1,0.3-0.1,0.5-0.2,0.5
			L397.5,444.5z"/>
		<path class="st139" d="M399.6,442.7l-0.1-1.3l1-0.9c-0.1,0.2-0.1,0.4,0.1,0.5c0.2,0.1,0.3,0.3,0.2,0.5c-0.1,0.2-0.1,0.3-0.2,0.3
			L399.6,442.7z"/>
		<path class="st129" d="M405.6,438.5c0,0.5-0.4,0.8-0.9,0.8c-0.1,0-0.1,0-0.2,0c-0.2-0.2-0.4-0.4-0.3-0.7c0.1-0.2,0.2-0.4,0.2-0.4
			c0.1-0.6,0.5-0.8,1.1-0.7c0.3,0.2,0.5,0.5,0.3,0.7S405.7,438.5,405.6,438.5z"/>
		<path class="st129" d="M407.6,437.4l-1,0.7c-0.2-0.2-0.3-0.5-0.3-0.7c0.1-0.3,0.2-0.4,0.2-0.4c0.1-0.6,0.6-0.7,1.1-0.6
			c0.3,0.2,0.4,0.4,0.3,0.6S407.7,437.4,407.6,437.4z"/>
		<path class="st101" d="M407.6,437.4c0-0.3,0-0.7,0-1l0.9-0.5c0,0.4,0,0.9,0,1.3C408.2,437.4,407.9,437.5,407.6,437.4z"/>
		<path class="st101" d="M406.5,437.1v1.1l-0.9,0.4c0-0.4,0-0.7,0-1.1L406.5,437.1z"/>
		<path class="st101" d="M404.5,438.2v1.1l-0.9,0.6v-1.4C403.8,438.3,404.1,438.2,404.5,438.2z"/>
		<path class="st0" d="M460.1,123.3c0.2,0.1,0.4,0.1,0.7,0.1c1.1,0.4,0.8,1.2,0.6,1.9l-0.2-0.2l-0.3,0.1L460.1,123.3z"/>
		<path class="st101" d="M70.2,428.3c0.3,0,0.6,0,0.9,0.1c0.1,0.3,0.2,0.5,0.2,0.8c-0.5,0.1-1-0.2-1.1-0.6
			C70.2,428.5,70.2,428.4,70.2,428.3z"/>
		<path class="st101" d="M400.6,441.8c0-0.3,0-0.5,0-0.8l0.9,0.4C401.3,441.6,400.9,441.8,400.6,441.8z"/>
		<path class="st140" d="M265.1,36.3c0-0.4,0-0.8,0-1.2c0.7-1.2,1.8-2.2,3.1-2.6c0.3,0.2,0.4,0.5,0.3,0.8c-0.1,0.3-0.2,0.4-0.3,0.4
			C267.5,34.9,266.4,35.8,265.1,36.3z"/>
		<path class="st141" d="M274.3,28.4l1.2,1l-3.2,1.8c-0.3-0.2-0.4-0.5-0.3-0.8c0.1-0.2,0.2-0.4,0.3-0.4L274.3,28.4z"/>
		<path class="st142" d="M271.3,31.8l-2.1,1.4c-0.3-0.2-0.4-0.5-0.3-0.7s0.2-0.3,0.3-0.3c0.3-0.9,1.1-1.6,2.1-1.7
			C271.6,30.9,271.6,31.4,271.3,31.8z"/>
		<path class="st101" d="M269.2,32.2v1l-0.9,0.5c0-0.4,0-0.8,0-1.2C268.6,32.4,268.9,32.3,269.2,32.2z"/>
		<path class="st101" d="M271.3,31.8c0-0.5,0-0.9,0-1.3c0.3-0.2,0.6-0.3,0.9-0.3v1.1L271.3,31.8z"/>
		<path class="st2" d="M182.4,88.9l0.6,1.1L182.4,88.9z"/>
		<path class="st143" d="M461.4,125.3l-0.6-1.9l1.2-0.1c0.2,0.2,0.3,0.5,0.2,0.8L461.4,125.3z"/>
		<path class="st1" d="M117.6,273.8l-0.8-1.1L117.6,273.8z"/>
		<path class="st45" d="M68.2,139.4c-0.3,0-0.6,0-1-0.1c0.7-4.2,4.8-5.4,7.5-7.6c19.3-15.7,38.8-31.1,58.3-46.6
			c20.7-16.4,41.3-32.8,62-49.1c2.3-1.8,4.1-4.5,7.5-4.7c-10.6,8.6-21.1,17.4-31.8,25.9c-17.2,13.8-34.6,27.4-51.9,41.1
			c-16,12.7-32,25.4-47.9,38.1C70,137.5,69.1,138.4,68.2,139.4z"/>
		<path class="st38" d="M154.2,82.9l-1.1,1c0-0.3,0-0.7,0-1.1L154.2,82.9z"/>
		<path class="st38" d="M153.1,83.9l-1,1.2L153.1,83.9z"/>
		<path class="st20" d="M182.2,188c0,0.3,0,0.5-0.1,0.8c-0.3,0.1-0.6,0.1-0.8,0.1L182.2,188z"/>
		<path class="st34" d="M155.1,49.5c-0.7,2.5-2.8,3.4-5,4C151.3,51.7,152.5,49.8,155.1,49.5z"/>
		<path class="st34" d="M104.6,89.9c-0.7,2.5-2.8,3.4-5,4C100.8,92.1,102,90.2,104.6,89.9z"/>
		<path class="st34" d="M80.3,109.1c-0.7,2.5-2.8,3.4-5,4C76.5,111.3,77.8,109.4,80.3,109.1z"/>
		<path class="st34" d="M179.3,30.3c-0.7,2.5-2.8,3.4-5,4C175.5,32.5,176.8,30.6,179.3,30.3z"/>
		<path class="st34" d="M109.6,85.9c-1.3,1.9-2.5,3.8-5,4C105.8,88.1,107.1,86.1,109.6,85.9z"/>
		<path class="st34" d="M184.4,26.3c-1.3,1.9-2.5,3.8-5,4C180.6,28.5,181.8,26.6,184.4,26.3z"/>
		<path class="st34" d="M114.7,81.9c-0.3,2.4-2.2,2.7-4,3C111.5,83.3,112.6,81.9,114.7,81.9z"/>
		<path class="st34" d="M75.3,113.2c-0.3,2.4-2.2,2.7-4,3C72.1,114.6,73.2,113.2,75.3,113.2z"/>
		<path class="st34" d="M150,53.6c-0.3,2.4-2.2,2.7-4,3C146.9,55,148,53.6,150,53.6z"/>
		<path class="st34" d="M70.2,117.2c-0.9,1.6-2,3-4,3C67.1,118.6,68.2,117.3,70.2,117.2z"/>
		<path class="st34" d="M174.3,34.4c-0.9,1.6-2,3-4,3C171.1,35.8,172.2,34.5,174.3,34.4z"/>
		<path class="st34" d="M124.8,73.8c-0.9,1.6-2,3-4,3C121.6,75.2,122.7,73.9,124.8,73.8z"/>
		<path class="st34" d="M99.5,94c-0.9,1.6-2,2.9-4,3C96.4,95.4,97.5,94.1,99.5,94z"/>
		<path class="st34" d="M129.8,69.7c-0.9,1.6-2,3-4,3C126.7,71.2,127.8,69.8,129.8,69.7z"/>
		<path class="st34" d="M94.5,98c-0.9,1.6-2,3-4,3C91.3,99.4,92.4,98.1,94.5,98z"/>
		<path class="st34" d="M65.2,121.3c-0.9,1.6-2,3-4,3C62,122.7,63.1,121.3,65.2,121.3z"/>
		<path class="st34" d="M119.7,77.8c-0.9,1.6-2,3-4,3C116.6,79.2,117.7,77.9,119.7,77.8z"/>
		<path class="st34" d="M134.9,65.7c-0.9,1.6-2,3-4,3C131.7,67.1,132.8,65.8,134.9,65.7z"/>
		<path class="st34" d="M159.1,46.5c-0.9,1.6-2,3-4,3C156,47.9,157.1,46.6,159.1,46.5z"/>
		<path class="st34" d="M145,57.6c-0.9,1.6-2,2.9-4,3C141.8,59,142.9,57.7,145,57.6z"/>
		<path class="st34" d="M60.1,125.3c-0.9,1.6-2,3-4,3C57,126.7,58.1,125.4,60.1,125.3z"/>
		<path class="st34" d="M89.4,102.1c-0.9,1.6-2,3-4,3C86.3,103.5,87.4,102.1,89.4,102.1z"/>
		<path class="st34" d="M164.2,42.5c-0.9,1.6-2,3-4,3C161,43.9,162.1,42.5,164.2,42.5z"/>
		<path class="st34" d="M188.4,24.3c-1.4,0.6-2.3,2.2-4,2C185.5,25.3,185.7,22.3,188.4,24.3z"/>
		<path class="st34" d="M139.9,61.7c-0.9,1.6-2,3-4,3C136.8,63.1,137.9,61.7,139.9,61.7z"/>
		<path class="st34" d="M84.4,106.1c-0.9,1.6-2,3-4,3C81.2,107.5,82.3,106.2,84.4,106.1z"/>
		<path class="st34" d="M169.2,38.4c-0.9,1.6-2,3-4,3C166.1,39.8,167.2,38.5,169.2,38.4z"/>
		<path class="st34" d="M56.1,128.3l-1,1L56.1,128.3z"/>
		<path class="st34" d="M115.7,80.9l-1,1L115.7,80.9z"/>
		<path class="st34" d="M120.7,76.8l-1,1L120.7,76.8z"/>
		<path class="st34" d="M61.1,124.3l-1,1L61.1,124.3z"/>
		<path class="st34" d="M125.8,72.8l-1,1L125.8,72.8z"/>
		<path class="st34" d="M130.8,68.7l-1,1L130.8,68.7z"/>
		<path class="st34" d="M135.9,64.7l-1,1L135.9,64.7z"/>
		<path class="st34" d="M110.6,84.9l-1,1L110.6,84.9z"/>
		<path class="st34" d="M140.9,60.6l-1,1L140.9,60.6z"/>
		<path class="st34" d="M146,56.6l-1,1L146,56.6z"/>
		<path class="st34" d="M71.2,116.2l-1,1L71.2,116.2z"/>
		<path class="st34" d="M95.5,97l-1,1L95.5,97z"/>
		<path class="st34" d="M160.1,45.5l-1,1L160.1,45.5z"/>
		<path class="st34" d="M165.2,41.5l-1,1L165.2,41.5z"/>
		<path class="st34" d="M170.2,37.4l-1,1L170.2,37.4z"/>
		<path class="st34" d="M90.4,101.1l-1,1L90.4,101.1z"/>
		<path class="st34" d="M85.4,105.1l-1,1L85.4,105.1z"/>
		<path class="st34" d="M66.2,120.2l-1,1L66.2,120.2z"/>
		<path class="st38" d="M88.4,130.3l1-1L88.4,130.3z"/>
		<path class="st38" d="M83.4,134.4l1-1L83.4,134.4z"/>
		<path class="st38" d="M78.3,138.4l1-1L78.3,138.4z"/>
		<path class="st38" d="M73.3,142.5l1-1L73.3,142.5z"/>
		<path class="st38" d="M97.5,123.3l1-1L97.5,123.3z"/>
		<path class="st38" d="M102.6,119.2l1-1L102.6,119.2z"/>
		<path class="st38" d="M107.6,115.2l1-1L107.6,115.2z"/>
		<path class="st38" d="M112.7,111.2l1-1L112.7,111.2z"/>
		<path class="st38" d="M122.8,103.1l1-1L122.8,103.1z"/>
		<path class="st38" d="M117.7,107.1l1-1L117.7,107.1z"/>
		<path class="st7" d="M92.4,263.9l-0.7-1.2L92.4,263.9z"/>
		<path class="st42" d="M157.1,62.7c-1.3,1.9-2.5,3.8-5,4C153.3,64.8,154.5,62.9,157.1,62.7z"/>
		<path class="st42" d="M197.5,30.3c-1.3,1.9-2.5,3.8-5,4C193.7,32.5,194.9,30.6,197.5,30.3z"/>
		<path class="st42" d="M187.4,38.4c-1.3,1.9-2.5,3.8-5,4C183.6,40.6,184.8,38.7,187.4,38.4z"/>
		<path class="st42" d="M162.1,58.6c-1.3,1.9-2.5,3.8-5,4C158.4,60.8,159.6,58.9,162.1,58.6z"/>
		<path class="st42" d="M182.3,42.5c-1.3,1.9-2.5,3.8-5,4.1C178.6,44.6,179.8,42.7,182.3,42.5z"/>
		<path class="st42" d="M177.3,46.5c-1.3,1.9-2.5,3.8-5,4C173.5,48.7,174.7,46.8,177.3,46.5z"/>
		<path class="st42" d="M192.4,34.4c-1.3,1.9-2.5,3.8-5,4C188.7,36.6,189.9,34.6,192.4,34.4z"/>
		<path class="st42" d="M172.2,50.5c-1.3,1.9-2.5,3.8-5,4C168.5,52.7,169.7,50.8,172.2,50.5z"/>
		<path class="st42" d="M122.8,89.9c-1.3,1.9-2.5,3.8-5,4C119,92.1,120.2,90.2,122.8,89.9z"/>
		<path class="st42" d="M117.7,94c-1.3,1.9-2.5,3.8-5,4C113.9,96.1,115.1,94.2,117.7,94z"/>
		<path class="st42" d="M167.2,54.6c-1.3,1.9-2.5,3.8-5,4C163.4,56.8,164.6,54.8,167.2,54.6z"/>
		<path class="st42" d="M141.9,74.8c-0.9,1.6-2,2.9-4,3C138.8,76.2,139.9,74.9,141.9,74.8z"/>
		<path class="st42" d="M147,70.8c-0.9,1.6-2,3-4,3C143.8,72.2,144.9,70.8,147,70.8z"/>
		<path class="st42" d="M152,66.7c-0.9,1.6-2,3-4,3C148.9,68.1,150,66.8,152,66.7z"/>
		<path class="st42" d="M126.8,86.9c-0.9,1.6-2,3-4,3C123.6,88.3,124.8,87,126.8,86.9z"/>
		<path class="st42" d="M136.9,78.8c-0.9,1.6-2,3-4,3C133.8,80.2,134.8,78.9,136.9,78.8z"/>
		<path class="st42" d="M131.8,82.9c-0.9,1.6-2,2.9-4,3C128.7,84.3,129.8,82.9,131.8,82.9z"/>
		<path class="st42" d="M132.9,81.9l-1,1L132.9,81.9z"/>
		<path class="st42" d="M137.9,77.8l-1,1L137.9,77.8z"/>
		<path class="st42" d="M143,73.8l-1,1C142.3,74.5,142.6,74.1,143,73.8z"/>
		<path class="st42" d="M148,69.7l-1,1L148,69.7z"/>
		<path class="st42" d="M127.8,85.9l-1,1L127.8,85.9z"/>
		<path class="st42" d="M197.5,29.3c0.3,0,0.6,0,1,0l-1,1V29.3z"/>
		<path class="st58" d="M97.7,231.3l0.7-1.2L97.7,231.3z"/>
		<path class="st38" d="M161.1,78.8l-2,1C159.5,79.1,160.3,78.7,161.1,78.8z"/>
		<path class="st38" d="M159.1,79.8l-2,1.1C157.5,80.1,158.2,79.7,159.1,79.8z"/>
		<path class="st38" d="M157.1,80.9l-1,0.8L157.1,80.9z"/>
		<path class="st77" d="M67.2,99c5.4-6.4,12.6-10.8,19-16.2c13.9-11.6,28.4-22.6,42.6-33.8c0.9-0.8,1.8-1.5,3.1-1.5
			c-5.5,6.4-12.5,11-18.9,16.2c-14,11.5-28.4,22.5-42.7,33.8C69.3,98.3,68.5,99,67.2,99z"/>
		<path class="st77" d="M131.8,47.5c1.3-1.9,2.5-3.8,5-4C135.6,45.4,134.4,47.3,131.8,47.5z"/>
		<path class="st77" d="M62.2,103.1c1.3-1.9,2.5-3.8,5-4C65.9,100.9,64.7,102.8,62.2,103.1z"/>
		<path class="st96" d="M119.7,61.7c-0.9,1.6-2,3-4,3C116.6,63.1,117.7,61.7,119.7,61.7z"/>
		<path class="st96" d="M94.5,81.9c-0.5,1.2-1.7,2.1-3,2C91.9,82.6,93.1,81.8,94.5,81.9z"/>
		<path class="st96" d="M89.4,85.9c-0.5,1.2-1.7,2.1-3,2C86.9,86.6,88.1,85.8,89.4,85.9z"/>
		<path class="st96" d="M138.9,46.5c-0.4,1.3-1.7,2.1-3,2C136.4,47.3,137.6,46.4,138.9,46.5z"/>
		<path class="st96" d="M99.5,77.8c-0.5,1.2-1.7,2.1-3,2C97,78.6,98.2,77.7,99.5,77.8z"/>
		<path class="st96" d="M133.9,50.5c-0.5,1.2-1.7,2.1-3,2C131.3,51.3,132.5,50.5,133.9,50.5z"/>
		<path class="st96" d="M128.8,54.6c-0.5,1.2-1.7,2.1-3,2C126.2,55.3,127.5,54.5,128.8,54.6z"/>
		<path class="st96" d="M154.1,34.4c-0.4,1.3-1.7,2.1-3,2C151.5,35.1,152.7,34.3,154.1,34.4z"/>
		<path class="st96" d="M144,42.5c-0.4,1.3-1.7,2.1-3,2C141.4,43.2,142.6,42.4,144,42.5z"/>
		<path class="st96" d="M109.6,69.7c-0.5,1.2-1.7,2.1-3,2C107.1,70.5,108.3,69.7,109.6,69.7z"/>
		<path class="st96" d="M114.7,65.7c-0.5,1.2-1.7,2.1-3,2C112.1,66.4,113.3,65.6,114.7,65.7z"/>
		<path class="st96" d="M159.1,30.3c-0.4,1.3-1.7,2.1-3,2C156.6,31.1,157.8,30.3,159.1,30.3z"/>
		<path class="st96" d="M123.8,58.6c-0.5,1.2-1.7,2.1-3,2C121.2,59.3,122.5,58.5,123.8,58.6z"/>
		<path class="st96" d="M149,38.4c-0.4,1.3-1.7,2.1-3,2C146.5,39.2,147.7,38.4,149,38.4z"/>
		<path class="st96" d="M104.6,73.8c-0.5,1.2-1.7,2.1-3,2C102,74.5,103.2,73.7,104.6,73.8z"/>
		<path class="st96" d="M95.5,80.9l-1,1L95.5,80.9z"/>
		<path class="st96" d="M96.5,79.8l-1,1L96.5,79.8z"/>
		<path class="st96" d="M91.4,83.9l-1,1L91.4,83.9z"/>
		<path class="st96" d="M90.4,84.9l-1,1L90.4,84.9z"/>
		<path class="st96" d="M100.5,76.8l-1,1L100.5,76.8z"/>
		<path class="st96" d="M101.5,75.8l-1,1L101.5,75.8z"/>
		<path class="st96" d="M105.6,72.8l-1,1L105.6,72.8z"/>
		<path class="st96" d="M106.6,71.8l-1,1L106.6,71.8z"/>
		<path class="st96" d="M110.6,68.7l-1,1L110.6,68.7z"/>
		<path class="st96" d="M111.6,67.7l-1,1L111.6,67.7z"/>
		<path class="st96" d="M115.7,64.7l-1,1L115.7,64.7z"/>
		<path class="st96" d="M120.7,60.6l-1,1L120.7,60.6z"/>
		<path class="st96" d="M124.8,57.6l-1,1L124.8,57.6z"/>
		<path class="st96" d="M125.8,56.6l-1,1L125.8,56.6z"/>
		<path class="st96" d="M129.8,53.6l-1,1L129.8,53.6z"/>
		<path class="st96" d="M161.1,28.3l-1,1L161.1,28.3z"/>
		<path class="st96" d="M130.8,52.6l-1,1L130.8,52.6z"/>
		<path class="st96" d="M134.9,49.5l-1,1L134.9,49.5z"/>
		<path class="st96" d="M135.9,48.5l-1,1L135.9,48.5z"/>
		<path class="st96" d="M139.9,45.5l-1,1L139.9,45.5z"/>
		<path class="st96" d="M140.9,44.5l-1,1L140.9,44.5z"/>
		<path class="st96" d="M145,41.5l-1,1L145,41.5z"/>
		<path class="st96" d="M146,40.4l-1,1L146,40.4z"/>
		<path class="st96" d="M160.1,29.3l-1,1L160.1,29.3z"/>
		<path class="st96" d="M150,37.4l-1,1L150,37.4z"/>
		<path class="st96" d="M151,36.4l-1,1L151,36.4z"/>
		<path class="st96" d="M155.1,33.4l-1,1L155.1,33.4z"/>
		<path class="st96" d="M156.1,32.4l-1,1L156.1,32.4z"/>
		<path class="st144" d="M20.7,170.6c0.4-2.2,1.4-4.3,3-6c0.4,0.2,0.7,0.6,0.9,1c-0.3,0.7-0.5,1.4-0.8,2.1c-1,1.4-2,2.7-3,4.1
			c-0.3-0.2-0.4-0.5-0.3-0.8C20.5,170.7,20.6,170.6,20.7,170.6z"/>
		<path class="st145" d="M20.7,170.6c0,0.4,0,0.8,0.1,1.2c0,0.3-0.1,0.6-0.2,0.9h-1C19.5,171.9,20,171.1,20.7,170.6z"/>
		<path class="st72" d="M18.9,175.8l0.8-0.9L18.9,175.8z"/>
		<path class="st72" d="M17.9,177.9l0.8-1.1c0,0.3,0,0.7,0,1L17.9,177.9z"/>
		<path class="st34" d="M26.7,158.6l-0.9,1L26.7,158.6z"/>
	</g>
</g>
</svg>
