<?xml version="1.0" encoding="UTF-8" standalone="no"?>
<!-- Created with Inkscape (http://www.inkscape.org/) -->

<svg
   xmlns:dc="http://purl.org/dc/elements/1.1/"
   xmlns:cc="http://creativecommons.org/ns#"
   xmlns:rdf="http://www.w3.org/1999/02/22-rdf-syntax-ns#"
   xmlns:svg="http://www.w3.org/2000/svg"
   xmlns="http://www.w3.org/2000/svg"
   xmlns:sodipodi="http://sodipodi.sourceforge.net/DTD/sodipodi-0.dtd"
   xmlns:inkscape="http://www.inkscape.org/namespaces/inkscape"
   version="1.1"
   id="svg2"
   xml:space="preserve"
   width="99.062302"
   height="57.887104"
   viewBox="0 0 99.0623 57.887104"
   sodipodi:docname="hawk-logo-white.svg"
   inkscape:version="0.92.4 (5da689c313, 2019-01-14)"><metadata
     id="metadata8"><rdf:RDF><cc:Work
         rdf:about=""><dc:format>image/svg+xml</dc:format><dc:type
           rdf:resource="http://purl.org/dc/dcmitype/StillImage" /><dc:title /></cc:Work></rdf:RDF></metadata><defs
     id="defs6" /><sodipodi:namedview
     pagecolor="#ffffff"
     bordercolor="#666666"
     borderopacity="1"
     objecttolerance="10"
     gridtolerance="10"
     guidetolerance="10"
     inkscape:pageopacity="0"
     inkscape:pageshadow="2"
     inkscape:window-width="2048"
     inkscape:window-height="1115"
     id="namedview4"
     showgrid="false"
     fit-margin-top="0"
     fit-margin-left="0"
     fit-margin-right="0"
     fit-margin-bottom="0"
     inkscape:zoom="3.2314494"
     inkscape:cx="-71.064931"
     inkscape:cy="18.403683"
     inkscape:window-x="0"
     inkscape:window-y="0"
     inkscape:window-maximized="1"
     inkscape:current-layer="g10" /><g
     id="g10"
     inkscape:groupmode="layer"
     inkscape:label="hawk-logo"
     transform="matrix(1.3333333,0,0,1.3333333,-115.17514,-21.038786)"><path
       inkscape:connector-curvature="0"
       id="path14"
       style="fill:#ffffff;fill-opacity:1;fill-rule:nonzero;stroke:none"
       d="m 94.43,57.504 c -3.485,-1.84 -6.946,-6.524 -7.852,-10.629 -0.441,-2.008 -0.254,-1.879 1.75,1.199 3.461,5.317 6.391,7.051 11.914,7.051 4.039,0 4.977,-0.289 7.473,-2.309 4.312,-3.492 6.285,-7.808 6.281,-13.746 0,-3.711 -0.398,-5.601 -1.594,-7.57 l -1.59,-2.625 1.696,1.5 c 5.578,4.93 4.683,18.457 -1.598,24.109 -5.613,5.055 -10.82,6.008 -16.48,3.02 z m 41.14,0.68 c -1.543,-0.551 -3.648,-1.555 -4.679,-2.231 -2.899,-1.898 -6.203,-8.387 -7.161,-14.066 -0.582,-3.465 -1.558,-6.055 -3.046,-8.114 -1.797,-2.476 -1.965,-3.023 -0.926,-3.023 0.699,0 2.051,0.734 3.004,1.629 2.226,2.09 2.922,1.383 1.445,-1.469 -1.91,-3.699 -7.906,-7.961 -9.269,-6.598 -0.25,0.25 0.199,0.946 0.992,1.547 0.797,0.602 1.05,1.106 0.57,1.118 -0.484,0.011 -1.41,0.226 -2.062,0.48 -0.833,0.316 -1.188,0.016 -1.188,-1.008 0,-1.535 -2.75,-3.199 -5.285,-3.199 -1.965,0 -1.856,1.066 0.223,2.16 1.257,0.66 1.304,0.758 0.187,0.387 -0.824,-0.274 -2.68,-0.723 -4.125,-1 l -2.625,-0.5 2.25,-1.192 c 1.809,-0.957 3.594,-1.097 9.063,-0.707 5.851,0.418 7.195,0.778 9.503,2.536 3.649,2.785 6.391,8.707 7.032,15.191 0.476,4.836 0.422,5.168 -0.727,4.219 -1.871,-1.547 -1.504,-0.047 0.93,3.793 4.027,6.351 11.383,7.312 17.476,2.285 3.313,-2.731 4,-3.629 6.309,-8.246 3.324,-6.641 2.316,-16.594 -2.406,-23.801 -2.438,-3.723 -0.516,-3.367 3.23,0.59 5.524,5.844 7.563,13.887 5.746,22.66 -1.449,6.996 -7.179,13.449 -14.312,16.117 -4.66,1.746 -6.293,1.817 -10.149,0.442 z M 94.266,47.293 C 89.562,44.27 87.438,39.844 87.402,33 c -0.027,-4.801 1.996,-12 3.371,-12 0.36,0 0.114,1.266 -0.543,2.812 -1.773,4.184 -1.613,10.422 0.375,14.223 3.426,6.567 11.157,8.996 16.711,5.254 3.407,-2.293 4.567,-4.715 4.172,-8.703 -0.207,-2.059 -0.082,-2.898 0.332,-2.25 1.078,1.707 0.766,8.684 -0.508,11.324 -1.773,3.684 -4.5,5.352 -9.277,5.672 -3.633,0.242 -4.617,-0.016 -7.769,-2.039 z"
       sodipodi:nodetypes="cccscccccccccccsccscccsscccccccccccccccccccscccccccc" /></g></svg>