<?xml version="1.0" standalone="no"?>
<!DOCTYPE svg PUBLIC "-//W3C//DTD SVG 20010904//EN"
 "http://www.w3.org/TR/2001/REC-SVG-20010904/DTD/svg10.dtd">
<svg version="1.0" xmlns="http://www.w3.org/2000/svg"
 width="310.000000pt" height="310.000000pt" viewBox="0 0 310.000000 310.000000"
 preserveAspectRatio="xMidYMid meet">
<metadata>
Created by potrace 1.11, written by Peter Selinger 2001-2013
</metadata>
<g transform="translate(0.000000,310.000000) scale(0.100000,-0.100000)"
fill="#000000" stroke="none">
<path d="M2655 2450 c-4 -6 16 -50 44 -98 70 -123 106 -204 134 -302 35 -121
41 -167 41 -325 0 -169 -21 -256 -95 -400 -62 -122 -98 -174 -168 -242 -142
-139 -288 -205 -439 -197 -180 9 -319 117 -428 334 -36 73 -28 91 23 50 14
-11 30 -17 35 -13 12 6 6 120 -12 247 -40 280 -179 525 -348 614 -69 36 -113
47 -236 57 -39 4 -87 8 -106 11 -52 6 -250 5 -285 -1 -34 -7 -124 -46 -156
-68 -19 -14 -16 -16 48 -26 37 -7 103 -21 147 -32 82 -21 108 -20 57 0 -16 7
-39 24 -52 37 -29 31 -16 47 43 50 88 4 218 -71 218 -127 0 -48 12 -53 79 -38
34 7 61 18 61 24 0 6 -16 25 -35 44 -42 39 -44 57 -9 64 80 15 302 -164 363
-293 17 -36 31 -73 31 -82 0 -27 -31 -22 -70 13 -47 41 -109 77 -142 83 -42 7
-36 -23 21 -107 45 -67 70 -116 99 -192 7 -16 23 -84 37 -150 45 -210 111
-373 204 -498 54 -73 92 -104 188 -149 196 -92 294 -103 454 -52 370 119 617
392 684 754 11 58 14 291 5 350 -25 159 -69 274 -153 404 -55 83 -177 214
-231 247 -36 22 -42 23 -51 9z"/>
<path d="M151 2214 c-18 -23 -56 -122 -66 -173 -2 -12 -7 -31 -10 -41 -17 -54
-32 -197 -30 -289 7 -301 124 -492 375 -616 88 -44 202 -48 358 -14 154 34
267 162 297 339 4 19 8 87 11 151 3 89 0 127 -12 163 -9 25 -19 46 -23 46 -3
0 -6 -53 -4 -117 2 -155 -15 -203 -101 -288 -98 -95 -202 -136 -330 -130 -92
4 -117 10 -196 47 -83 39 -203 158 -243 240 -49 102 -62 169 -61 323 0 135 2
144 37 248 20 60 37 115 37 123 0 22 -16 17 -39 -12z"/>
<path d="M1053 1860 c79 -133 94 -187 96 -354 4 -263 -76 -440 -270 -598 -83
-68 -127 -82 -272 -84 -264 -5 -371 58 -546 319 -28 42 -54 77 -57 77 -3 0 -3
-12 -1 -27 26 -159 149 -349 287 -442 167 -113 346 -129 524 -48 137 63 279
196 338 318 138 283 117 644 -47 812 -69 72 -82 78 -52 27z"/>
</g>
</svg>
